<svg xmlns="http://www.w3.org/2000/svg" viewBox="0 0 384.53 470.43">
    <defs>
        <linearGradient id="a" x1=".78" x2="1.55" y1="-.15" y2=".5">
            <stop offset="0" stop-color="#d0b34c"/>
            <stop offset="1" stop-color="#fff"/>
        </linearGradient>
    </defs>
    <path fill="url(#a)"
          d="M60.75-37.15 29.9 35.43 0 28.55C.22 27.23 16.27 8.98 18.88 6.5 30.5-4.54 42.78-17.73 46.75-22.45a155.99 155.99 0 0 1 14-14.7Z"
          transform="translate(123.3 49.08)"/>
    <path fill="url(#a)"
          d="M.14-15.98c5.64-.88 14.9 13.9 26.13 28.87 13.37 17.84 28.1 37.5 29.96 40.43 2.88 4.82-9.78 19.35-9.78 19.35l-65.5-48.62S-5.75-4.44.14-15.98Z"
          transform="translate(203.97 16.02)"/>
    <path fill="url(#a)" d="m1.11-3.56 64.44 48.22-6.19 9.08S1.2 9.92-2.04 7.52 1.1-3.56 1.1-3.56Z"
          transform="translate(181.94 50.08)"/>
    <path fill="url(#a)"
          d="M3.97-4.6 66 43.69 55.38 62.05l-42.92-.3c-1.36-.05-3.95-5.6-7.58-12.47-5.17-9.79-11.7-22.65-12.32-24.7C-8.48 21.19 3.97-4.59 3.97-4.59Z"
          transform="translate(171.31 66.8)"/>
    <path fill="url(#a)"
          d="M4.07-14.26S11.5-5.19 11.23-2.7 5.47 44.5 5.47 44.5l-30.34 17.1-6.44 19.04s-.73-36.86-.73-39.41 36.1-55.49 36.1-55.49Z"
          transform="translate(266.57 97.43)"/>
    <path fill="url(#a)" d="m.52-.42 37.17.32-2.3 97.42-38.54-25.9S-.82 2.37.52-.42Z"
          transform="translate(184.32 139.04)"/>
    <path fill="url(#a)" d="M-1.53-3.87c3.07 1.19 37.78 24.89 37.78 24.89l-.8 12.95A260.71 260.71 0 0 1-1.54 8.11Z"
          transform="translate(182.24 221.78)"/>
    <path fill="url(#a)"
          d="M-1.59-.86s31.15 3.43 34.1 8.34 22.07 37.6 22.13 39.16-4.77 101.98-4.77 101.98c-.73-1.16-2.9-3.08-5.44-6.35-2.48-3.2-4.91-7.59-8.43-12.04-7.97-10.08-17.73-20.87-19.14-21.74-2.5-1.53-16.74-5.94-16.74-5.94Z"
          transform="translate(120.54 90.56)"/>
    <path fill="url(#a)"
          d="M-1.04-2.3s20.5 24.89 24.56 33.15c.64 6.37.54 17 .54 17-1.33-.2-5.65-3.5-10.58-7.13C8.22 36.87 2.3 32.47 1.7 30.85.63 27.88-1.04-2.3-1.04-2.3Z"
          transform="translate(141.22 218.48)"/>
    <path fill="url(#a)"
          d="m6.64-7.58 18.53 3.51s5.2 39.23 3.86 42.1S15.77 50.6 15.77 50.6s-24.84-5.76-27.02-9.13S.47 5.48 6.65-7.57Z"
          transform="translate(103.95 210.11)"/>
    <path fill="url(#a)" d="m12.3-7.93 11.52 3.4s-3.4 31.2-4.74 34.1S-.56 6.3-.56 6.3Z"
          transform="translate(173.12 389.12)"/>
    <path fill="url(#a)" d="m1.02-6.02 15.6-2.64s18.65 23.54 17.32 26.42-23.78 16.19-23.78 16.19Z"
          transform="translate(149.06 406.3)"/>
    <path fill="url(#a)"
          d="M-10.09 5.02C-2.49.32 13.47-7.1 26.75-13c10.17-4.53 18.92-8.63 19.92-7.81 2.25 1.82-5.14 41.11-6.9 50.48 0 0-21.98 7.39-26.27 5.83S-10.09 5.02-10.09 5.02Z"
          transform="translate(263.91 157.72)"/>
    <path fill="url(#a)"
          d="M.01-17.2c3.69 5.45 11.9 21.21 17.97 33.1 3.26 6.4 6.2 11.67 6.31 12.85.28 4-17.61 9.4-20.14 11.15 0 0-9.9-9.05-9.75-11.5.06-1.09 1.5-9.4 2.8-19.3C-1.25-2.72-.9-8.8.01-17.21Z"
          transform="translate(319.29 162.13)"/>
    <path fill="url(#a)" d="M-1.68-23.54S33.17 28.45 33.5 36.92C25.1 36 22.62 46.3 21 49.62L-2.6 15.55Z"
          transform="translate(76.78 154.75)"/>
    <path fill="url(#a)"
          d="M1.6-18.5s9.42 3.52 19.36 7.08C29.44-8.4 37.98-6 39.5-4.48c1.77 1.53.85 9.95.59 19.4-.3 11.08-.73 23.6-1.95 25.15-1.06 1.34-5.84 5.84-13.72 11.01S10.73 61.67 8 61.67c-5.26 0-26.76-14.74-26.76-14.74s4.82-19.3 9.91-35.67S-1.98-11.06 1.61-18.5Z"
          transform="translate(25.01 126.78)"/>
    <path fill="url(#a)" d="M-7.32-15.25S7.72-7.63 10.85-4.63s22.41 51.79 22.41 51.79l-7.62-1.18Z"
          transform="translate(17.73 203.67)"/>
    <path fill="url(#a)"
          d="M-15.88 6.25 14.07-16.6c3.26 4.24 7.78 12.61 15.08 23.95 5.25 7.96 10.63 14.97 10.72 15.6.2 1.43-6.58 16.68-6.58 16.68L-7 26.69s-5.3-11.49-8.88-20.44Z"
          transform="translate(54.65 192.5)"/>
    <path fill="url(#a)"
          d="M-11.87-12.28 23.45-.76s-4.4 14.99-4.32 17.19c.04 1.03 1.48 8 2.62 15.75 1.2 8.06 2.12 16.94 2.12 16.94a223.32 223.32 0 0 1-20.41-28.8 250.04 250.04 0 0 1-15.33-32.6Z"
          transform="translate(62.74 238.16)"/>
    <path fill="url(#a)" d="M6.43-15.53 30 13.53S-3.1 165.25-20.33 236.1l-20.19-7.48S-9.72 54.53 6.43-15.53Z"
          transform="translate(240.6 186.67)"/>
    <path fill="url(#a)"
          d="M-8.34-5.59c1.24-2.21 19.54-6.26 26.23-8.58L30.7.88c.55 4.1-12.4 52.36-12.4 52.36s-30.75-32.3-31.67-33.94S-9.58-3.37-8.34-5.59Z"
          transform="translate(287.4 209.94)"/>
    <path fill="url(#a)"
          d="M-2.64-13.34S8.39-1.4 17.5 8.57c5.28 5.78 10.14 10.87 10.38 11.79.63 2.39-2.9 12.86-2.9 12.86L-5.85 1.93Z"
          transform="translate(275.69 250.03)"/>
    <path fill="url(#a)"
          d="M3.86-19.53S27.4 1.72 34.42 12.03c-.55 3.29-11.95 46.62-11.95 46.62L-8.1 32.01c2.28-11.4 11.95-51.54 11.95-51.54Z"
          transform="translate(264.33 278.98)"/>
    <path fill="url(#a)"
          d="M1.26-25.11s6.37 5.29 13.5 11.4C21.72-7.76 29.66-.87 31.39 1.93c0 0 .02 1.23-2.38 11.16s-9.3 35.56-9.3 35.56l-34.95 2.31Z"
          transform="translate(253.16 343.13)"/>
    <path fill="url(#a)"
          d="M6.32-.89C7.6-2.47 22.14-7.95 22.14-7.95s-8.19 26.43-17 59.14c-12.76 47.43-33.96 128.5-35.7 130.48-2.93 3.3-11.45 4.4-11.45 4.4S5.03.69 6.32-.9Z"
          transform="translate(321.33 212.46)"/>
    <path fill="url(#a)"
          d="M-12.15 9.34c6.03-4.07 28.42-12 36.84-15.37l5.61 16.78C26.58 14.1 7.07 27.59 4.62 27.65s-17.76-11.22-17.76-11.22Z"
          transform="translate(346.74 262.45)"/>
    <path fill="url(#a)"
          d="M8.7-11.38s2.8 2.66 6.13 5.6c2.84 2.5 5.98 4.5 6.5 6.33.4 1.44-5.66 17.39-11.16 34.66C4.7 52.36-6.38 95.02-6.38 95.02l-11.28-.41Z"
          transform="translate(322.8 298.83)"/>
    <path fill="url(#a)"
          d="M-7.6 4.42c2.24-7.23 22.66-17.76 28.28-21.76 0 0 3.79 13.4 3.3 16.28S3.69 37.12 3.69 37.12L-10.9 13.96A97.63 97.63 0 0 0-7.6 4.4Z"
          transform="translate(360.51 301.2)"/>
    <path fill="url(#a)"
          d="M4.73-12.16C7.37-7.97 10.08-3.18 12.88.8c2.42 3.41 4.63 6.29 4.5 7.9-.28 3.19-8.94 18.25-14.7 26.74l-12.91-.42Z"
          transform="translate(342.5 334.95)"/>
    <path fill="url(#a)" d="M3.6-12.16h11.64L3.6 6.88l-8.47 2.26Z"
          transform="translate(327.38 386.97)"/>
    <path fill="url(#a)"
          d="M.73-10.53S30.17 10.02 36.7 12.68c0 0-4.87 46.2-19.1 108.22l-7.35 1.07C.5 63.14.34 52.54.34 52.54Z"
          transform="translate(180.22 250.62)"/>
    <path fill="url(#a)"
          d="M7.13-18.96 38.5 3.57s2.92 28.56 3.83 43.34C29.11 42.89 10.14 33.13-.72 30.39-7.29 2.75-7.74-7.1-7.74-7.1Z"
          transform="translate(131.35 276.68)"/>
    <path fill="url(#a)"
          d="M-8.25-6.4S18.85 4.27 34.18 9.83l1.56 18.3s-9.65-3.51-20.02-7.18c-9.35-3.3-19.4-6.74-20.46-8.15C-6.9 9.95-8.25-6.4-8.25-6.4Z"
          transform="translate(140.92 321.64)"/>
    <path fill="url(#a)" d="m-12.45-13.88 40.14 15.5c1.97 8.85 1.82 14.46 3.58 20.22l-14.1 12.91-18.6 1.75Z"
          transform="translate(149.71 355.15)"/>
    <path fill="url(#a)"
          d="M-2.07-3.23C7 .77 20.58 3.91 22.96 7.33c.86 1.46 3.05 10.9 5.26 24.75 4.44 27.8 30.57 154.4 34.9 174.1 0 0-20.26-2.06-26.72-6.13C30.41 171.83 9.36 65.61 6.05 46.43 4.43 37.1 3.28 25.57 2 17.38.71 8.98-.69 4.1-2.07-3.22Z"
          transform="translate(92.62 264.25)"/>
    <path fill="url(#a)"
          d="M-8.53-16.2C-6.56-15.7-.5-5.33 6.91 5.22c6.79 9.65 14.1 19.16 14.1 19.16s1.59 11.76 2.86 18.15c-2.67-.7-31.28-44.4-31.98-47s-.7-7.78-.42-11.71Z"
          transform="translate(68.25 282.1)"/>
    <path fill="url(#a)" d="M-2.81-.8 27.9 4.33l-.54 14.95-11.98.27C9.66 13.83-2.82-.8-2.82-.8Z"
          transform="translate(21.1 258.7)"/>
    <path fill="url(#a)" d="M2.37-14.12S25.3 10.73 25.25 12.19s-7.68 17.92-7.68 17.92h-22.5Z"
          transform="translate(4.93 274.06)"/>
    <path fill="url(#a)"
          d="M-6-10.2c1.82-2.1 9.75-3.72 13.11-2.95S37.1 28.38 37.1 28.38l-42.34-1.87S-14.43 14-14.5 11.35-7.83-8.1-6-10.2Z"
          transform="translate(44.05 298.42)"/>
    <path fill="url(#a)"
          d="M-13.94-6.85s30.09 2.1 42.88 2.59l7.98 6.78s7.23 31.08 9.25 43.17c-6.3 1-17.23 5.11-17.23 5.11Z"
          transform="translate(56.26 337.27)"/>
    <path fill="url(#a)"
          d="M-16.36-2.23s18.88-.64 21.43.25c1.04.37 9.73 13.23 20.28 28.61 14.77 21.53 38.43 51.32 38.43 51.32s-11.82-3.27-14.08-4.1c-1.13-.41-18.14-19.44-34.63-38.66C-.9 16.6-16.36-2.23-16.36-2.23Z"
          transform="translate(17.05 315.21)"/>
    <path fill="url(#a)" d="M-4.78-5.36a111.35 111.35 0 0 1 15.23-3.86l5.57 24.31-5.57-2.14Z"
          transform="translate(93.3 397.76)"/>
</svg>
