<svg xmlns="http://www.w3.org/2000/svg" viewBox="0 0 5744.79 913.63">
    <path fill="#d0b34c"
          d="M4014.22 229.72c50.52 11.88 84.1 41.46 90.12 82.03 3.99 26.83-4.9 61.56-34.21 90.12-71 69.15-154.5 46.53-155.48 27.6s68.74 5.24 133.77-44 38.6-116.97-54.85-132.48c-178.7-29.67-261.6 109.05-289.87 164.96-47.28 93.5-51.48 256.04 8.4 340.23s254.43 145.42 428.37-25.75l.77 22.46c-74.97 83.56-176.18 116.08-258.6 114.25s-134.54-18.74-183.83-59.23c-116.26-95.51-100.82-288.34-54.34-390.71 112-246.7 337.47-197.06 369.75-189.48Z"/>
    <path fill="#d0b34c"
          d="M4134.9 744.83c.95-29.96 19.7-79.7 79.05-79.7 52.76 0 42.45 27.72 38.98 34.9l-7.24-3.11c2.99-3.63 6.59-24.32-24.7-18.58-21.8 4-37.9 33.36-46.84 59.63-5.84 17.14-8.22 33.37 1.31 34.22 18.69 1.67 57.74-37.68 59.85-60.61.72-7.8 6.04-9.68 10.38-14.66l7.24 3.12c4.25.7 12.28 8.13 10.75 17.05-1.92 11.16-34.08 152.1 12.47 152.1s104.4-114.02 120.25-153.92c.71-1.58 2.94-10.37 8.15-10.02s6.86 2.34 4.3 11.84c-3.4 17.14-65.88 173.36-134.66 173.1-82.56-.32-51.14-138.75-51.24-138.8s-22.36 36.8-47.57 36.8-41.44-13.4-40.49-43.36Z"/>
    <path fill="#d0b34c"
          d="M4419.05 666.34c21.1 4.57 25.4 21.17 27.2 25.9s-24.6 119.92 15.02 129.07 90.1-43.97 106-93.38l1.57 23.74c-10.04 24.89-33.13 59.19-58.6 75.73s-65.07 24.6-91.2 1.09-29.81-54.63-25.02-100.56 3.92-66.16 25.03-61.6Zm4.05-74.44a30.93 30.93 0 1 1-31.01 30.93 30.97 30.97 0 0 1 31.01-30.93Z"/>
    <path fill="#d0b34c"
          d="M4639.73 188.9C4732.95-23.29 4810.38-13 4838.07 14.7s18.18 104.02 18.18 104.02l-30.14 63.46s29.1-159.56-18.78-157.38c-17 .77-40.51 20.66-68.95 64.18-50.08 76.63-119.07 257.75-128.18 498.13 122.44-139.49 170.59-264.35 170.59-264.35l-12.1 68.4s-67.8 130.62-159.48 226.26c-3.22 20.6-4.5 251.55 39.46 248.72s88.37-128.86 97.38-150.35l3.28 35.96c-3.8 12.6-21 52.04-45.6 92.22s-66.26 68.45-108.34 10.1S4564.27 661 4564.27 661s-7.78 7.74-11.6 7.33-10.9-6.34-8.63-11.87 20.22-20.09 20.22-20.09-.04-275.61 75.47-447.47Z"/>
    <path fill="#d0b34c"
          d="M4968.53 1.7c111.68-19.84 50.53 197.86 42.8 224.7-4.38 15.26-23.97 84.16-69.51 172.89-33.76 65.77-82.92 144.46-154.4 217.9l1.03-26.9c213.65-225.33 260.44-531.2 211.65-565.33-52.98-37.05-190.87 193.81-211.65 565.32l-1.04 26.9c-5.37 101.72 3.36 249.83 40.18 248.75 37-1.1 83.21-115 83.21-115l4.36 33.82s-40.77 102.94-91.49 102.94-87.1-76.43-81.04-227.16c0 0-6.68 8.2-11.59 8.16s-10.57-6.92-8.84-12.5 20.43-20.07 20.43-20.07c2.02-274.89 75.76-503.22 162.4-594 20.77-21.75 41.39-36.5 63.5-40.43Z"/>
    <path fill="#d0b34c"
          d="M4978.1 677.66c91.5-38.57 75 94.56 38.8 130.82l-18.59-11.08c41.72-42.21 34.69-116.13 2.76-110.8-.9 2.86 1.02 5.09-2.11 7.04-3.36 2.22-13.13 2.46-18.29 2.81-11.22 5.55-38.52 50.5 17.64 100.95l18.59 11.08c27.79 17.93 54.35 19.15 77.18 4.71 26.74-16.9 49.24-56.47 73.18-100.45l-6.34 46.55c-21.08 27.23-62.58 116.62-154.64 63.5l-18.7-16.35c-51.52-51.62-31.4-86.48-33.47-87.48-3.75-1.81-20.47 38.07-3.51 76.44 9.84 20.06 30.54 14.2 36.97 11.04l18.71 16.36c-114.9 79.23-139.29-135.9-28.19-145.14Z"/>
    <path fill="#d0b34c"
          d="M5180.68 660.68c4.31-11.94 16.96-7.33 26.88 3.82 5.7 6.37 9.88 16.8 10.47 24.65 1.41 18.95-39.68 102.02-19.33 101.5 11.26-.28 26.35-17.96 39.6-39.73a214.47 214.47 0 0 0 14.82-29.97c2.63-6.38 5.3-13.44 6.61-20.42 2.52-13.5 2.08-23.41 6.36-30.3 5.52-8.99 16.57-8.13 25.28 8.03 13.9 25.79 10.7 47.74 6.59 78.63s-27.53 102.93 6.3 97.5 92.22-47.01 130.1-132.77l13.26 3.86c-23.4 69.97-83.5 132.17-122.46 145.45-38.76 13.21-96.76 5.9-72.24-113.1-.05.24.31-.97.2-.95s-.13.19-.67 1.02c-60.8 93.93-91.74 37.54-91.74 37.54-17.1-33.18 12.61-114.39 19.97-134.76Z"/>
    <path fill="#d0b34c"
          d="M5441.06 689.94c36 .6 85.37 64.68 85.37 64.68s45.56-44.21 54.9-59.14c2.88-6.17.36-13.7 8.4-14.37s13.24 10.17-.84 32.3-49.73 58.19-49.73 58.19 15.17 19.66 33.4 41.6c17.56 21.12 36.22 44.41 53.76 40.74 35.67-7.84 62.73-49.73 80.93-85.45a547.36 547.36 0 0 0 21.67-48.02c4.12-10.95 4.25-16.36 9.15-17.52s9.4 1.3 4.82 16.87c-14.15 46.97-53.48 140.9-113.18 153.36s-118.19-74.04-118.19-74.04c-26.8 27.7-46.63 45.99-51.52 63.5s-23.67 11.27-13.19-15.87 52.34-64.36 52.34-64.36c-27.54-34.62-47.26-56.67-73.29-56.67-5.37 0-9.55-.07-13.13-3.22-5.54-4.68-4.45-16.41 4.38-24.34 4.34-3.95 12.83-8.43 23.95-8.24ZM2645.92 572.11c27.6-287.52 62.27-393.97 80.43-461.72 12.7-47.42 52.03-32.1 40 12.83-48.45 180.81-125.36 726.7-68.54 735.05s115.6-112.41 115.6-112.41l3.93 21.76s-47.63 129.73-111.4 129.73-72.68-82.75-73.3-87.12-157.22 132.92-182.23-10.9c-23.3-133.9 188.87-213.18 195.51-227.22l-2.74 40.52C2439 716.36 2484 803.58 2500.15 819.85c27.01 27.2 80.59-4.98 132.49-51.09 1.07-72.78 10.54-156.13 10.54-156.13Z"/>
    <path fill="#d0b34c"
          d="M2811.33 758.39c-.55-66.56 50.28-95.06 78.98-92.2 14.86 1.5 48.77 6.7 37.77 46.87-10.35 37.8-54.65 59.27-76.95 59.27v-9.56a63.44 63.44 0 0 0 32.2-17.09c19.79-19.46 29.05-59.93 16.2-67.85-10.47-6.46-30.78 9.75-41.26 37.34-4.48 11.77-6.68 28.08-7.15 47.6v9.56c-.21 21.66 5.26 64.06 60.7 59.32 42.13-3.6 95.95-51.83 114.85-106.32 1.38-3.97 4.38-11.16 8.87-5.75 1.63 1.62 1.27 6.14.81 8.65-7.13 38.93-54.06 105.33-113.82 118.44-66.28 14.54-110.65-21.71-111.2-88.28Z"/>
    <path fill="#d0b34c"
          d="M3021.22 634.03c15.9-17.98 48.59-23.66 65.33-12.28s14.54 26.79 8.04 27.29c-13.06 1-62.91-.43-65.46 34.94s71.58 41.63 103.98 78.68 7.01 88.7 7.01 88.7c19.42.77 49.72 5.14 83.56-36.42 17.93-22.03 30.6-47.64 39.43-68.48 6.98-16.46 10.75-29.53 16.15-29.72 11.49-.4 4.08 20.2-6.15 44.36s-19.15 45.7-53.29 83.6-88.62 24.12-88.62 24.12c-29.35 50-101.78 59.63-118.76 21.43-16.84-37.89 23.78-65.94 88.16-51.08l-3.05 15.32c-38.87-8.67-78.12.43-71.58 24.45 6.97 25.57 60.87 22.8 71.58-24.45l3.05-15.32c9.46-54.74-1.86-59.27-51.1-86.71s-59.98-82.63-28.28-118.43Z"/>
    <g fill="#d0b34c">
        <path d="M1520 144.92c-12.75-58.51 57.07-47.93 65.24 7.78 0 0 147.87 20.15 226.56 14.36s129.24-32.83 129.24-56.51 18.64-36.9 32.5-33.24 9.77 114.55-151.21 119.61-237.1-16.7-237.1-16.7l-11 314.16s66.17 7.45 94.3 1.6 34.04-17.78 42.02-21.54 24.77-3.49 21.72 5.75-31.3 29.78-66.16 36.5-91.88 0-91.88 0c11.62 261.74-43.54 357.74-175.07 389.03s-228.06-32.88-228.59-145.32c-.29-61.73 27.16-101.1 52.95-123.18 19.45-16.67 37.7-22.16 40.6-15.98 6.43 13.71-11.6 15.71-32.45 32.28s-49.41 55.65-40.41 119.6c14.85 105.55 126.74 131.06 207.9 102.9 142.13-49.32 125.59-249.46 125.59-368.83 0 0-65.12-18.34-103.83-20.99s-33.98 16.06-48.64 16.06.17-37.77 48.64-37.77 103.83 18.77 103.83 18.77L1520 170.73c-131.1-19.94-214.43-11.03-258.5 51.3S1250 354.7 1323.07 354.7s40.8-44.47 65.68-44.88 24.17 71.4-62.83 71.4-120.36-62.63-111.34-122.56 81.44-157 305.41-113.75Zm168.41 628.46c-.55-66.57 50.29-95.07 78.98-92.2 14.86 1.49 48.78 6.7 37.78 46.86-10.35 37.8-54.65 59.28-76.96 59.28v-9.57a63.44 63.44 0 0 0 32.2-17.08c19.8-19.46 29.06-59.94 16.2-67.85-10.47-6.46-30.77 9.75-41.26 37.33-4.47 11.77-6.68 28.08-7.14 47.6v9.57c-.21 21.66 5.25 64.05 60.7 59.32 55.95-4.79 102.73-73.45 111.75-96.63l-1.03 26.92s-33.73 70.18-100.01 84.73-110.65-21.72-111.2-88.28Zm83.64-167.03c18.93-15.24 42.22 10.88 14.15 23.94s-52.68 37.87-59.42 41.36-15.24-2.18-7.84-13.06 34.17-37 53.11-52.24Z"/>
        <path d="M1895.91 773.4c-.55-66.57 50.29-95.07 78.98-92.2 14.86 1.49 48.78 6.7 37.78 46.87-10.35 37.8-54.65 59.27-76.96 59.27v-9.57a63.44 63.44 0 0 0 32.2-17.08c19.8-19.46 29.06-59.94 16.2-67.85-10.47-6.46-30.77 9.75-41.26 37.33-4.47 11.77-6.68 28.08-7.14 47.6v9.57c-.21 21.66 5.25 64.06 60.7 59.32 42.12-3.6 95.94-51.84 114.84-106.32 1.38-3.97 4.39-11.16 8.88-5.76 1.62 1.63 1.26 6.15.8 8.65-7.13 38.93-54.06 105.33-113.82 118.45-66.28 14.54-110.64-21.72-111.2-88.28Z"/>
    </g>
    <g fill="#d0b34c">
        <path d="M10.5 79.58c20.58 6.45-24.61 35.14 22.76 71.7S261.3 161.5 261.3 161.5c.12-3.55 4.14-185.76 154.83-184L383.69 2.95c-26.44 8.85-67.57 45.12-73.1 152.41 86.83-18.38 160.76-56.7 160.76-106.97 0-55.6-61.62-55.5-87.66-45.44l32.45-25.44C548.84-19.07 558.7 144.59 311 180.58c0 0 4.62 317.52-89.4 474 0 0 34.06 14.87 80.11 36.16 43.25 20 97.9 46.27 147.14 59.23a258.4 258.4 0 0 0 63.6 8.38c28.87 0 49.2-5.31 66.33-11.46 27.65-9.93 40.5-25.08 47.85-38.15 5.12-9.1 4.83-15.92 14.22-15.79 27.4.4-9.28 93.66-128.4 94.5-93.37 2.27-203.82-59.23-307.37-106.15-63.01 95.88-189.8 113.57-228.05 35.22l36.06-11.07c4.1 9.26 12.44 20 27.99 25.66 30.15 11 87.06-1.84 128.18-67.45-42.17-21-95.8-31.26-127.47-20.55-26.08 8.81-39.7 35.68-28.7 62.34l-36.06 11.07c-34.37-76.24 65.05-144.22 202.7-78.23 84.18-169.29 80.8-449.7 80.8-449.7s-154.76 21.44-222.88-6.33S-10.08 73.14 10.5 79.59Z"
              style="mix-blend-mode:darken;isolation:isolate" transform="translate(29.81 126.12)"/>
        <path d="M570.78 684.8c.96-29.96 19.7-79.7 79.05-79.7 52.76 0 42.45 27.72 38.98 34.9l-7.24-3.1c3-3.64 6.6-24.33-24.7-18.59-21.8 4-37.9 33.36-46.83 59.64-5.84 17.13-8.23 33.36 1.3 34.21 18.7 1.68 57.74-37.68 59.86-60.61.72-7.8 6.03-9.67 10.37-14.65l7.24 3.11c4.25.7 12.28 8.13 10.75 17.06-1.91 11.15-34.07 152.1 12.48 152.1s104.4-114.03 120.25-153.93c.7-1.58 2.93-10.37 8.15-10.02s6.86 2.35 4.3 11.85c-3.4 17.13-65.89 173.35-134.66 173.09-82.56-.32-51.15-138.74-51.25-138.8s-22.35 36.8-47.57 36.8-41.44-13.4-40.48-43.36Z"/>
    </g>
</svg>
