<svg xmlns="http://www.w3.org/2000/svg" fill="none" viewBox="0 0 1377 280">
    <path fill="#8A5414"
          d="M219.3 13.3c2.3 0 4.3 1.5 4.3 4a4.2 4.2 0 0 1-4.3 4c-2.3 0-4.4-1.4-4.4-4 0-2.7 2.1-4 4.4-4Zm223.9 148.1c1 0 1.8.8 1.8 2.2 0 1.3-.8 2.2-1.8 2.2s-1.9-.8-1.9-2.2c0-1.5 1-2.2 2-2.2ZM542.9 69c.9 0 1.8.9 1.8 2.2 0 1.3-.9 2.2-1.8 2.2-1 0-1.9-.8-1.9-2.2 0-1.5 1-2.2 1.9-2.2Zm-111.6 69.4c2 0 3.7 1.6 3.7 4 0 2.3-1.7 4.1-3.7 4.1s-3.8-1.5-3.8-4.1c0-2.7 1.8-4 3.8-4ZM942.8 94c2 0 3.7 1.6 3.7 4s-1.7 4.1-3.7 4.1-3.8-1.5-3.8-4.1c0-2.7 1.8-4 3.8-4Zm-315-43c2 0 3.7 4 3.7 4s-1.7 4.1-3.7 4.1-3.8-1.5-3.8-4.1c0-2.7 1.8-4 3.8-4Zm137 18c2 0 3.7 4 3.7 4s-1.7 4.1-3.7 4.1-3.8-1.5-3.8-4.1c0-2.7 1.8-4 3.8-4ZM467 23a2.3 2.3 0 0 1 2.1 2.4c0 1.5-1 2.5-2.1 2.5-1.2 0-2.2-.9-2.2-2.5s1-2.4 2.2-2.4Zm40 96c1.4 0 2.8 1.3 2.8 3.3 0 2-1.3 3.4-2.9 3.4-1.5 0-2.9-1.3-2.9-3.4 0-2.2 1.5-3.3 3-3.3Zm-20.5 82.7c1 0 2.2 1 2.2 2.6 0 1.5-1 2.7-2.2 2.7-1.3 0-2.3-1-2.3-2.7 0-1.8 1.1-2.6 2.3-2.6ZM694.3 139c1.1 0 2.2 1 2.2 2.6s-1 2.7-2.2 2.7c-1.2 0-2.3-1-2.3-2.7 0-1.7 1.2-2.6 2.3-2.6Zm113 50c1.1 0 2.2 1 2.2 2.6s-1 2.7-2.2 2.7c-1.2 0-2.3-1-2.3-2.7 0-1.7 1.2-2.6 2.3-2.6Zm-601.6-68a3.8 3.8 0 0 1 3.7 4c0 2.3-1.7 4-3.7 4s-3.8-1.4-3.8-4a3.7 3.7 0 0 1 3.8-4Zm146.2-93.5c2 0 3.7 1.3 3.7 3.3a3.6 3.6 0 0 1-3.7 3.5c-2 0-3.8-1.2-3.8-3.5 0-2.2 1.8-3.3 3.8-3.3ZM176.8 45.8c2 0 3.7 1.4 3.7 3.4a3.6 3.6 0 0 1-3.7 3.5c-2 0-3.8-1.3-3.8-3.5 0-2.3 1.8-3.4 3.8-3.4ZM335 104.1a3.8 3.8 0 0 1 3.8 4c0 2.4-1.7 4.1-3.7 4.1s-3.8-1.5-3.8-4.1c0-2.7 2-4 3.8-4ZM619.8 202a3.8 3.8 0 0 1 3.7 4c0 2.4-1.7 4.1-3.7 4.1s-3.8-1.5-3.8-4.1c0-2.7 2-4 3.8-4Zm-276.3 7.7c2.2 0 4.4 1.5 4.4 4a4.2 4.2 0 0 1-4.4 4.1c-2.4 0-4.5-1.5-4.5-4.2 0-2.6 2.3-4 4.5-4ZM274.3 27.2a2 2 0 0 1 2 1.8 2 2 0 0 1-2 1.9c-1.2 0-2.1-.7-2.1-2 0-1.1 1-1.7 2-1.7Z"/>
    <path fill="#D0B34C"
          d="m358 60.8 8.1-8-2.7 9.5 8 4.5-9-.2-3.2 7-1.5-6.8-9 4.7 4.9-7.1-2.3-13 6.8 9.4Zm332.3 10.7 8-8.1-2.6 9.6 7.9 4.5-8.9-.2-3.3 7-1.5-6.8-8.9 4.7 4.8-7.1-2.2-13.1 6.7 9.5Zm-459-8.7-1.7-11.4 6 8 8.4-3.6-5.5 7 3.6 6.8-6.3-3-1.6 10-2.8-8.1-11.8-6 11.7.3Zm-16.5 143.7h9l4.9-7.8.9 8.1 5.4 11-9.6-6.7-5.5 6.6.3-8.6-5.4-2.6Zm230.4 18 6 4.1 3.1-4-.1 5.1 3.5 1.8H452l-3 4.6-.5-5-3.4-6.6Zm-154-90.2 5.9 4.1 3.2-4-.2 5.1 3.5 1.8H298l-3 4.6-.4-5-3.4-6.6ZM395 13l6 4.2 3.1-4-.1 5 3.5 1.8h-5.6l-3 4.6-.5-5L395 13Z"/>
    <path fill="#8A5414"
          d="M844 256.8c1.5 0 2.9 1.3 2.9 3.2 0 2-1.3 3.4-2.9 3.4-1.5 0-3-1.2-3-3.4s1.6-3.2 3-3.2ZM539.7 269a3.8 3.8 0 0 1 3.7 4c0 2.3-1.7 4-3.7 4s-3.8-1.4-3.8-4a3.7 3.7 0 0 1 3.8-4Zm-28.9-75.2c2 0 3.7 1.4 3.7 3.4a3.6 3.6 0 0 1-3.7 3.5c-2 0-3.8-3.5-3.8-3.5s1.8-3.4 3.8-3.4Zm228 79.2c2 0 3.7 1.3 3.7 3.4a3.6 3.6 0 0 1-3.7 3.5c-2 0-3.8-3.5-3.8-3.5s1.8-3.4 3.8-3.4Z"/>
    <path fill="#D0B34C"
          d="m614 256 6 4.2 3.1-4-.1 5 3.5 1.8h-5.6l-3 4.6-.5-5-3.4-6.6Zm-6-124 6 4.2 3.1-4-.1 5 3.5 1.8h-5.6l-3 4.6-.5-5-3.4-6.6ZM459 78l6 4.2 3.1-4-.1 5 3.5 1.8h-5.6l-3 4.6-.5-5L459 78Z"/>
    <path fill="#8A5414"
          d="M783.2 27.4c1 0 1.8.8 1.8 2.2 0 1.3-.8 2.2-1.8 2.2s-1.9-.8-1.9-2.2c0-1.5 1-2.2 2-2.2Zm-11.9-23c2 0 3.7 1.6 3.7 4 0 2.3-1.7 4.1-3.7 4.1s-3.8-1.5-3.8-4.1c0-2.7 1.8-4 3.8-4ZM780 127c1.4 0 2.8 1.3 2.8 3.3 0 2-1.3 3.4-2.9 3.4-1.5 0-2.9-1.3-2.9-3.4 0-2.2 1.5-3.3 3-3.3Z"/>
    <path fill="#D0B34C"
          d="M543 26.7h9l4.8-7.7 1 8.1 5.4 11-9.6-6.7-5.5 6.6.3-8.6-5.4-2.7ZM868 13l6 4.2 3.1-4-.1 5 3.5 1.8h-5.6l-3 4.6-.5-5L868 13ZM631.2.3l5.9 4.1 3.2-4-.2 5.1 3.5 1.8H638l-3 4.6-.4-5-3.4-6.6Z"/>
    <path fill="#8A5414"
          d="M904.4 35c2.3 0 4.3 1.6 4.3 4a4.2 4.2 0 0 1-4.3 4c-2.4 0-4.4-1.4-4.4-4 0-2.7 2.1-4 4.4-4Zm171.5 166c.9 0 1.8.9 1.8 2.2 0 1.3-.9 2.2-1.8 2.2-1 0-1.9-.8-1.9-2.2 0-1.5 1-2.2 1.9-2.2Zm41.4-21.6c2 0 3.7 1.6 3.7 4 0 2.3-1.7 4.1-3.7 4.1s-3.8-1.5-3.8-4.1c0-2.7 1.8-4 3.8-4ZM1153 64a2.3 2.3 0 0 1 2.2 2.4c0 1.5-1 2.5-2.2 2.5-1.2 0-2.2-.9-2.2-2.5s1-2.4 2.2-2.4Zm28 24.4c.5 0 1 .1 1.4.5.4.3.6.8.6 1.3a2 2 0 0 1-2 2c-1.2 0-2.1-.8-2.1-2s1-1.8 2-1.8Zm15 61.4c1.5 0 2.9 1.3 2.9 3.2 0 2-1.3 3.4-2.9 3.4-1.5 0-3-1.2-3-3.4s1.6-3.2 3-3.2ZM891.7 162a3.8 3.8 0 0 1 3.7 4c0 2.3-1.7 4-3.7 4s-3.8-1.4-3.8-4a3.7 3.7 0 0 1 3.8-4Zm146.2-93.5c2 0 3.7 1.3 3.7 3.3 0 .5 0 1-.3 1.4a3.6 3.6 0 0 1-2 2c-.5 0-1 .2-1.4.1-2 0-3.8-1.2-3.8-3.5 0-2.2 1.8-3.3 3.8-3.3Zm-16.9 76.6a3.9 3.9 0 0 1 3.5 2.5l.3 1.5c0 2.4-1.7 4.1-3.7 4.1s-3.8-1.5-3.8-4.1c0-2.7 2-4 3.8-4Z"/>
    <path fill="#D0B34C"
          d="m1125.5 109.6 2 8.4 11.1-5.7-6 8.9 2.8 16.5-8.4-12-10.5 10.7 3.7-12.5-10-5.9 11.2.5 4-9Zm-80.5-7.8 8.1-8-2.7 9.5 8 4.5-9-.2-3.3 7-1.4-6.8-9 4.7 4.8-7.1-2.2-13 6.8 9.4Zm-110.8 49.5-1.6-11.3 6 8 8.4-3.7-5.5 7 3.6 6.8-6.3-2.9-1.6 10-2.9-8.1-11.8-6.1 11.7.3Zm-217 51-1.6-11.3 6 8 8.4-3.7-5.5 7 3.6 6.8-6.3-2.9-1.6 10-2.9-8.1-11.8-6.1 11.7.3ZM905 225.7h9l4.8-7.7 1 8.1 5.4 11-9.6-6.7-5.5 6.6.3-8.6-5.4-2.7Zm76-21.7 6 4.2 3.1-4-.1 5 3.5 1.8h-5.6l-3 4.6-.5-5-3.4-6.6ZM961 35l6 4.2 3.1-4-.1 5 3.5 1.8h-5.6l-3 4.6-.5-5L961 35Z"/>
    <path fill="#8A5414"
          d="M111.2 98.4c1 0 1.8.8 1.8 2.2 0 1.3-.8 2.2-1.8 2.2s-1.9-.8-1.9-2.2c0-1.5 1-2.2 2-2.2Zm-11.9-23c2 0 3.7 1.6 3.7 4 0 2.3-1.7 4.1-3.7 4.1s-3.8-1.5-3.8-4.1c0-2.7 1.8-4 3.8-4Zm55.2 63.3c1 0 2.2 1 2.2 2.6 0 1.5-1 2.7-2.2 2.7-1.3 0-2.3-1-2.3-2.7 0-1.8 1.1-2.6 2.3-2.6ZM3.8 9a3.8 3.8 0 0 1 3.6 4c0 2.3-1.6 4-3.6 4S0 15.5 0 13a3.7 3.7 0 0 1 3.8-4Zm25 38a3.8 3.8 0 0 1 3.7 4c0 2.4-1.7 4.1-3.7 4.1S25 53.6 25 51c0-2.7 2-4 3.8-4Z"/>
    <path fill="#D0B34C"
          d="m106.5 5.6 2 8.4 11.1-5.7-6 8.9 2.8 16.5-8.4-12-10.5 10.7 3.7-12.5-10-5.9 11.2.5 4-9Zm6.7 155.9 6 4.1 3.1-4-.1 5.1 3.5 1.8H120l-3 4.6-.5-5-3.4-6.6ZM35 96l6 4.2 3.1-4-.1 5 3.5 1.8h-5.6l-3 4.6-.5-5L35 96Z"/>
    <path fill="#8A5414"
          d="M1303.9 54c.9 0 1.8.9 1.8 2.2 0 1.3-.9 2.2-1.8 2.2-1 0-1.9-.8-1.9-2.2 0-1.5 1-2.2 1.9-2.2Zm68.9-46c2 0 3.7 1.6 3.7 4s-1.7 4.1-3.7 4.1-3.8-1.5-3.8-4.1c0-2.7 1.8-4 3.8-4Zm-84.5 133.3c1.5 0 3 1.3 3 3.3 0 2-1.4 3.3-3 3.3-1.5 0-2.9-1.2-2.9-3.3 0-2.2 1.5-3.3 3-3.3Zm-71-112.3c1.1 0 2.2 1 2.2 2.6s-1 2.7-2.2 2.7c-1.2 0-2.3-1-2.3-2.7 0-1.7 1.2-2.6 2.3-2.6Zm131.2 54.7c2.2 0 4.4 1.5 4.4 4a4.2 4.2 0 0 1-1.3 3 4.3 4.3 0 0 1-3 1.1c-2.5 0-4.6-1.5-4.6-4.2 0-2.6 2.3-4 4.5-4Z"/>
    <path fill="#D0B34C"
          d="M1221.8 80.5h9l4.9-7.8.8 8.1 5.5 11-9.6-6.7-5.5 6.6.3-8.6-5.4-2.6ZM835 85.7h9l4.8-7.7 1 8.1 5.4 11-9.6-6.7-5.5 6.6.3-8.6-5.4-2.7ZM1106 20l6 4.2 3.1-4-.1 5 3.5 1.8h-5.7l-2.9 4.6-.5-5-3.4-6.6Zm192.2-11.7 5.9 4.1 3.2-4-.2 5.1 3.5 1.8h-5.6l-3 4.6-.4-5-3.4-6.6Z"/>
    <path fill="#8A5414"
          d="M1002.4 16.3c1.4 0 2.8 1.3 2.8 3.3 0 2-1.3 3.3-2.9 3.3-1.5 0-2.9-1.2-2.9-3.4 0-2.1 1.5-3.2 3-3.2Z"/>
</svg>
