<svg xmlns="http://www.w3.org/2000/svg" viewBox="0 0 619.52 869.92">
    <defs>
        <linearGradient id="a" x2=".92" y1=".99" y2=".12">
            <stop offset="0" stop-color="#fff"/>
            <stop offset=".61" stop-color="#d8bf69"/>
            <stop offset="1" stop-color="#d0b34c"/>
        </linearGradient>
    </defs>
    <path fill="url(#a)"
          d="M126.03 5.33c5.1-.25 21.05-5.07 19.35 7.26-.54 3.95-4.48 9.15-7.3 13.13-7.97 11.26-15.22 18.24-18.66 29.12a310.53 310.53 0 0 0-22.83 53.32c-8.64 26.36-15.21 46.16-16.65 49.8-7.55 19.06-34.89 72.41-43.07 102.94 13.99 12.6 11.25 27.78 12.65 47.23 2.2 30.54 32.38 55.01 33.47 82.73 1.08 27.65-25.67 52.64-25.46 89.13.06 9.31 4.13 17.16 8.03 22.45 3.77 5.1 7.26 8.18 3.74 11.13-2.13 1.78-11.5-3.53-17.24-14.87-2.73-5.4-4.33-12.77-3.92-21.26.64-13.5 6.27-29.27 12.5-44.26 4.96-11.94 10.55-23.14 12.22-34.28 1.64-10.92-2.75-22.61-9.6-35.1-8.13-14.8-19.66-30.69-24.32-47.08-1.73-6.48.38-19.75-4.15-33.21-3.3-9.8-11.22-17.92-23.46-32.56-5.79 36.47 11.63 67.12 18.42 91.12 18.38-3.3 12 20.29 12.84 29.7 11.85 17.68 5.21 41.78-1.15 61.4-3.05 9.44-6.52 17.6-6.65 23.84-.17 9.01 5.35 19.82 11.28 33.81s1.69 32.14-5.15 28.09c-3.64-2.43 2.35-6.78-1.7-20.21A78.23 78.23 0 0 0 32 482.82c-3.65-6.5-7.63-13.6-7.85-24.26-.5-20.07 18.16-45.54 11.11-68.64-2.05 7.83-9.25 19.97-16.48 35.34-6.69 14.22-13.46 31.44-13.69 49.54-.61 48.8 73.71 79.76 68.03 120.38-4.98 35.66-41.48 34.56-64 48.67C-4.3 652.26-5.7 668.3-20.8 677.58c-15.92 87.77-14.06 152.87-14.06 152.87l-9.45 2.74c0-35.89 4.48-105.55 11.65-159.4-10.56 4.53-19.69 6.67-28.33 8.62-9.86 67.83-5.52 114.7-3.46 153.47l-9.51-5.32a789.61 789.61 0 0 1 1.28-146.23c-15.6 1.25-37.59 4.98-58.78 10.42a285.18 285.18 0 0 0-33.2 10.31c-4.68 1.93-10.04 5.24-14.23 7.66-14.92 8.58-24.88 6.08-27.63-1.78-2.14-6.1.8-16.21 11.79-25.88 6.5-5.71 16.32-10.66 27.34-19.34 3.01-2.36 6.2-5.46 9.65-8.8 13.23-12.46 31.72-9.93 36.7-5.16 19.1-9.33 38.11-19.16 44.78-23.72-8.98-6.46-17.9-13.54-18.04-18.18-.01-5.17 5.53-11.2 4.48-28.8-.64-10.79-4.49-26.05-12.93-50.76-4.52 4.04-11.63 15.85-15.41 31.08-4.36 17.53-4.16 38.78-20.64 36.05-20.52 24.08-27.9 27.74-31.46 25.37-7.12-5.7 6.84-35.22 18.5-47.6 18.57-44.4 45.83-109.54 61.92-166.63-33.1-.42-21.5 40.6-24.04 52.75-2.64 12.1-15.14 40.35-15.12 45.47-16.27 9.5 1.62-31.09 3.84-41.62 1.51-20.6-2.19-29.92 1.51-40.34-17.79 10.33-17.63 25.36-15.96 41.38 1.2 11.58 4.66 21.49-2 35.13-12.98 26.54-37.13 43.35-46.74 74.66-7.06 1.9-5.93-10.33.76-24.88 4.46-9.72 14.04-23.3 18.35-28.4a100.22 100.22 0 0 0 15.1-23.02c4.88-10.63 6.32-21.71 2.21-34.97-25.51 76.84-25.3 42.9-46.09 42.56-4.8-.08-11.37 1.7-19.93 8.32a78.88 78.88 0 0 1-8.17 14.1c-14.18 19.7-21.86-5.6-43.92 5.31-29.26 14.48-45 44.86-73.51 54.04-39.44 11.94-87.39-14.76-75.85-44.43 15.75-14.6 32.05-20.52 63.74-40.34 6.9-4.32 13.62-10.02 21.33-16.33 26.95-21.12 57.82-51.32 98.03-64.85-96.18-4.6-122.93-79.16-128.97-84.47a31.07 31.07 0 0 0-9.52-5.34c-4.84-1.8-10.63-3.1-15.5-5.39-5.59-2.62-7.54-6.4-7.22-9.67.54-5.46 15.95-28.4 4.97-52-2.17-4.68-5.68-8.1-9.62-11.22-5.96-4.72-13.18-8.05-20.43-10.67-9.62-3.48-18.74-5.89-20.93-12.84-4.25-13.45 39.3-41.65 12.21-81.37-5.94-22.18-61.97-63.1-35.76-65.26 6.43-.53 10.23 4.6 22.22 10.95 86.57 46.43 120.05 77.54 131.78 88.67-1.9-7.1-7.16-13.24-12.14-18.93-3.5-3.57-7.1-5.9-7.09-8.42.1-9.68 7.36-4.71 8.57-32.92s-27.75-68.32-27.75-80.77c0-2.99 1.21-11.2 43.3 15.17 30.95 16.02 50.93 36.48 67.6 59.55 24.03 33.25 40.33 79.07 57.09 125.2 11.41 31.42 23.36 64.46 43.48 97.95-4.88-44.9 15.13-55.17 20.36-78.82 3.6-16.32 1.57-19.81.57-41.8s31.01-39.84 35.86-57.92c1.64-6.13 9.95-13.09 20.8-15.7 13.99-3.36 31.8-.03 31.8 18.9 8.3 5.46 20.66 4.75 28.87 9.29 8.85 4.89 1.41 10.69 9.45 14.68 6.59 3.28 8.08 5.55 9.03 7.16a1162.06 1162.06 0 0 0 43.64-85.57c6.5-14.15 12.52-29.12 18.8-43.94 11.1-25.3 13.17-31.66 15.28-42.66 1.05-5.52 1.61-9.13 2.73-14.53 2.33-10.75 5.37-21.83 9.6-30.07 6.3-12.3 10.25-15.02 17.7-14.28 6.52.64 8.48 7.72 1.56 39.26Z"
          transform="translate(474.02 34.05)"/>
    <path fill="#fff"
          d="M145.47 99.1c14.42 9.95 45.1 35.58 67.8 95.2s29.52 102.26 63.5 161.46c-25.56-19.6-66.45-85.3-98.42-117.82-6.81-22.53-9.47-38.77-24.74-50.96 10.48-20.73 13.63-38.43-8.14-87.88Z"
    />
    <path fill="#fff"
          d="M45.45 163.73c20.68 15.87 33.66 24.84 65.88 64.8 12.11 15.02 26.8 35.47 46.78 61.98 71.87 95.35 116.17 127.62 181.14 139.11-49.53 11.56-117.22 24.65-163.08-.14a108.65 108.65 0 0 1-34.77-29.99c-5.96-7.85-10.3-16-15.68-23.45-8.8-12.23-19.4-22.2-38.8-25.61 19.13-38.34 11.78-70.95-46.45-89.8 6.7-9.4 40.56-47.8 4.98-96.9Z"
    />
    <path fill="#fff"
          d="M63.73 582.94c64.94-7.31 129.42-48.05 185.23-83.34 36.24-22.92 68.93-43.3 95.3-51.36-30.07 25.98-44.52 79.2-47.81 89.17-12.5-7.21-45.05-10.43-59.14 23.12-16.76-8.09-33.44-2.83-47.88 6.79-24.24 16.13-45.05 45.9-72.48 49.44-24.48 2.83-54.76-16.05-53.22-33.82Z"
    />
    <path fill="#fff"
          d="M342.43 691.04c8.92-.41 9.8 8.65 14.72 8.8s2.55-5.52 2.55-5.52l51.1-24.72c7.57 6.28 29.36 6.25 27.36 25.73-28.89 14.57-82.94 15.48-114.53 29.99-11.22-2.83-46.25 28.28-48.71 16.88s50.35-50.36 67.51-51.16Z"
    />
    <path fill="#fff"
          d="M569.31 85.54c10.04-16.52 8.91-66.52 26.96-77.61-8.85 41.89-1.96 42.18 14.78 36.79-24.68 31.87-45.75 86.07-60.99 134.96-6.52 20.93-14.17 33.98-20.98 48.8-8.77 18.37-17.64 36.38-26 61.68-31.65-26.18 3.29-36.67-7.55-54.57 32.67-52.84 51.79-94.62 73.78-150.05Z"
    />
    <path fill="#fff"
          d="M418.55 285.42s9.48.46 18.84.45c9.5 82.56-39.24 45.43-44.8 132.1l-9.78-3.34c6.09-14.06.04-38.61 7.5-53.55 3.5-7 10.75-13.66 15.66-26.45 5.34-14.24 7.83-34.28 12.58-49.21Z"
    />
    <path fill="#fff"
          d="M342.89 387.6c4.38-20.17-1.46-34.67 1.08-46.6 2.72-11.25 8.9-19.18 14.3-27.98 3.17-5.14 6.22-10.7 7.37-17.96.75-4.72.2-9.05 0-13.38-.5-11.27-2.57-21.18 2.84-39.32 1.49-5.02 4.66-9.93 9.16-14.74 2.09-2.23 4.68-4.09 7.23-6.67a73.63 73.63 0 0 0 8.63-12.2c6.46-11.3 18.45-30.25 36.7-18.4-18.25 2.65-20.96 19.78-30.05 30.6s-19.77 12.83-21.41 33.54a125.18 125.18 0 0 0 .34 23.23c1.23 10.56 3.38 19.15.57 31.88-5.01 20.25-17.51 33.75-22.4 49.71s-2.54 28.2-.2 28.28c4.73 0-1.11-9.85 6.42-28.28s16.57-22.13 25.35-43.65-4.18-46.14-.75-66.78c2.6-15.6 15.54-16.13 22.9-31.54 7.1-13.76 13.99-19.72 17.89-19.72.16 5.14-.42 10.03-.44 14.56-.05 9.73-.03 17.23-.81 23.27-1.9 14.67-6.23 17.85-9.33 22.74 0 0-47.37-10.15-6.02 25.1-1.01 1.22-4.97 4.22-7.25 13.16-3.1 11.59-1.82 18.34-5.84 31.2-1.8 5.8-3.68 8.08-6.02 11.68-2.41 3.72-5.4 8.94-8.76 19.98-6.1 20.07-3.92 32.84-7.66 51.73-8.67-1.19-26.64-15.97-33.84-23.45Z"
    />
    <path fill="#fff"
          d="M437.52 204.89c11.88 3.32 18.24 8.13 29.36 9a3.86 3.86 0 0 1 2.04 1.24c.48.66.76.92.91 2.91a13.48 13.48 0 0 0 .5 4.15c.52 1.5 2 3.25 4.64 5.11 2.14 1.87 5.34 4.48 7.54 6.52 4.16 3.85 6.38 7.04 6.35 10.47-.07 9.75-14.6 15.25-13.9 53.79 1.52 38.44 17.23 69.87 19.76 81.29-3.76.2-4.8 2.15-8.45 2.98-6.4-2.7-11.13.5-14.51 1.55-13.69-10.02-20.67 5.09-20.67 5.09s-8.6-9.28-11.3-3.77c-.5 1-.85 15.94-6.07 24.36-1.9 3.08-16.8 32.5-32.26 69.19-9 21.36-16 40.24-24.66 57.81-16.3 33.08-32.33 56.25-33.92 88.48-17.24-4.65-23.65 23.71-34.31 25.15 31.21-62.5 54.07-121.36 66-151.26 7.77-19.5 7.93-15.44 12.75-30.51 12.02-37.68 15.27-73.13 26.73-103.1 3.93-5.78 48.47-29.5 27.04-84.2-16-.7-30.7-2.84-35.8-16.72 9.6 1.19 37.59 9.6 32.23-59.53Z"
    />
</svg>
