<svg xmlns="http://www.w3.org/2000/svg" viewBox="0 0 1856.42 1570.93">
    <defs>
        <linearGradient id="a" x1=".78" x2="1.55" y1="-.15" y2=".5">
            <stop offset="0" stop-color="#d0b34c"/>
            <stop offset="1" stop-color="#fff"/>
        </linearGradient>
        <linearGradient id="b" x2=".92" y1=".99" y2=".12">
            <stop offset="0" stop-color="#fff"/>
            <stop offset=".61" stop-color="#d8bf69"/>
            <stop offset="1" stop-color="#d0b34c"/>
        </linearGradient>
        <linearGradient id="c" x1=".46" x2=".56" y1=".07" y2=".89">
            <stop offset="0" stop-color="#fff"/>
            <stop offset="1" stop-color="#d0b34c"/>
        </linearGradient>
    </defs>
    <g>
        <g fill="url(#a)" transform="translate(791.2 462.2)">
            <path d="M184.04 11.93 153.2 84.51l-29.9-6.88c.22-1.32 16.26-19.56 18.87-22.05 11.62-11.03 23.9-24.23 27.87-28.94a155.99 155.99 0 0 1 14-14.7Z"/>
            <path d="M204.11.04c5.64-.89 14.9 13.89 26.13 28.87 13.37 17.84 28.1 37.5 29.96 40.43 2.88 4.82-9.78 19.35-9.78 19.35l-65.5-48.62s13.3-28.5 19.2-40.03Z"/>
            <path d="m183.06 46.51 64.43 48.23-6.18 9.08S183.14 60 179.9 57.59s3.16-11.08 3.16-11.08Z"/>
            <path d="m175.29 62.2 62.02 48.27-10.61 18.37-42.93-.3c-1.36-.05-3.95-5.6-7.58-12.47-5.16-9.78-11.69-22.65-12.32-24.7C162.83 88 175.3 62.2 175.3 62.2Z"/>
            <path d="M270.63 83.17s7.45 9.07 7.18 11.55-5.77 47.2-5.77 47.2l-30.34 17.1-6.44 19.05s-.73-36.86-.73-39.41 36.1-55.5 36.1-55.5Z"/>
            <path d="m184.84 138.62 37.17.32-2.3 97.41-38.54-25.9s2.33-69.04 3.67-71.83Z"/>
            <path d="M180.7 217.9c3.08 1.2 37.8 24.9 37.8 24.9l-.82 12.95a260.71 260.71 0 0 1-36.97-25.86Z"/>
            <path d="M118.95 89.7s31.15 3.43 34.1 8.34 22.07 37.6 22.13 39.16-4.77 101.98-4.77 101.98c-.73-1.16-2.9-3.08-5.44-6.35-2.48-3.2-4.91-7.59-8.43-12.04-7.97-10.08-17.72-20.87-19.14-21.74-2.5-1.53-16.74-5.94-16.74-5.94Z"/>
            <path d="M140.17 216.18s20.52 24.89 24.56 33.15c.65 6.37.54 17 .54 17-1.32-.2-5.64-3.5-10.58-7.13-5.25-3.85-11.17-8.25-11.76-9.87-1.08-2.97-2.76-33.15-2.76-33.15Z"/>
            <path d="m110.6 202.53 18.52 3.51s5.2 39.23 3.86 42.1-13.26 12.57-13.26 12.57-24.84-5.75-27.02-9.12 11.72-36 17.9-49.06Z"/>
            <path d="m185.42 381.2 11.52 3.39s-3.41 31.21-4.74 34.1-19.65-23.27-19.65-23.27Z"/>
            <path d="m150.09 400.28 15.6-2.64s18.64 23.54 17.31 26.41-23.78 16.2-23.78 16.2Z"/>
            <path d="M253.82 162.75c7.61-4.7 23.56-12.13 36.84-18.04 10.17-4.53 18.92-8.62 19.92-7.8 2.25 1.82-5.14 41.1-6.89 50.47 0 0-21.99 7.39-26.27 5.84s-23.6-30.47-23.6-30.47Z"/>
            <path d="M319.3 144.92c3.69 5.47 11.9 21.23 17.96 33.12 3.26 6.4 6.22 11.66 6.32 12.84.28 4-17.62 9.4-20.14 11.16 0 0-9.9-9.05-9.76-11.5.06-1.09 1.51-9.4 2.81-19.3 1.55-11.83 1.9-17.9 2.8-26.32Z"/>
            <path d="M75.1 131.21s34.86 52 35.18 60.46c-8.4-.92-10.88 9.38-12.5 12.7L74.19 170.3Z"/>
            <path d="M26.62 108.27s9.4 3.53 19.35 7.09c8.48 3.03 17.02 5.42 18.55 6.94 1.77 1.52.85 9.95.59 19.4-.3 11.08-.72 23.6-1.95 25.15-1.06 1.34-5.84 5.84-13.72 11s-13.7 10.6-16.43 10.6c-5.26 0-26.76-14.74-26.76-14.74s4.82-19.3 9.91-35.67 6.87-22.33 10.46-29.77Z"/>
            <path d="M10.4 188.41s15.06 7.62 18.18 10.62S51 250.83 51 250.83l-7.62-1.18Z"/>
            <path d="M38.77 198.75 68.7 175.9c3.26 4.23 7.79 12.61 15.09 23.95 5.24 7.96 10.63 14.97 10.71 15.6.2 1.43-6.58 16.67-6.58 16.67L47.66 219.2s-5.31-11.5-8.9-20.44Z"/>
            <path d="m50.87 225.88 35.32 11.51s-4.4 15-4.32 17.2c.04 1.03 1.48 8 2.63 15.75 1.2 8.06 2.11 16.94 2.11 16.94a223.32 223.32 0 0 1-20.4-28.8 250.04 250.04 0 0 1-15.34-32.6Z"/>
            <path d="m247.02 171.15 23.59 29.05s-33.12 151.73-50.35 222.59l-20.18-7.49s30.79-174.1 46.94-244.15Z"/>
            <path d="M279.05 204.35c1.24-2.2 19.54-6.26 26.24-8.58l12.8 15.05c.55 4.1-12.4 52.36-12.4 52.36s-30.75-32.3-31.66-33.94 3.78-22.67 5.02-24.89Z"/>
            <path d="M273.04 236.69s11.03 11.96 20.15 21.91c5.28 5.78 10.14 10.87 10.38 11.8.63 2.38-2.9 12.86-2.9 12.86l-30.83-31.3Z"/>
            <path d="M268.19 259.44s23.54 21.26 30.56 31.57c-.55 3.28-11.95 46.62-11.95 46.62l-30.56-26.64c2.28-11.4 11.95-51.55 11.95-51.55Z"/>
            <path d="M254.42 318.01s6.37 5.3 13.5 11.4c6.95 5.95 14.9 12.84 16.63 15.65 0 0 .02 1.23-2.39 11.16s-9.3 35.55-9.3 35.55l-34.94 2.32Z"/>
            <path d="M327.65 211.57c1.28-1.58 15.82-7.06 15.82-7.06s-8.19 26.42-17 59.14c-12.75 47.42-33.95 128.5-35.7 130.47-2.93 3.3-11.45 4.4-11.45 4.4s47.04-185.38 48.33-186.95Z"/>
            <path d="M334.58 271.8c6.04-4.08 28.43-12 36.85-15.37l5.6 16.77c-3.7 3.37-23.22 16.84-25.67 16.91s-17.76-11.23-17.76-11.23Z"/>
            <path d="M331.5 287.44s2.8 2.67 6.14 5.61c2.84 2.5 5.97 4.5 6.5 6.32.4 1.45-5.66 17.4-11.17 34.67-5.46 17.15-16.54 59.81-16.54 59.81l-11.28-.41Z"/>
            <path d="M352.91 305.62c2.24-7.23 22.66-17.75 28.28-21.75 0 0 3.79 13.4 3.3 16.28s-20.28 38.17-20.28 38.17l-14.6-23.15a97.63 97.63 0 0 0 3.3-9.55Z"/>
            <path d="M347.24 322.8c2.64 4.18 5.34 8.98 8.15 12.95 2.42 3.41 4.63 6.3 4.5 7.9-.28 3.2-8.95 18.25-14.7 26.74l-12.91-.42Z"/>
            <path d="M330.99 374.8h11.63l-11.63 19.05-8.47 2.26Z"/>
            <path d="M180.95 240.1s29.43 20.54 35.96 23.2c0 0-4.87 46.2-19.1 108.22l-7.35 1.07c-9.73-58.83-9.9-69.42-9.9-69.42Z"/>
            <path d="m138.48 257.71 31.38 22.54s2.92 28.55 3.83 43.33c-13.23-4.01-32.2-13.77-43.06-16.51-6.57-27.64-7.02-37.5-7.02-37.5Z"/>
            <path d="M132.67 315.24s27.1 10.69 42.43 16.25l1.56 18.3s-9.65-3.52-20.02-7.18c-9.35-3.3-19.4-6.75-20.46-8.15-2.16-2.87-3.51-19.22-3.51-19.22Z"/>
            <path d="m137.26 341.27 40.15 15.51c1.96 8.84 1.82 14.46 3.57 20.21l-14.1 12.91-18.6 1.75Z"/>
            <path d="M90.55 261.02c9.07 4 22.65 7.14 25.03 10.56.86 1.45 3.05 10.9 5.26 24.75 4.44 27.8 30.57 154.4 34.9 174.1 0 0-20.27-2.06-26.72-6.13-5.99-28.23-27.04-134.44-30.36-153.62-1.61-9.33-2.76-20.87-4.03-29.06-1.3-8.38-2.7-13.26-4.08-20.6Z"/>
            <path d="M59.72 265.9c1.96.5 8.01 10.85 15.44 21.4 6.79 9.65 14.1 19.16 14.1 19.16s1.58 11.76 2.85 18.16c-2.66-.7-31.27-44.4-31.97-47s-.7-7.79-.42-11.72Z"/>
            <path d="m18.29 257.9 30.7 5.14-.53 14.95-11.99.27c-5.71-5.72-18.18-20.35-18.18-20.35Z"/>
            <path d="M7.3 259.94s22.92 24.85 22.88 26.31-7.69 17.92-7.69 17.92H0Z"/>
            <path d="M38.04 288.22c1.82-2.1 9.75-3.72 13.12-2.95s29.99 41.53 29.99 41.53l-42.34-1.88s-9.2-12.49-9.26-15.16 6.66-19.43 8.49-21.54Z"/>
            <path d="M42.32 330.42s30.09 2.1 42.88 2.6l7.98 6.78s7.23 31.07 9.25 43.17c-6.3 1-17.23 5.11-17.23 5.11Z"/>
            <path d="M.69 312.99s18.88-.65 21.43.25c1.04.37 9.73 13.22 20.28 28.6 14.77 21.53 38.43 51.32 38.43 51.32S69 389.9 66.75 389.07c-1.13-.42-18.14-19.44-34.63-38.66C16.15 331.8.69 312.99.69 312.99Z"/>
            <path d="M88.51 392.4a111.35 111.35 0 0 1 15.23-3.86l5.57 24.31-5.57-2.14Z"/>
        </g>
        <path fill="#fff"
              d="m410.67 778.6 31.75-7.63c-6.61 76.16-7.21 118.65-12.42 160.4l-20.58 2.75c-7.49-49.51-8.69-69.35 1.25-155.53Z"
        />
        <path fill="url(#b)"
              d="M126.03 5.33c5.1-.25 21.05-5.07 19.35 7.26-.54 3.95-4.48 9.15-7.3 13.13-7.97 11.26-15.22 18.24-18.66 29.12a310.53 310.53 0 0 0-22.83 53.32c-8.64 26.36-15.21 46.16-16.65 49.8-7.55 19.06-34.89 72.41-43.07 102.94 13.99 12.6 11.25 27.78 12.65 47.23 2.2 30.54 32.38 55.01 33.47 82.73 1.08 27.65-25.67 52.64-25.46 89.13.06 9.31 4.13 17.16 8.03 22.45 3.77 5.1 7.26 8.18 3.74 11.13-2.13 1.78-11.5-3.53-17.24-14.87-2.73-5.4-4.33-12.77-3.92-21.26.64-13.5 6.27-29.27 12.5-44.26 4.96-11.94 10.55-23.14 12.22-34.28 1.64-10.92-2.75-22.61-9.6-35.1-8.13-14.8-19.66-30.69-24.32-47.08-1.73-6.48.38-19.75-4.15-33.21-3.3-9.8-11.22-17.92-23.46-32.56-5.79 36.47 11.63 67.12 18.42 91.12 18.38-3.3 12 20.29 12.84 29.7 11.85 17.68 5.21 41.78-1.15 61.4-3.05 9.44-6.52 17.6-6.65 23.84-.17 9.01 5.35 19.82 11.28 33.81s1.69 32.14-5.15 28.09c-3.64-2.43 2.35-6.78-1.7-20.21A78.23 78.23 0 0 0 32 482.82c-3.65-6.5-7.63-13.6-7.85-24.26-.5-20.07 18.16-45.54 11.11-68.64-2.05 7.83-9.25 19.97-16.48 35.34-6.69 14.22-13.46 31.44-13.69 49.54-.61 48.8 73.71 79.76 68.03 120.38-4.98 35.66-41.48 34.56-64 48.67C-4.3 652.26-5.7 668.3-20.8 677.58c-15.92 87.77-14.06 152.87-14.06 152.87l-9.45 2.74c0-35.89 4.48-105.55 11.65-159.4-10.56 4.53-19.69 6.67-28.33 8.62-9.86 67.83-5.52 114.7-3.46 153.47l-9.51-5.32a789.61 789.61 0 0 1 1.28-146.23c-15.6 1.25-37.59 4.98-58.78 10.42a285.18 285.18 0 0 0-33.2 10.31c-4.68 1.93-10.04 5.24-14.23 7.66-14.92 8.58-24.88 6.08-27.63-1.78-2.14-6.1.8-16.21 11.79-25.88 6.5-5.71 16.32-10.66 27.34-19.34 3.01-2.36 6.2-5.46 9.65-8.8 13.23-12.46 31.72-9.93 36.7-5.16 19.1-9.33 38.11-19.16 44.78-23.72-8.98-6.46-17.9-13.54-18.04-18.18-.01-5.17 5.53-11.2 4.48-28.8-.64-10.79-4.49-26.05-12.93-50.76-4.52 4.04-11.63 15.85-15.41 31.08-4.36 17.53-4.16 38.78-20.64 36.05-20.52 24.08-27.9 27.74-31.46 25.37-7.12-5.7 6.84-35.22 18.5-47.6 18.57-44.4 45.83-109.54 61.92-166.63-33.1-.42-21.5 40.6-24.04 52.75-2.64 12.1-15.14 40.35-15.12 45.47-16.27 9.5 1.62-31.09 3.84-41.62 1.51-20.6-2.19-29.92 1.51-40.34-17.79 10.33-17.63 25.36-15.96 41.38 1.2 11.58 4.66 21.49-2 35.13-12.98 26.54-37.13 43.35-46.74 74.66-7.06 1.9-5.93-10.33.76-24.88 4.46-9.72 14.04-23.3 18.35-28.4a100.22 100.22 0 0 0 15.1-23.02c4.88-10.63 6.32-21.71 2.21-34.97-25.51 76.84-25.3 42.9-46.09 42.56-4.8-.08-11.37 1.7-19.93 8.32a78.88 78.88 0 0 1-8.17 14.1c-14.18 19.7-21.86-5.6-43.92 5.31-29.26 14.48-45 44.86-73.51 54.04-39.44 11.94-87.39-14.76-75.85-44.43 15.75-14.6 32.05-20.52 63.74-40.34 6.9-4.32 13.62-10.02 21.33-16.33 26.95-21.12 57.82-51.32 98.03-64.85-96.18-4.6-122.93-79.16-128.97-84.47a31.07 31.07 0 0 0-9.52-5.34c-4.84-1.8-10.63-3.1-15.5-5.39-5.59-2.62-7.54-6.4-7.22-9.67.54-5.46 15.95-28.4 4.97-52-2.17-4.68-5.68-8.1-9.62-11.22-5.96-4.72-13.18-8.05-20.43-10.67-9.62-3.48-18.74-5.89-20.93-12.84-4.25-13.45 39.3-41.65 12.21-81.37-5.94-22.18-61.97-63.1-35.76-65.26 6.43-.53 10.23 4.6 22.22 10.95 86.57 46.43 120.05 77.54 131.78 88.67-1.9-7.1-7.16-13.24-12.14-18.93-3.5-3.57-7.1-5.9-7.09-8.42.1-9.68 7.36-4.71 8.57-32.92s-27.75-68.32-27.75-80.77c0-2.99 1.21-11.2 43.3 15.17 30.95 16.02 50.93 36.48 67.6 59.55 24.03 33.25 40.33 79.07 57.09 125.2 11.41 31.42 23.36 64.46 43.48 97.95-4.88-44.9 15.13-55.17 20.36-78.82 3.6-16.32 1.57-19.81.57-41.8s31.01-39.84 35.86-57.92c1.64-6.13 9.95-13.09 20.8-15.7 13.99-3.36 31.8-.03 31.8 18.9 8.3 5.46 20.66 4.75 28.87 9.29 8.85 4.89 1.41 10.69 9.45 14.68 6.59 3.28 8.08 5.55 9.03 7.16a1162.06 1162.06 0 0 0 43.64-85.57c6.5-14.15 12.52-29.12 18.8-43.94 11.1-25.3 13.17-31.66 15.28-42.66 1.05-5.52 1.61-9.13 2.73-14.53 2.33-10.75 5.37-21.83 9.6-30.07 6.3-12.3 10.25-15.02 17.7-14.28 6.52.64 8.48 7.72 1.56 39.26Z"
              transform="translate(474.02 98.25)"/>
        <path fill="#fff"
              d="M145.47 163.3c14.42 9.96 45.1 35.59 67.8 95.2s29.52 102.26 63.5 161.47c-25.56-19.6-66.45-85.3-98.42-117.83-6.81-22.52-9.47-38.76-24.74-50.95 10.48-20.73 13.63-38.44-8.14-87.89Z"
        />
        <path fill="#fff"
              d="M45.45 227.94c20.68 15.87 33.66 24.84 65.88 64.8 12.11 15.02 26.8 35.47 46.78 61.97 71.87 95.36 116.17 127.63 181.14 139.12-49.53 11.56-117.22 24.65-163.08-.14a108.65 108.65 0 0 1-34.77-29.99c-5.96-7.85-10.3-16-15.68-23.45-8.8-12.24-19.4-22.21-38.8-25.62 19.13-38.33 11.78-70.94-46.45-89.8 6.7-9.39 40.56-47.8 4.98-96.9Z"
        />
        <path fill="#fff"
              d="M63.73 647.14c64.94-7.3 129.42-48.04 185.23-83.34 36.24-22.91 68.93-43.3 95.3-51.35-30.07 25.97-44.52 79.2-47.81 89.17-12.5-7.22-45.05-10.43-59.14 23.12-16.76-8.09-33.44-2.83-47.88 6.78-24.24 16.14-45.05 45.9-72.48 49.45-24.48 2.83-54.76-16.06-53.22-33.83Z"
        />
        <path fill="#fff"
              d="M342.43 755.25c8.92-.41 9.8 8.65 14.72 8.8s2.55-5.53 2.55-5.53l51.1-24.7c7.57 6.27 29.36 6.23 27.36 25.72-28.89 14.56-82.94 15.48-114.53 29.98-11.22-2.82-46.25 28.29-48.71 16.88s50.35-50.36 67.51-51.15Z"
        />
        <path fill="#fff"
              d="M569.31 149.74c10.04-16.51 8.91-66.51 26.96-77.6-8.85 41.89-1.96 42.18 14.78 36.79-24.68 31.86-45.75 86.06-60.99 134.96-6.52 20.93-14.17 33.97-20.98 48.8-8.77 18.37-17.64 36.37-26 61.68-31.65-26.18 3.29-36.67-7.55-54.57 32.67-52.84 51.79-94.62 73.78-150.06Z"
        />
        <path fill="#fff"
              d="M418.55 349.62s9.48.47 18.84.46c9.5 82.55-39.24 45.43-44.8 132.1l-9.78-3.34c6.09-14.06.04-38.61 7.5-53.56 3.5-6.99 10.75-13.65 15.66-26.44 5.34-14.24 7.83-34.28 12.58-49.22Z"
        />
        <path fill="#fff"
              d="M342.89 451.8c4.38-20.16-1.46-34.67 1.08-46.59 2.72-11.25 8.9-19.19 14.3-27.98 3.17-5.15 6.22-10.7 7.37-17.96.75-4.73.2-9.06 0-13.39-.5-11.26-2.57-21.17 2.84-39.32 1.49-5.01 4.66-9.93 9.16-14.73 2.09-2.23 4.68-4.09 7.23-6.67a73.63 73.63 0 0 0 8.63-12.2c6.46-11.3 18.45-30.25 36.7-18.4-18.25 2.65-20.96 19.78-30.05 30.6S380.38 298 378.74 318.7a125.18 125.18 0 0 0 .34 23.22c1.23 10.56 3.38 19.16.57 31.89-5.01 20.24-17.51 33.75-22.4 49.7s-2.54 28.2-.2 28.29c4.73 0-1.11-9.85 6.42-28.28s16.57-22.13 25.35-43.65-4.18-46.14-.75-66.78c2.6-15.6 15.54-16.13 22.9-31.55 7.1-13.75 13.99-19.71 17.89-19.71.16 5.13-.42 10.03-.44 14.56-.05 9.72-.03 17.22-.81 23.27-1.9 14.67-6.23 17.84-9.33 22.74 0 0-47.37-10.15-6.02 25.1-1.01 1.21-4.97 4.22-7.25 13.16-3.1 11.59-1.82 18.34-5.84 31.2-1.8 5.79-3.68 8.07-6.02 11.68-2.41 3.72-5.4 8.94-8.76 19.98-6.1 20.07-3.92 32.84-7.66 51.72-8.67-1.18-26.64-15.96-33.84-23.44Z"
        />
        <path fill="#fff"
              d="M437.52 269.1c11.88 3.31 18.24 8.13 29.36 9a3.86 3.86 0 0 1 2.04 1.24c.48.66.76.92.91 2.9a13.48 13.48 0 0 0 .5 4.16c.52 1.49 2 3.25 4.64 5.11 2.14 1.87 5.34 4.48 7.54 6.52 4.16 3.85 6.38 7.04 6.35 10.46-.07 9.76-14.6 15.25-13.9 53.8 1.52 38.44 17.23 69.87 19.76 81.28-3.76.2-4.8 2.15-8.45 2.98-6.4-2.7-11.13.5-14.51 1.56-13.69-10.03-20.67 5.09-20.67 5.09s-8.6-9.28-11.3-3.78c-.5 1-.85 15.94-6.07 24.36-1.9 3.09-16.8 32.5-32.26 69.2-9 21.36-16 40.23-24.66 57.81-16.3 33.07-32.33 56.25-33.92 88.48-17.24-4.66-23.65 23.71-34.31 25.14 31.21-62.49 54.07-121.35 66-151.26 7.77-19.5 7.93-15.43 12.75-30.5 12.02-37.68 15.27-73.13 26.73-103.1 3.93-5.78 48.47-29.5 27.04-84.2-16-.71-30.7-2.85-35.8-16.72 9.6 1.18 37.59 9.6 32.23-59.53Z"
        />
        <g fill="url(#c)" transform="translate(76.17 261.24)">
            <path d="M1623.82 1.08c5.35-.65 21.18-3.05 54 2.47C1790.47 216.36 1780 414.72 1780 414.72s-55.3-18.44-75.29-12.34-52.97 49.62-70.11 75.53-49.12 134.14-49.25 170.55c-11.36 20.86-157.01 90.68-187.76 90.68-28.04.19-157.15-33.98-209.23-48.72-12.77-3.9-18.64-4.02-21.33-4.09-72.74-1.71-244.83 201.24-244.83 201.24s-21.18 33.55-23.01 36.57-60.71 43.96-115.98 60.95c-7.56-6.79-116.87-22.51-132.13-25.29s-28.92-5.96-34.85-7.56c-10.16-2.75-24-4.25-76.89 3.53-81.13 11.94-263.56 63.41-263.56 63.41l-47.68-1.3-29.15-33.92s70.8-100.2 84.97-112.6 62.62-36.41 82.13-42.22c18.54 6.05 214.44 24.92 253.31 31.2 1.26 1.01 30.64 15.9 82.33-67.73 2.1-6.7 53.61-72.64 65.49-90.53 0 0 90.54-64.03 182.55-113.01 0 0 175.56 3.96 190.44-4.63s91.02-74.42 116.78-112.77 68.97-105.06 68.97-105.06 48.34-140.6 49.01-145.97 35.78-48.24 51.81-56.26 79.44-24.78 92.64-34.94 33.66-40.41 33.66-40.41l19.7-63.4s40-14.78 51.09-24.55Z"/>
            <path d="M0 487.5s96.66 29.36 123.07 35.08c6.88 1.02 33.28 21.9 58.84 43.3a2042.37 2042.37 0 0 1 51.65 44.71c10.95 10.02 99.9 62.29 99.9 62.29s-42.85 6.94-84.25 9.6c-31.95-19.68-85.88-60.59-108.81-74.14S41.46 550.93 4.19 530.01Z"/>
            <path d="M451.85 614.94s56.59-14.48 117.84-28.46c23.47-5.36 47.84-11.02 70.15-15.63 10.17-2.1 19.54-3.3 29.07-5.42 25.5-5.64 45.11-10.35 54.5-11.9l12.8-.62s77.4 47.4 99.85 67.04c-20.84 14.63-80.77 51.51-93.17 63.72 0 0-25.07-34.45-28-36.4s-87.87-29.79-91.5-29.81-89.8 22.68-110.39 27.63-159.52 25.12-159.52 25.12Z"/>
            <path d="M10.72 568.73s24 13.46 55.3 31.18c10.25 5.8 20.7 12.02 32.27 18.64 9.82 5.62 24.72 14.14 30.33 17.88 52.45 34.43 96.74 72.31 115.8 75.76 14.17 2.68 118.54-12.15 195.36-24.11 45.8-7.13 82.4-13.66 82.4-13.66l100.64-26.13 73.67 23.91 28.6 37.74-33.68 44c-8.44-5.82-31.34-22.56-50.64-36.88-16.08-11.94-29.05-22.1-33.73-22.41-4.53-.3-53.83 7.34-107.07 15.29-64.97 9.7-135.82 20.14-135.82 20.14s-75.38 27.42-129.82 44.97c-10.67-2.96-94.16-39.25-94.16-39.25l-92.39-20.83C23.53 641.2 15.71 602.12 10.72 568.73Z"/>
            <path d="m60.72 748.74 70.3 16.2s90.85 40.89 102.92 40.65 136.79-45.86 136.79-45.86l230.31-34.16 73.8 53.74c-.64 2.14-20.44 35.11-46.5 52.22-22.14-4.93-222.44-25.42-250.43-30.51-2.79-1.62-6.64-2.37-11.12-2.15-9.2.43-21.58 5.28-35.3 11.4-28.15 12.56-59.7 32.18-67.65 38.49-13.34 10.6-84.44 110.77-84.44 110.77-84.65-112.4-118.68-210.8-118.68-210.8Z"/>
            <path d="m1288.21 1098.93 183.56-48.62 30.68 14.03s-220.45 240.4-597.8 245.35c57.54-27.7 153.72-44.63 209.43-54.97 19.16-3.56 33.87-6.5 39.64-7.88 18.03-3.91 72.7-60.36 87.64-72.5Z"/>
            <path d="M374.68 1023.66s167.8-44.71 220.63-44c12.39 0 18.59 3.54 27.65 5.2 76.77 14.62 143.12 22.52 144.9 26.54 11.62 10.06 45.74-3.36 80.24-21.1 37.45-19.27 75.16-44.04 79.52-56.3 8.33-23.45 186.59-218.46 235.52-216.88 13.95.45 33.68 5.87 57.15 12.1 58.05 15.39 135.71 40.47 179.8 39.92 25.16-.31 62.83-16.91 100.78-34.84 30.07-14.21 61.3-29.56 82.8-44.27 16.95-11.58 27.13-23.08 28.93-30.97 1.4-6.13 2.77-17.7 5.42-29.7 3.77-17.08 9.41-36.96 14.88-57.63 8.66-32.67 18.82-62.64 22.32-71.1 3.27-7.88 16.4-22.8 27.27-35.78 12.47-14.89 22.97-30.37 29-32.65 11.13-4.2 67.55 16.15 67.55 16.15s.2 211.38-111 400.71c-70.46-37.83-225.98-5.09-225.98-5.09-10.62 2.74-23.15 19.26-35.8 37.41-14.2 20.36-28.35 42.92-37.1 49.9-3.98 3.16-14.95.5-29.91-4.44a282.48 282.48 0 0 1-30.68-12.4 237.89 237.89 0 0 1-27.22-14.6c-7.11-4.54-13.83-10.02-20.73-15.51-10.67-8.5-21.07-17.25-30.6-24.59-6.9-5.31-13.16-9.95-19.1-12.96a30.42 30.42 0 0 0-12.15-3.43c-13.25-.37-38.85 12.46-64.34 27.21-15.18 8.8-30.67 17.9-42.96 26.1-11.92 7.98-20.56 15-23.38 17.73-10.24 9.9-116.67 150.23-134.74 182.63s-245.13 35.13-309.26 34.85c-30.9-15.64-58.76-32.43-83.41-47.61-15.5-9.55-29.58-17.99-41.5-25.61-17.48-11.19-29.9-19.75-35.13-22.14-14.03-6.41-89.37-12.85-89.37-12.85Z"/>
            <path d="M258.08 1048.98c44.72.9 173.66 6.47 192.2 14.2 7.69 3.2 33 20.7 63.1 39.61 13.16 8.28 27.55 16.83 41.28 24.99 29.22 17.38 55.86 32.12 66.44 34.19 11.63.38 63.82.14 124.36-2.15 43.62-1.65 91.52-5.54 131.46-12.56 45-7.91 75.75-16.55 85.78-40.91 40.09-66.22 113.12-156.18 127.4-171.41 3.63-3.89 12.44-9.64 23.16-16.5 30.25-19.34 78.66-45.34 83.63-44.59 6.59 3.8 16.84 11.21 27.8 19.96 14.68 11.71 30.85 25.6 42.4 32.83 8.63 5.4 22.92 12.79 38.94 19.66 20.15 8.65 43.17 16.27 61.03 16.27a33.1 33.1 0 0 0 20.04-6.78c9.5-7.07 18-19.66 26.83-32.54 12.71-18.52 25.21-39.06 36.96-49.66 50-12.47 117.97-12.17 117.97-12.17-4.47 4.47-102.37 8.28-119 21.29-5.24 4.09-12.38 15.83-21.97 31.21-14.52 23.29-32.73 52.86-37.6 59.78-10.78.87-26.06-.77-43.41-3.53-24.58-3.91-53.16-10.32-76.29-15.9-28.96-7-30.4-9.16-41.6-9.72-17.9-.89-59.43 17.85-71.04 29.46-33.7 56.25-63.62 132.72-84.59 176.81-121.63 35.37-353.34 78.92-353.34 78.92s-63.55-22.02-100.7-39.6c-41.88-26.8-134.83-84.11-149.85-88.67-10.95-3.33-147.25-29.57-199.9-40.84a140.9 140.9 0 0 1-11.5-11.65Z"/>
            <path d="m315 1100.66 145.6 29.37c10.44 4.58 39.06 21.35 70.83 40.67 22 13.36 49.2 30.18 68.09 42.5 8.37 5.46 36.78 17.2 63.86 27.79 11.17 4.36 22.07 8.36 31.46 11.85 11.97 4.44 20.98 7.67 24.04 7.75 2.44 0 35.24-6.54 80.41-15.68a8824.63 8824.63 0 0 0 135.03-28.55c80.48-17.67 154.2-34.65 162.16-44.38 4.38-5.35 3.32-7.58 9.78-21.18 21.37-47.23 69.16-152.05 74.13-156.48 7.66-6.83 39.07-20.1 48.29-19.7 3.74.15 27.87 7.67 58.05 14.47 43.5 9.8 98.92 19.37 115.03 12.96 11.91-4.73 13.91-13.05 22.87-25.82 16.66-25.78 36.1-58.54 43.57-69.54 21.88-5.86 47.56-7.21 75.67-10.67 37.5-4.62 59.8-10 75.43-5.81 5.76 7 12.62 8.63 19 9.5-50.3 80.04-112.48 142.05-112.48 142.05s-13-6.03-26.62-12.18c-10.99-4.96-21.86-10.14-25.09-10.4-2.14-.17-21.07 4.85-46.98 11.68-21.08 5.56-47.07 12.32-71.8 18.98-43 11.57-82.44 21.87-85.57 23.61-2.77 1.54-10.16 13.67-19.06 28.2-13.35 21.82-29.55 49.26-32.75 52.46-7.8 8.4-22.64 21.97-37.04 34.87-16.2 14.52-31.8 28.19-35.44 29.54-34.4 7-162.8 30.44-196.97 42.48-37.62 13.26-77.13 27.95-122.3 47-315.82-19.78-511.2-207.34-511.2-207.34Z"/>
        </g>
        <g fill="#8a5414">
            <path d="M1836.03 112.23c3.27 0 5.48 2.22 5.48 6.27s-2.5 6.55-5.48 6.55-5.6-2.13-5.6-6.55 2.34-6.27 5.6-6.27Z"/>
            <path d="M1574.98 151.12a7.5 7.5 0 0 1 7.3 7.75c0 4.68-3.33 8.1-7.3 8.1s-7.45-2.93-7.45-8.1a7.32 7.32 0 0 1 7.45-7.75Z"/>
            <path d="M1685.85 242.78a3.82 3.82 0 0 1 3.65 4.12c0 2.66-1.66 4.3-3.65 4.3s-3.72-1.4-3.72-4.3 1.95-4.12 3.72-4.12Z"/>
            <path d="M1288.07 109.63a7.57 7.57 0 0 1 7.33 7.84c0 4.73-3.34 8.19-7.33 8.19s-7.5-2.96-7.5-8.19 3.8-7.84 7.5-7.84Z"/>
            <path d="M1333.47 154.48a4.43 4.43 0 0 1 4.32 4.75c0 2.86-1.97 4.96-4.32 4.96s-4.43-1.8-4.43-4.96 2.08-4.75 4.43-4.75Z"/>
            <path d="M1568.6 361.06c4.52 0 8.5 3.11 8.5 7.86a8.27 8.27 0 0 1-8.5 8.2c-4.63 0-8.69-2.96-8.69-8.2s4.16-7.86 8.69-7.86Z"/>
            <path d="M406.16 90.46c4.52 0 8.5 3.12 8.5 7.86a8.27 8.27 0 0 1-8.5 8.21c-4.63 0-8.7-2.96-8.7-8.2s4.17-7.87 8.7-7.87Z"/>
            <path d="M1352.76 254.27c2.25 0 4.45 2.02 4.45 5.1s-2.03 5.33-4.45 5.33-4.54-1.92-4.54-5.33 2.3-5.1 4.54-5.1Z"/>
            <path d="M1418.9 322.62c2.83 0 5.6 2.53 5.6 6.38s-2.55 6.66-5.6 6.66-5.72-2.4-5.72-6.66 2.9-6.38 5.72-6.38Z"/>
            <path d="M1268.12 454.42c1.82 0 3.6 1.71 3.6 4.31s-1.64 4.5-3.6 4.5-3.69-1.63-3.69-4.5 1.87-4.3 3.69-4.3Z"/>
            <path d="M1157.3 363.01c3.86 0 7.35 3.12 7.35 7.87s-3.35 8.22-7.35 8.22-7.5-2.97-7.5-8.22 3.65-7.87 7.5-7.87Z"/>
            <path d="M1106.69 163.28c3.64 0 7.22 2.61 7.22 6.59a6.98 6.98 0 0 1-7.22 6.87c-3.93 0-7.38-2.36-7.38-6.87s3.73-6.6 7.38-6.6Z"/>
            <path d="M897.19 109.72a4.56 4.56 0 0 1 4.3 4.83c0 2.9-1.96 5.03-4.3 5.03s-4.4-1.82-4.4-5.03 2.23-4.83 4.4-4.83Z"/>
            <path d="M952.67 158.18a3.89 3.89 0 0 1 4.08 3.66 3.92 3.92 0 0 1-4.08 3.82c-2.23 0-4.18-1.38-4.18-3.82s2.12-3.66 4.18-3.66Z"/>
            <path d="M1149.58 574.48c4.31 0 8.54 3.08 8.54 7.76a8.24 8.24 0 0 1-8.54 8.1c-4.65 0-8.73-2.93-8.73-8.1s4.42-7.76 8.73-7.76Z"/>
            <path d="M982.5 280.07c2.86 0 5.67 2.56 5.67 6.46s-2.59 6.75-5.67 6.75-5.8-2.44-5.8-6.75 2.93-6.46 5.8-6.46Z"/>
            <path d="M588.16 585.47c2.86 0 5.68 2.56 5.68 6.46s-2.6 6.75-5.68 6.75-5.8-2.44-5.8-6.75 2.94-6.46 5.8-6.46Z"/>
            <path d="M935.8 464.51c2.24 0 4.45 2.05 4.45 5.16s-2.03 5.38-4.45 5.38-4.55-1.94-4.55-5.38 2.3-5.16 4.55-5.16Z"/>
            <path d="M831.36 411.14a4.02 4.02 0 0 1 3.79 4.26c0 2.58-1.73 4.45-3.79 4.45s-3.87-1.6-3.87-4.45a3.92 3.92 0 0 1 3.87-4.26Z"/>
            <path d="M870.76 319.21a7.5 7.5 0 0 1 7.3 7.76c0 4.68-3.33 8.1-7.3 8.1s-7.45-2.93-7.45-8.1a7.32 7.32 0 0 1 7.45-7.76Z"/>
            <path d="M669.04 118.72c4 0 7.37 2.64 7.37 6.65a7.09 7.09 0 0 1-7.37 6.95c-4.01 0-7.53-2.5-7.53-6.95s3.52-6.65 7.53-6.65Z"/>
            <path d="M321.88 155.12c4 0 7.37 2.64 7.37 6.66a7.09 7.09 0 0 1-7.37 6.95c-4.01 0-7.53-2.51-7.53-6.95s3.52-6.66 7.53-6.66Z"/>
            <path d="M719.9 319.28a7.59 7.59 0 0 1 7.35 7.87c0 4.75-3.35 8.22-7.35 8.22s-7.5-2.97-7.5-8.22 3.8-7.87 7.5-7.87Z"/>
            <path d="M713.17 529.6c4.39 0 8.7 3.14 8.7 7.9a8.39 8.39 0 0 1-8.7 8.27c-4.72 0-8.87-2.99-8.87-8.26s4.49-7.91 8.87-7.91Z"/>
            <path d="M515.13 118.05a3.88 3.88 0 0 1 4.08 3.64 3.9 3.9 0 0 1-4.08 3.8c-2.23 0-4.18-1.38-4.18-3.8s2.11-3.64 4.18-3.64Z"/>
        </g>
        <g fill="#d0b34c">
            <path d="m1723.9 33.94 1.51 17.08 23.1-8.4-13.52 15.66 1.31 33.04-13.35-25.4-23.05 17.89 9.7-23.13-17.9-13.8 21.62 3.01Z"/>
            <path d="m1291.46 308.72-14.8-7.56-5.6 24.24-5.8-20.62-28.55-16.63 28.84 2.76-2.73-28.95 14.12 20.83 21.29-7.79-14.52 16.22Z"/>
            <path d="m1510.77 36.6 12.28-18.57-1.26 19.75 17.21 5.44-17.28 2.84-3.33 14.96-5.78-12.18-15.13 12.43 6.1-15.42-9.6-24.4Z"/>
            <path d="m1444.76 127.85 11.72 8.26 6.36-7.9-.33 10.06 6.94 3.57h-11.1l-5.85 9.11-.93-9.87Z"/>
            <path d="m1510.87 256.52 16.8-5.13 5.04-17.1 6.12 14.84 16.98 17.33-22.05-7.14-6.53 15.37-4.38-16.16Z"/>
            <path d="m840.7 200.3 3.94 16.74 22.14-11.4-11.82 17.71 5.45 32.72-16.68-23.7-20.95 21.1 7.45-24.72-19.97-11.71 22.35.86Z"/>
            <path d="m346.74 7.86 6.94 7.27 8.25-12.43-1.02 12.51 12.4 14.89-15.63-6.94-4.79 16.98-3.32-14.74-13.85.1 11.93-6.3Z"/>
            <path d="m683.9 599.49 11.56 12.73 13.85-20.7-1.76 21.22 20.64 25.98-26.09-12.64-8.1 28.62-5.47-25.24-23.15-.56 19.97-10.09Z"/>
            <path d="m1105.83 235.78-17.1 14.91 6.67-18.6-15.01-10.02 17.5 1.69 7.54-13.4 1.96 13.6 18.36-8.1-10.52 13.48 2.64 26.2Z"/>
            <path d="m681.24 184.9 16.01-16.07-5.35 19.02 15.67 8.94-17.57-.46-6.59 13.9-2.9-13.44-17.73 9.36 9.53-14.17-4.46-25.94Z"/>
            <path d="m429.84 188.75-3.2-22.47 11.98 15.73 16.58-7.14-10.95 13.76 7.14 13.62-12.48-5.76-3.2 19.8-5.58-16.15-23.41-12.05Z"/>
            <path d="M631.45 404.08h17.69l9.72-15.38 1.78 16.1 10.83 21.97-19-13.49-10.87 13.06.47-16.97Z"/>
            <path d="M1091.1 458.32h17.56l9.82-14.88 1.51 15.98 11.18 21.54-19-13.28-10.74 12.8.54-16.74Z"/>
            <path d="m1045.21 333.8 11.72 8.26 6.37-7.91-.34 10.07 6.95 3.57h-11.1l-5.86 9.11-.93-9.87Z"/>
            <path d="m842.08 450.65 11.72 8.26 6.37-7.91-.34 10.07 6.95 3.56h-11.1l-5.86 9.12-.93-9.88Z"/>
            <path d="m596.58 293.63 11.72 8.26 6.36-7.92-.34 10.07 6.95 3.57h-11.1l-5.85 9.11-.94-9.88Z"/>
            <path d="m497.39 60.17 11.72 8.26 6.36-7.91-.34 10.07 6.95 3.56h-11.1l-5.85 9.11-.93-9.87Z"/>
        </g>
    </g>
</svg>
