<svg xmlns="http://www.w3.org/2000/svg" fill="none" viewBox="0 0 2317 829">
    <path fill="#fff"
          d="M1028.5 211C771.5 108.5 687.5 23 677 0H0v827h2316V0h-134c-11 0-37 125.5-37 255.5 0 141-105.5 262.5-236.5 318S1624 666 1456 593s-170.5-279.5-427.5-382Z"/>
    <path fill="#8A5414"
          d="M824.77 173.3a2.78 2.78 0 0 1 2.63 2.95c0 1.78-1.2 3.07-2.63 3.07s-2.68-1.1-2.68-3.07c0-1.96 1.36-2.94 2.68-2.94ZM608.68 127a2.8 2.8 0 0 1 2.63 2.94c0 1.78-1.2 3.08-2.63 3.08s-2.68-1.11-2.68-3.08c0-1.96 1.36-2.94 2.68-2.94Zm-153-57a2.78 2.78 0 0 1 2.63 2.94c0 1.78-1.2 3.08-2.63 3.08S453 74.9 453 72.94s1.36-2.94 2.68-2.94Zm-149 88a2.8 2.8 0 0 1 2.63 2.94c0 1.78-1.2 3.08-2.63 3.08s-2.68-1.11-2.68-3.08c0-1.96 1.36-2.94 2.68-2.94Zm551.96 44.85a2.37 2.37 0 0 1 2.5 2.23 2.38 2.38 0 0 1-2.5 2.33c-1.36 0-2.55-.84-2.55-2.33 0-1.49 1.3-2.23 2.55-2.23ZM524.55 138a2.38 2.38 0 0 1 2.5 2.24 2.38 2.38 0 0 1-2.5 2.33c-1.36 0-2.55-.84-2.55-2.33 0-1.5 1.29-2.24 2.55-2.24Zm-289-59a2.38 2.38 0 0 1 2.5 2.24 2.38 2.38 0 0 1-2.5 2.33c-1.36 0-2.55-.84-2.55-2.33 0-1.5 1.29-2.23 2.55-2.23Zm641.3 198.15c1.75 0 3.46 1.56 3.46 3.94s-1.58 4.12-3.46 4.12c-1.89 0-3.54-1.5-3.54-4.12 0-2.63 1.79-3.94 3.54-3.94ZM508.56 292a4.58 4.58 0 0 1 4.45 4.73c0 2.86-2.03 4.94-4.45 4.94-2.43 0-4.55-1.78-4.55-4.94a4.45 4.45 0 0 1 4.55-4.73Zm-112-87a4.58 4.58 0 0 1 4.45 4.73c0 2.86-2.03 4.94-4.45 4.94-2.43 0-4.55-1.78-4.55-4.94a4.45 4.45 0 0 1 4.55-4.73Zm-83-150a4.59 4.59 0 0 1 4.45 4.73c0 2.86-2.03 4.94-4.45 4.94-2.43 0-4.55-1.78-4.55-4.94a4.46 4.46 0 0 1 4.55-4.73Zm194-38a4.59 4.59 0 0 1 4.45 4.73c0 2.86-2.03 4.94-4.45 4.94-2.43 0-4.55-1.78-4.55-4.94a4.46 4.46 0 0 1 4.55-4.73Zm190 43a4.59 4.59 0 0 1 4.45 4.73c0 2.86-2.03 4.94-4.45 4.94-2.43 0-4.55-1.78-4.55-4.94a4.46 4.46 0 0 1 4.55-4.73Zm-255 311a4.58 4.58 0 0 1 4.45 4.73c0 2.86-2.03 4.94-4.45 4.94-2.43 0-4.55-1.78-4.55-4.94a4.45 4.45 0 0 1 4.55-4.73ZM685.5 178.8c2.45 0 4.5 1.6 4.5 4.05a4.32 4.32 0 0 1-4.5 4.24c-2.44 0-4.59-1.53-4.59-4.24 0-2.7 2.15-4.06 4.6-4.06Zm-20.34 92.72a4.63 4.63 0 0 1 4.48 4.8c0 2.9-2.04 5.01-4.48 5.01-2.44 0-4.58-1.8-4.58-5s2.32-4.8 4.58-4.8ZM618.58 405a4.63 4.63 0 0 1 4.48 4.8c0 2.9-2.04 5.01-4.48 5.01-2.44 0-4.58-1.8-4.58-5s2.32-4.8 4.58-4.8Zm206-21a4.63 4.63 0 0 1 4.48 4.8c0 2.9-2.04 5.01-4.48 5.01-2.44 0-4.58-1.8-4.58-5s2.32-4.8 4.58-4.8Zm344 80a4.57 4.57 0 0 1 3.24 1.47 4.67 4.67 0 0 1 1.24 3.33c0 2.9-2.04 5.01-4.48 5.01-2.44 0-4.58-1.8-4.58-5s2.32-4.8 4.58-4.8Zm-439 40a4.63 4.63 0 0 1 4.48 4.8c0 2.9-2.04 5.01-4.48 5.01-2.44 0-4.58-1.8-4.58-5s2.32-4.8 4.58-4.8Z"/>
    <path fill="#D0B34C"
          d="m790.3 228.53 2.4 10.2 13.51-6.94-7.22 10.79 3.33 19.94-10.18-14.45-12.78 12.87 4.54-15.07-12.19-7.14 13.64.53 4.94-10.73Zm997.96 483.18 7.06 7.76 8.45-12.62-1.07 12.94 12.6 15.84-15.93-7.71-4.94 17.45-3.34-15.39-14.14-.34 12.2-6.15-.89-11.78ZM952.13 250.15l-10.44 9.1 4.08-11.35-9.17-6.1 10.69 1.02 4.6-8.16 1.2 8.29 11.2-4.94-6.42 8.22 1.61 15.97-7.35-12.05Zm-259.17-31.02 9.77-9.79-3.27 11.6 9.57 5.45-10.73-.28-4.02 8.46-1.77-8.18-10.82 5.7 5.82-8.64-2.73-15.8 8.18 11.48ZM553.27 95.5l9.77-9.8-3.27 11.6 9.57 5.45-10.72-.28-4.02 8.46-1.77-8.18-10.83 5.7 5.82-8.64-2.72-15.8 8.17 11.49Zm-190 25 9.77-9.8-3.27 11.6 9.57 5.45-10.72-.28-4.02 8.46-1.77-8.18-10.83 5.7 5.82-8.64-2.72-15.8 8.17 11.48Zm-105-98 9.77-9.8-3.27 11.6 9.57 5.45-10.72-.28-4.02 8.46-1.77-8.18-10.83 5.7 5.82-8.64-2.72-15.8 8.17 11.49ZM539.5 221.48l-1.95-13.7 7.3 9.6 10.13-4.36-6.69 8.4 4.36 8.3-7.62-3.52-1.95 12.07-3.4-9.84-14.3-7.35 14.12.4Zm527.5 42.9h10.8l5.93-9.38 1.09 9.82 6.61 13.4-11.59-8.23-6.64 7.95.29-10.34-6.49-3.23Z"/>
    <path fill="#8A5414"
          d="M748.25 576c1.11 0 2.2 1.04 2.2 2.63 0 1.58-1 2.74-2.2 2.74-1.2 0-2.25-.99-2.25-2.74 0-1.75 1.14-2.63 2.25-2.63Zm167.08 87.6c2.35 0 4.48 1.91 4.48 4.8 0 2.9-2.04 5.02-4.48 5.02-2.44 0-4.58-1.81-4.58-5.01 0-3.2 2.23-4.8 4.58-4.8Zm11.51 125.92c2.63 0 5.21 1.88 5.21 4.73a5.02 5.02 0 0 1-5.21 4.93c-2.84 0-5.33-1.78-5.33-4.93 0-3.15 2.7-4.73 5.33-4.73ZM824.85 610.05c1.75 0 3.46 1.56 3.46 3.94s-1.58 4.11-3.46 4.11c-1.89 0-3.54-1.48-3.54-4.11 0-2.63 1.79-3.94 3.54-3.94ZM545.92 810.02c1.75 0 3.47 1.56 3.47 3.94s-1.58 4.12-3.47 4.12c-1.88 0-3.53-1.5-3.53-4.12 0-2.63 1.79-3.94 3.53-3.94Zm250.42-87.54c1.37 0 2.72 1.25 2.72 3.15s-1.24 3.28-2.72 3.28c-1.48 0-2.77-1.19-2.77-3.28 0-2.1 1.4-3.15 2.77-3.15Zm-63.74-32.53a2.44 2.44 0 0 1 2.3 2.6c0 1.57-1.05 2.71-2.3 2.71-1.26 0-2.37-.98-2.37-2.71a2.4 2.4 0 0 1 2.36-2.6Zm-119.44-85.53a4.65 4.65 0 0 1 4.48 4.8c0 2.9-2.04 5.01-4.48 5.01-2.44 0-4.58-1.81-4.58-5 0-3.2 2.32-4.8 4.58-4.8Zm10.19 127.72c2.67 0 5.3 1.91 5.3 4.82a5.1 5.1 0 0 1-5.3 5.04c-2.9 0-5.42-1.82-5.42-5.04 0-3.21 2.74-4.82 5.42-4.82Z"/>
    <path fill="#D0B34C"
          d="m730.58 628 2.4 10.2 13.52-6.94-7.22 10.8 3.33 19.93-10.18-14.44-12.78 12.87 4.54-15.08L712 638.2l13.64.53 4.94-10.73Zm444 128 2.41 10.2 13.51-6.94-7.22 10.8 3.33 19.93-10.18-14.44-12.79 12.87 4.55-15.08-12.19-7.14 13.64.53 4.94-10.73ZM900.13 583.05l-10.44 9.1 4.08-11.35-9.17-6.1 10.69 1.02 4.6-8.17 1.2 8.3 11.2-4.94-6.42 8.21 1.61 15.97-7.35-12.04ZM710.85 434.53l-10.44 9.1 4.07-11.35-9.17-6.1L706 427.2l4.6-8.17 1.2 8.3 11.2-4.94-6.41 8.21 1.6 15.97-7.34-12.04ZM653.27 575.5l9.77-9.8-3.27 11.6 9.57 5.45-10.72-.28-4.02 8.46-1.77-8.18-10.83 5.7 5.82-8.64-2.72-15.8 8.17 11.49Zm178-105 9.77-9.8-3.27 11.6 9.57 5.45-10.72-.28-4.02 8.46-1.77-8.18-10.83 5.7 5.82-8.64-2.72-15.8 8.17 11.49Zm243-107 9.77-9.8-3.27 11.6 9.57 5.45-10.72-.28-4.02 8.46-1.77-8.18-10.83 5.7 5.82-8.64-2.72-15.8 8.17 11.49ZM495.98 595.75l-1.95-13.7 7.3 9.59 10.13-4.35-6.68 8.38 4.35 8.3-7.61-3.5-1.96 12.07-3.4-9.85-14.3-7.34 14.12.4Zm-28.36 132.53h10.8l5.93-9.38 1.1 9.82 6.6 13.4-11.6-8.23-6.63 7.96.29-10.35-6.49-3.22Zm548.27 36.6h10.8l5.93-9.37 1.09 9.81 6.61 13.4-11.6-8.23-6.64 7.96.29-10.34-6.48-3.23Zm-112.93-33.02h10.72l6-9.06.93 9.74 6.82 13.13-11.6-8.1-6.56 7.8.33-10.2-6.64-3.3Zm56.08-93.17 7.15 5.03 3.88-4.82-.2 6.14 4.24 2.17h-6.78l-3.57 5.56-.57-6.02-4.15-8.06ZM1186 387l7.15 5.04 3.89-4.83-.21 6.14 4.24 2.17h-6.78l-3.57 5.56-.56-6.02L1186 387Zm-565 81 7.15 5.04 3.89-4.83-.2 6.14 4.23 2.17h-6.78l-3.56 5.56-.58-6.02L621 468Zm125.43 282.05 7.15 5.04 3.88-4.83-.2 6.15 4.24 2.17h-6.78l-3.57 5.55-.57-6.02-4.15-8.06ZM557.96 663.6l7.15 5.04 3.89-4.82-.2 6.14 4.23 2.17h-6.77l-3.58 5.55-.56-6.02-4.16-8.05Z"/>
    <path fill="#8A5414"
          d="M1028.3 225c2.76 0 5.19 1.9 5.19 4.8a5 5 0 0 1-5.19 5c-2.82 0-5.3-1.8-5.3-5s2.54-4.8 5.3-4.8Zm469.54 443.52c2.63 0 5.22 1.88 5.22 4.73a5.18 5.18 0 0 1-1.57 3.56 5.06 5.06 0 0 1-3.65 1.37c-2.84 0-5.33-1.78-5.33-4.93 0-3.15 2.7-4.73 5.33-4.73Zm-380.91 20.5c1.74 0 3.46 1.56 3.46 3.94s-1.58 4.12-3.46 4.12c-1.89 0-3.55-1.5-3.55-4.12 0-2.63 1.8-3.94 3.55-3.94Zm250.41-87.54c1.37 0 2.72 1.25 2.72 3.15s-1.24 3.28-2.72 3.28c-1.48 0-2.77-1.19-2.77-3.28 0-2.1 1.4-3.15 2.77-3.15ZM1330.37 540a2.45 2.45 0 0 1 2.31 2.6c0 1.57-1.05 2.71-2.31 2.71s-2.36-.98-2.36-2.7c-.03-.34.01-.67.11-.98a2.5 2.5 0 0 1 1.29-1.42c.3-.13.63-.2.96-.2Zm-306.66-.5a4.6 4.6 0 0 1 4.16 2.96c.21.56.31 1.16.29 1.76 0 2.86-2.03 4.94-4.45 4.94-2.43 0-4.55-1.78-4.55-4.94a4.38 4.38 0 0 1 2.75-4.39 4.47 4.47 0 0 1 1.8-.33Zm-17.4-253.02c2.44 0 4.5 1.6 4.5 4.06a4.35 4.35 0 0 1-2.81 3.96c-.54.2-1.11.3-1.69.27-2.45 0-4.59-1.53-4.59-4.23 0-2.71 2.14-4.06 4.59-4.06Zm188.04 324.66c2.67 0 5.3 1.91 5.3 4.83a5.17 5.17 0 0 1-3.31 4.7c-.63.24-1.31.35-1.99.33-2.89 0-5.42-1.82-5.42-5.03 0-3.22 2.74-4.83 5.42-4.83ZM1685.42 726c2.68 0 5.3 1.91 5.3 4.82a4.99 4.99 0 0 1-1.59 3.63 5.13 5.13 0 0 1-3.71 1.4c-2.89 0-5.42-1.81-5.42-5.03 0-3.21 2.74-4.82 5.42-4.82Zm-350 24c2.68 0 5.3 1.91 5.3 4.82a4.99 4.99 0 0 1-1.59 3.63 5.13 5.13 0 0 1-3.71 1.4c-2.89 0-5.42-1.81-5.42-5.03 0-3.21 2.74-4.82 5.42-4.82Zm-188.87-445a2.35 2.35 0 0 1 2.49 2.22 2.41 2.41 0 0 1-.76 1.68 2.3 2.3 0 0 1-1.73.63c-1.36 0-2.55-.83-2.55-2.3 0-1.49 1.29-2.22 2.55-2.22Z"/>
    <path fill="#D0B34C"
          d="m1388.98 681.15 7.06 7.76 8.45-12.61-1.07 12.94 12.6 15.83-15.93-7.7-4.94 17.44-3.34-15.38-14.14-.35 12.2-6.15-.89-11.78Zm-151-153.4-1.95-13.7 7.31 9.59 10.12-4.35-6.68 8.39 4.35 8.3-7.61-3.52-1.96 12.08-3.4-9.85-14.29-7.34 14.11.4Zm-264-81-1.95-13.7 7.3 9.59 10.13-4.35-6.68 8.39 4.35 8.3-7.61-3.52-1.96 12.08-3.4-9.85-14.3-7.34 14.12.4Zm-350-97-1.95-13.7 7.3 9.59 10.13-4.35-6.68 8.39 4.35 8.3-7.61-3.52-1.96 12.08-3.4-9.85-14.3-7.34 14.12.4Zm414.64 257.53h10.8l5.93-9.38 1.09 9.82 6.61 13.4-11.59-8.23-6.64 7.96.29-10.35-6.49-3.22ZM885 371.38h10.8l5.93-9.38 1.1 9.82 6.6 13.4-11.6-8.23-6.63 7.95.29-10.34-6.49-3.23Zm701.89 272.5h10.8l5.93-9.37 1.09 9.81 6.61 13.4-11.6-8.23-6.64 7.96.29-10.34-6.48-3.23ZM2106 437.38h10.8l5.93-9.38 1.09 9.82 6.61 13.4-11.59-8.23-6.64 7.95.29-10.34-6.49-3.23Zm162-232h10.8l5.93-9.38 1.09 9.82 6.61 13.4-11.59-8.23-6.64 7.95.29-10.34-6.49-3.22Zm-82-190h10.8l5.93-9.38 1.09 9.82 6.61 13.4-11.59-8.23-6.64 7.95.29-10.34-6.49-3.22Zm-868.57 613.67 7.15 5.04 3.88-4.83-.2 6.15 4.24 2.17h-6.78l-3.57 5.55-.57-6.02-4.15-8.06ZM2216 455l7.15 5.04 3.89-4.83-.21 6.14 4.24 2.17h-6.78l-3.57 5.56-.56-6.02L2216 455Zm-40-165 7.15 5.04 3.89-4.83-.21 6.14 4.24 2.17h-6.78l-3.57 5.56-.56-6.02L2176 290Zm101-215 7.15 5.03 3.89-4.82-.21 6.14 4.24 2.17h-6.78l-3.57 5.56-.56-6.02L2277 75ZM1128.96 542.6l7.15 5.04 3.89-4.82-.21 6.14 4.24 2.17h-6.78l-3.57 5.56-.57-6.03-4.15-8.05ZM1245 714l7.15 5.03 3.89-4.82-.21 6.14 4.24 2.17h-6.78l-3.57 5.56-.57-6.02L1245 714ZM733 342l7.15 5.04 3.89-4.83-.2 6.14 4.23 2.17h-6.78l-3.57 5.56-.57-6.02L733 342ZM636 10l7.15 5.03 3.89-4.82-.2 6.14 4.23 2.17h-6.78l-3.57 5.56-.57-6.02L636 10ZM243 131l7.15 5.03 3.89-4.82-.2 6.14 4.23 2.17h-6.78l-3.57 5.56-.56-6.02L243 131Zm215 30 7.15 5.03 3.89-4.82-.2 6.14 4.23 2.17h-6.78l-3.57 5.56-.57-6.02L458 161Z"/>
    <path fill="#8A5414"
          d="M2085.22 538.52c2.63 0 5.21 1.88 5.21 4.73a4.98 4.98 0 0 1-5.21 4.93c-2.84 0-5.33-1.78-5.33-4.93 0-3.15 2.7-4.73 5.33-4.73ZM2206.33 611c2.63 0 5.21 1.88 5.21 4.73a4.98 4.98 0 0 1-5.21 4.93c-2.84 0-5.33-1.78-5.33-4.93 0-3.15 2.7-4.73 5.33-4.73Zm80-123c2.63 0 5.21 1.88 5.21 4.73a4.98 4.98 0 0 1-5.21 4.93c-2.84 0-5.33-1.78-5.33-4.93 0-3.15 2.7-4.73 5.33-4.73Zm-95-113c2.63 0 5.21 1.88 5.21 4.73a4.98 4.98 0 0 1-5.21 4.93c-2.84 0-5.33-1.78-5.33-4.93 0-3.15 2.7-4.73 5.33-4.73Zm67-346c2.63 0 5.21 1.88 5.21 4.73a4.98 4.98 0 0 1-5.21 4.93c-2.84 0-5.33-1.78-5.33-4.93 0-3.15 2.7-4.73 5.33-4.73Z"/>
    <path fill="#D0B34C"
          d="m1976.36 551.15 7.06 7.76 8.45-12.61-1.07 12.93 12.6 15.84-15.93-7.7-4.94 17.44-3.34-15.38-14.14-.35 12.2-6.15-.89-11.78Zm286.9-204.44 7.06 7.76 8.45-12.62-1.07 12.94 12.6 15.84-15.93-7.71-4.94 17.45-3.34-15.39-14.14-.34 12.2-6.15-.89-11.78Zm6 415 7.06 7.76 8.45-12.62-1.07 12.94 12.6 15.84-15.93-7.71-4.94 17.45-3.34-15.39-14.14-.34 12.2-6.15-.89-11.78Zm-77-656 7.06 7.76 8.45-12.62-1.07 12.94 12.6 15.84-15.93-7.71-4.94 17.45-3.34-15.39-14.14-.34 12.2-6.15-.89-11.78Zm-17.99 408.17h10.8l5.93-9.37 1.09 9.81 6.61 13.4-11.6-8.23-6.64 7.96.29-10.34-6.48-3.23Z"/>
    <path fill="#8A5414"
          d="M1980.63 640c1.11 0 2.2 1.04 2.2 2.63 0 1.58-1 2.74-2.2 2.74-1.2 0-2.25-.99-2.25-2.74 0-1.75 1.14-2.63 2.25-2.63Zm283.62-363c1.11 0 2.2 1.04 2.2 2.63 0 1.58-1 2.74-2.2 2.74-1.2 0-2.25-.99-2.25-2.74 0-1.75 1.14-2.63 2.25-2.63Zm-66-101c1.11 0 2.2 1.04 2.2 2.63 0 1.58-1 2.74-2.2 2.74-1.2 0-2.25-.99-2.25-2.74 0-1.75 1.14-2.63 2.25-2.63Zm73 516c1.11 0 2.2 1.04 2.2 2.63 0 1.58-1 2.74-2.2 2.74-1.2 0-2.25-.99-2.25-2.74 0-1.75 1.14-2.63 2.25-2.63Zm-123.54 35.6c2.35 0 4.48 1.91 4.48 4.8 0 2.9-2.04 5.02-4.48 5.02-2.44 0-4.58-1.81-4.58-5.01 0-3.2 2.23-4.8 4.58-4.8Zm-90.48-53.55c1.74 0 3.46 1.56 3.46 3.94s-1.58 4.11-3.46 4.11c-1.89 0-3.54-1.48-3.54-4.11 0-2.63 1.79-3.94 3.54-3.94Zm-28.51 112.43c1.37 0 2.72 1.25 2.72 3.15s-1.24 3.28-2.72 3.28c-1.48 0-2.77-1.19-2.77-3.28 0-2.1 1.4-3.15 2.77-3.15Zm-63.75-32.53a2.45 2.45 0 0 1 2.31 2.6c0 1.57-1.05 2.71-2.31 2.71s-2.36-.98-2.36-2.71a2.3 2.3 0 0 1 .12-.97 2.33 2.33 0 0 1 1.28-1.42c.31-.14.63-.2.96-.21Zm-119.43-85.53a4.66 4.66 0 0 1 4.19 3.01c.21.57.31 1.18.29 1.8 0 2.89-2.04 5-4.48 5-2.44 0-4.58-1.81-4.58-5 0-3.2 2.32-4.8 4.58-4.8Zm10.18 127.72c2.68 0 5.31 1.91 5.31 4.82a5.16 5.16 0 0 1-3.31 4.7c-.64.25-1.31.36-2 .34-2.88 0-5.41-1.82-5.41-5.04 0-3.21 2.74-4.82 5.41-4.82Z"/>
    <path fill="#D0B34C"
          d="m1962.96 692 2.41 10.2 13.51-6.94-7.22 10.8 3.33 19.93-10.18-14.44-12.79 12.87 4.55-15.08-12.19-7.14 13.64.53 4.94-10.73Zm169.55-44.95-10.44 9.1 4.08-11.35-9.17-6.11 10.69 1.03 4.6-8.17 1.19 8.3 11.21-4.94-6.42 8.21 1.61 15.97-7.35-12.04Zm-246.86-7.55 9.77-9.8-3.27 11.6 9.57 5.45-10.72-.28-4.03 8.46-1.77-8.18-10.82 5.7 5.82-8.64-2.72-15.8 8.17 11.49Zm-157.29 20.25-1.95-13.7 7.31 9.59 10.12-4.35-6.69 8.38 4.36 8.3-7.62-3.5-1.95 12.07-3.41-9.85-14.29-7.34 14.12.4Zm556.62-38-1.95-13.7 7.31 9.6 10.12-4.36-6.68 8.39 4.35 8.3-7.61-3.52-1.96 12.08-3.4-9.85-14.29-7.34 14.11.4Zm-745 138-1.95-13.7 7.31 9.59 10.12-4.35-6.68 8.38 4.35 8.3-7.61-3.5-1.96 12.07-3.4-9.85-14.29-7.34 14.11.4ZM1700 792.28h10.8l5.93-9.38 1.09 9.82 6.61 13.4-11.59-8.23-6.64 7.96.29-10.35-6.49-3.22Zm435.34 3.58h10.72l6-9.06.92 9.74 6.82 13.13-11.59-8.1-6.56 7.8.33-10.2-6.64-3.3Zm56.07-93.17 7.16 5.03 3.88-4.82-.2 6.14 4.24 2.17h-6.78l-3.57 5.56-.57-6.02-4.16-8.06Z"/>
    <path fill="#8A5414"
          d="M146.3 68c2.76 0 5.2 1.9 5.2 4.8a5.02 5.02 0 0 1-5.2 5c-2.82 0-5.3-1.8-5.3-5s2.54-4.8 5.3-4.8Zm142.95 276c1.11 0 2.2 1.04 2.2 2.63 0 1.58-1 2.74-2.2 2.74-1.2 0-2.25-.99-2.25-2.74 0-1.75 1.14-2.63 2.25-2.63Zm-133.67-29.1c2.35 0 4.48 1.9 4.48 4.8s-2.04 5.01-4.48 5.01c-2.44 0-4.58-1.81-4.58-5.01 0-3.2 2.23-4.8 4.58-4.8Zm43.19-139.7a2.8 2.8 0 0 1 2.63 2.95c0 1.77-1.2 3.07-2.63 3.07s-2.68-1.11-2.68-3.07c0-1.97 1.36-2.95 2.68-2.95Zm33.87 29.55a2.37 2.37 0 0 1 2.5 2.23 2.38 2.38 0 0 1-2.5 2.33c-1.36 0-2.55-.84-2.55-2.33 0-1.5 1.3-2.23 2.55-2.23Zm120.2 253.77c2.63 0 5.22 1.88 5.22 4.73a5.03 5.03 0 0 1-5.22 4.93c-2.84 0-5.33-1.78-5.33-4.93 0-3.15 2.7-4.73 5.33-4.73ZM548.33 524c2.63 0 5.21 1.88 5.21 4.73a5 5 0 0 1-5.21 4.93c-2.84 0-5.33-1.78-5.33-4.93 0-3.15 2.7-4.73 5.33-4.73ZM250.85 279.05c1.75 0 3.46 1.56 3.46 3.94s-1.58 4.11-3.46 4.11c-1.89 0-3.54-1.48-3.54-4.11 0-2.63 1.79-3.94 3.54-3.94Zm-28.51 112.43c1.37 0 2.72 1.25 2.72 3.15s-1.24 3.28-2.72 3.28c-1.48 0-2.77-1.19-2.77-3.28 0-2.1 1.4-3.15 2.77-3.15ZM59.5 180.69c2.45 0 4.5 1.6 4.5 4.06a4.31 4.31 0 0 1-4.5 4.23c-2.44 0-4.59-1.53-4.59-4.23s2.15-4.06 4.6-4.06ZM20.6 22c2.44 0 4.5 1.61 4.5 4.06a4.32 4.32 0 0 1-4.5 4.24c-2.45 0-4.6-1.53-4.6-4.24 0-2.7 2.15-4.06 4.6-4.06Zm18.56 251.42a4.63 4.63 0 0 1 4.48 4.8c0 2.9-2.04 5.01-4.48 5.01-2.44 0-4.58-1.8-4.58-5s2.32-4.8 4.58-4.8Zm10.19 127.72c2.67 0 5.3 1.92 5.3 4.82a5.1 5.1 0 0 1-5.3 5.04c-2.9 0-5.42-1.82-5.42-5.04 0-3.21 2.74-4.82 5.42-4.82ZM91.55 26a2.37 2.37 0 0 1 2.5 2.22 2.38 2.38 0 0 1-2.5 2.31c-1.36 0-2.55-.83-2.55-2.3 0-1.49 1.29-2.22 2.55-2.22Z"/>
    <path fill="#D0B34C"
          d="m164.3 230.42 2.4 10.2 13.51-6.94-7.22 10.8 3.33 19.94-10.18-14.45-12.78 12.87 4.54-15.07-12.19-7.15 13.64.53 4.94-10.73ZM91.58 433l2.4 10.2 13.52-6.94-7.22 10.8 3.33 19.93-10.18-14.44-12.79 12.87 4.55-15.08L73 443.2l13.64.53L91.58 433Zm152.4 38.15 7.06 7.77 8.45-12.62-1.07 12.93 12.6 15.84-15.93-7.7-4.94 17.44-3.34-15.38-14.13-.35 12.19-6.14-.89-11.79Zm82.15-219.1-10.44 9.1 4.08-11.35-9.17-6.1 10.69 1.02 4.6-8.17 1.2 8.3 11.2-4.94-6.42 8.21 1.61 15.97-7.35-12.04ZM66.96 221.03l9.77-9.8-3.27 11.6 9.57 5.45L72.3 228l-4.02 8.47-1.77-8.19-10.82 5.7 5.82-8.63-2.73-15.81 8.18 11.5ZM48.98 78.75l-1.95-13.7 7.3 9.6 10.13-4.36-6.68 8.39 4.35 8.3-7.61-3.52-1.96 12.08-3.4-9.85-14.3-7.34 14.12.4ZM136 24.38h10.8l5.93-9.38 1.1 9.82 6.6 13.4-11.6-8.23-6.63 7.95.29-10.34-6.49-3.22Zm305 241.89h10.8l5.93-9.37 1.1 9.81 6.6 13.4-11.6-8.22-6.63 7.95.29-10.34-6.49-3.23Zm287-152.89h10.8l5.93-9.38 1.1 9.82 6.6 13.4-11.6-8.23-6.63 7.95.29-10.34-6.49-3.22Zm-348-80h10.8l5.93-9.38 1.1 9.82 6.6 13.4-11.6-8.23-6.63 7.95.29-10.34-6.49-3.22Zm-46 360.59h10.72l6-9.07.92 9.74 6.82 13.13-11.6-8.1-6.55 7.8.33-10.2-6.64-3.3Zm178-11.9h10.72l6-9.07.92 9.74 6.82 13.13-11.6-8.1-6.55 7.8.33-10.2-6.64-3.3Zm-61.17 129.55 10.29-3.03 3.19-10.39 3.63 9.08 10.26 10.67-13.42-4.49-4.08 9.34-2.57-9.88-7.3-1.3Zm-65.79-203.93 7.15 5.03 3.88-4.82-.2 6.14 4.24 2.17h-6.78l-3.57 5.56-.57-6.02-4.15-8.06ZM443 439l7.15 5.04 3.89-4.83-.2 6.14 4.23 2.17h-6.78l-3.56 5.56-.58-6.02L443 439Zm-270.57-19.94 7.15 5.03 3.88-4.82-.2 6.14 4.24 2.17h-6.78l-3.57 5.56-.57-6.03-4.15-8.06ZM67 338l7.15 5.04 3.89-4.83-.2 6.14 4.23 2.17H75.3l-3.57 5.56-.57-6.02L67 338Zm48-209 7.15 5.03 3.89-4.82-.2 6.14 4.23 2.17h-6.78l-3.57 5.56-.56-6.02L115 129Z"/>
    <path fill="#8A5414"
          d="M83.04 528.46c2.76 0 5.19 1.9 5.19 4.8a5.03 5.03 0 0 1-5.2 5c-2.82 0-5.3-1.8-5.3-5s2.55-4.8 5.3-4.8ZM354 707.73c1.12 0 2.2 1.05 2.2 2.63 0 1.59-1 2.74-2.2 2.74-1.2 0-2.25-.99-2.25-2.74 0-1.75 1.14-2.63 2.25-2.63Zm-14.42-27.83c2.35 0 4.48 1.9 4.48 4.8s-2.04 5.01-4.48 5.01c-2.44 0-4.58-1.81-4.58-5.01 0-3.2 2.23-4.8 4.58-4.8Zm43.19-139.7a2.8 2.8 0 0 1 2.63 2.95c0 1.77-1.2 3.07-2.63 3.07s-2.68-1.11-2.68-3.07c0-1.97 1.36-2.95 2.68-2.95ZM521.68 437a2.78 2.78 0 0 1 2.63 2.94c0 1.78-1.2 3.08-2.63 3.08s-2.68-1.11-2.68-3.08c0-1.96 1.36-2.94 2.68-2.94Zm398 54a2.78 2.78 0 0 1 2.63 2.94c0 1.78-1.2 3.08-2.63 3.08s-2.68-1.11-2.68-3.08c0-1.96 1.36-2.94 2.68-2.94Zm76-135a2.78 2.78 0 0 1 2.63 2.94c0 1.78-1.2 3.08-2.63 3.08s-2.68-1.11-2.68-3.08c0-1.96 1.36-2.94 2.68-2.94Zm81 100a2.79 2.79 0 0 1 2.63 2.94c0 1.78-1.2 3.08-2.63 3.08s-2.68-1.11-2.68-3.08c0-1.96 1.36-2.94 2.68-2.94ZM416.64 569.75a2.37 2.37 0 0 1 2.5 2.23 2.38 2.38 0 0 1-2.5 2.33c-1.36 0-2.55-.84-2.55-2.33 0-1.5 1.3-2.24 2.55-2.24Zm18.21 74.3c1.75 0 3.46 1.56 3.46 3.94s-1.58 4.11-3.46 4.11c-1.89 0-3.54-1.48-3.54-4.11 0-2.63 1.79-3.94 3.54-3.94Zm-28.51 112.43c1.37 0 2.72 1.25 2.72 3.15s-1.24 3.28-2.72 3.28c-1.48 0-2.77-1.19-2.77-3.28 0-2.1 1.4-3.15 2.77-3.15ZM66.56 658.9a4.58 4.58 0 0 1 4.45 4.73c0 2.85-2.03 4.94-4.45 4.94-2.43 0-4.55-1.79-4.55-4.94a4.45 4.45 0 0 1 4.55-4.73ZM243.5 545.69c2.45 0 4.5 1.6 4.5 4.06a4.32 4.32 0 0 1-4.5 4.23c-2.44 0-4.59-1.53-4.59-4.23s2.15-4.06 4.6-4.06ZM31.6 567.88c2.44 0 4.5 1.6 4.5 4.06a4.31 4.31 0 0 1-4.5 4.23c-2.45 0-4.6-1.53-4.6-4.23s2.15-4.06 4.6-4.06Zm191.56 70.54a4.63 4.63 0 0 1 4.48 4.8c0 2.9-2.04 5.01-4.48 5.01-2.44 0-4.58-1.8-4.58-5s2.32-4.8 4.58-4.8Zm10.19 127.72c2.67 0 5.3 1.91 5.3 4.83a5.1 5.1 0 0 1-5.3 5.03c-2.9 0-5.42-1.82-5.42-5.03 0-3.22 2.74-4.83 5.42-4.83Zm-83.79-220.86a2.36 2.36 0 0 1 2.5 2.22 2.39 2.39 0 0 1-2.5 2.31c-1.36 0-2.55-.83-2.55-2.31s1.29-2.22 2.55-2.22Z"/>
    <path fill="#D0B34C"
          d="m348.3 595.42 2.4 10.2 13.51-6.94-7.22 10.8 3.33 19.94-10.18-14.45-12.78 12.87 4.54-15.07-12.19-7.14 13.64.52 4.94-10.73Zm-97.34-9.39 9.77-9.8-3.27 11.6 9.57 5.45-10.73-.28-4.02 8.47-1.77-8.19-10.82 5.7 5.81-8.63-2.72-15.81 8.18 11.5ZM97.5 588.38l-1.95-13.7 7.3 9.6 10.13-4.36-6.69 8.39 4.36 8.3-7.62-3.51-1.95 12.07-3.4-9.84-14.3-7.35 14.12.4Zm-19.88 173.9h10.8l5.93-9.38 1.1 9.82 6.6 13.4-11.6-8.23-6.63 7.96.29-10.35-6.49-3.22Zm278.81 21.77 7.15 5.04 3.88-4.83-.2 6.15 4.24 2.17h-6.78l-3.57 5.55-.57-6.02-4.15-8.06ZM170 674.9l7.15 5.03 3.89-4.82-.2 6.14 4.23 2.17h-6.78l-3.57 5.56-.56-6.03-4.16-8.05ZM138.73 510l7.15 5.03 3.89-4.82-.2 6.14 4.23 2.17h-6.78l-3.57 5.56-.57-6.02-4.15-8.06Z"/>
    <path fill="url(#a)" d="M1 655h2316v173H1z"/>
    <path fill="url(#b)" d="M228 0h828v227H228z" transform="rotate(90 228 0)"/>
    <path fill="url(#c)" d="M2186 828h828v131h-828z" transform="rotate(-90 2186 828)"/>
    <defs>
        <linearGradient id="a" x1="1159" x2="1159" y1="655" y2="828" gradientUnits="userSpaceOnUse">
            <stop stop-color="#fff" stop-opacity="0"/>
            <stop offset=".74" stop-color="#fff"/>
        </linearGradient>
        <linearGradient id="b" x1="642" x2="642" y1="0" y2="227" gradientUnits="userSpaceOnUse">
            <stop stop-color="#fff" stop-opacity="0"/>
            <stop offset=".74" stop-color="#fff"/>
        </linearGradient>
        <linearGradient id="c" x1="2600" x2="2600" y1="828" y2="959" gradientUnits="userSpaceOnUse">
            <stop stop-color="#fff" stop-opacity="0"/>
            <stop offset=".74" stop-color="#fff"/>
        </linearGradient>
    </defs>
</svg>
