<svg xmlns="http://www.w3.org/2000/svg" fill="none" viewBox="0 0 320 182">
    <path fill="#8A5414"
          d="M303.74 115.25c.55.13.99.77.8 1.57-.17.8-.8 1.27-1.4 1.13-.61-.13-1.03-.75-.83-1.63.2-.88.87-1.2 1.43-1.07ZM286.4 84.51c1.19.27 2.04 1.46 1.72 2.92-.33 1.46-1.6 2.3-2.82 2.02-1.22-.28-2.1-1.43-1.74-3.04.36-1.6 1.66-2.16 2.84-1.9ZM206.02 68.3a1.43 1.43 0 0 1 1 1.78c-.2.89-.95 1.4-1.67 1.25-.72-.16-1.22-.86-1-1.85.22-.99 1-1.33 1.67-1.18Zm5.78 25.99a1.22 1.22 0 0 1 1 1.4 1.22 1.22 0 0 1-1.03.92c-.17.03-.33.02-.49-.03-.68-.15-1.19-.7-1.02-1.46.17-.74.9-.97 1.53-.83Zm35.89 24.11c.87.2 1.56 1.17 1.3 2.37-.27 1.2-1.26 1.89-2.2 1.68-.96-.21-1.62-1.15-1.33-2.47.3-1.32 1.35-1.78 2.22-1.58ZM55.38 91.51a2.36 2.36 0 0 1 1.7 2.88c-.32 1.43-1.57 2.25-2.79 1.98s-2.09-1.4-1.73-3a2.3 2.3 0 0 1 2.82-1.86Zm103.63-36.83c1.23.27 2.08 1.31 1.8 2.54a2.21 2.21 0 0 1-1.85 1.68c-.3.04-.6.02-.88-.05-1.23-.28-2.14-1.29-1.83-2.65.3-1.36 1.53-1.8 2.76-1.52Zm-115.23-3.9c1.23.27 2.08 1.31 1.8 2.55a2.23 2.23 0 0 1-2.73 1.62c-1.23-.27-2.14-1.28-1.84-2.64.3-1.37 1.54-1.8 2.77-1.53Zm190.62 3.73a2.38 2.38 0 0 1 1.72 2.92c-.33 1.46-1.6 2.3-2.82 2.02-1.22-.28-2.1-1.43-1.74-3.04a2.33 2.33 0 0 1 2.84-1.9Zm64.43 93.09c1.35.3 2.46 1.57 2.13 3.03a2.64 2.64 0 0 1-3.23 1.94c-1.46-.33-2.53-1.53-2.17-3.14.37-1.62 1.93-2.12 3.27-1.82ZM111.8 43.92a1.22 1.22 0 0 1 1.01 1.4 1.23 1.23 0 0 1-1.51.88c-.69-.15-1.19-.7-1.02-1.45.16-.74.9-.97 1.53-.83Z"/>
    <path fill="#D0B34C"
          d="m252.63 91-6.27 3.4 3.33-5.25-3.93-4.1 5.26 1.71 3.23-3.59-.33 4.3 6.2-1.22-4.16 3.41-.98 8.21-2.35-6.88ZM160.4 80.05l6.02-3.83-2.95 5.46 4.2 3.82-5.36-1.35-2.97 3.8.02-4.3-6.08 1.65 3.9-3.7.4-8.25 2.82 6.7Zm-71.13-3.18.56-7.1 2.6 5.64L98 74.36l-4.3 3.47 1.26 4.66-3.44-2.62-2.33 5.85-.61-5.33-6.36-5.3 7.05 1.78ZM8.55 81.71 14 82.93l4.03-4.05-.55 5.06 1.82 7.48-4.91-5.44-4.23 3.25 1.3-5.17-2.9-2.35Zm258 49.85 5.4 1.2 4.03-3.88-.63 5 1.95 7.37-4.92-5.37-4.18 3.18 1.32-5.1-2.97-2.4ZM287.58 173l3.03 3.33 2.5-1.99-.8 3.07 1.9 1.57-3.41-.76-2.42 2.4.39-3.1-1.19-4.52Zm-213-138 3.03 3.33 2.5-1.99-.8 3.07 1.9 1.57-3.41-.76-2.42 2.39.39-3.1L74.58 35Zm112 1 3.03 3.33 2.5-1.99-.8 3.07 1.9 1.57-3.42-.76-2.41 2.39.38-3.1-1.18-4.51Z"/>
</svg>
