<svg xmlns="http://www.w3.org/2000/svg" width="1057.76" height="249.88">
    <defs>
        <linearGradient id="a" x1=".78" x2="1.55" y1="-.15" y2=".5">
            <stop offset="0" stop-color="#d0b34c"/>
            <stop offset="1" stop-color="#fff"/>
        </linearGradient>
        <linearGradient id="b" x2=".92" y1=".99" y2=".12">
            <stop offset="0" stop-color="#fff"/>
            <stop offset=".61" stop-color="#d8bf69"/>
            <stop offset="1" stop-color="#d0b34c"/>
        </linearGradient>
        <linearGradient id="c" x1=".46" x2=".56" y1=".07" y2=".89">
            <stop offset="0" stop-color="#fff"/>
            <stop offset="1" stop-color="#d0b34c"/>
        </linearGradient>
    </defs>
    <g>
        <g fill="url(#a)" transform="translate(125.85 73.52)">
            <path d="m29.27 1.9-4.9 11.54-4.76-1.1a42.2 42.2 0 0 1 3-3.5 74.36 74.36 0 0 0 4.43-4.6 24.81 24.81 0 0 1 2.23-2.34Z"/>
            <path d="M32.47 0c.9-.13 2.37 2.22 4.15 4.6 2.13 2.84 4.47 5.96 4.77 6.43.46.77-1.56 3.08-1.56 3.08L29.42 6.37s2.11-4.53 3.05-6.36Z"/>
            <path d="m29.12 7.4 10.25 7.67-.99 1.44-9.76-7.35c-.51-.38.5-1.76.5-1.76Z"/>
            <path d="m27.88 9.9 9.87 7.67-1.69 2.92-6.83-.04c-.21-.01-.63-.9-1.2-1.99a66.38 66.38 0 0 1-1.97-3.93C25.9 14 27.88 9.9 27.88 9.9Z"/>
            <path d="M43.05 13.23s1.18 1.44 1.14 1.84l-.92 7.5-4.82 2.73-1.03 3.02-.11-6.26c0-.4 5.74-8.83 5.74-8.83Z"/>
            <path d="m29.4 22.05 5.91.05-.36 15.5-6.13-4.12s.37-10.99.58-11.43Z"/>
            <path d="M28.75 34.66c.48.2 6 3.96 6 3.96l-.12 2.06a41.47 41.47 0 0 1-5.89-4.11Z"/>
            <path d="M18.92 14.27s4.96.54 5.42 1.33 3.52 5.98 3.52 6.23-.75 16.22-.75 16.22c-.12-.19-.47-.5-.87-1.01s-.78-1.2-1.34-1.92a35.05 35.05 0 0 0-3.04-3.45 26.97 26.97 0 0 0-2.67-.95Z"/>
            <path d="M22.3 34.38a52.8 52.8 0 0 1 3.9 5.28c.1 1.01.09 2.7.09 2.7a9.56 9.56 0 0 1-1.68-1.13 9.22 9.22 0 0 1-1.88-1.57c-.17-.48-.43-5.28-.43-5.28Z"/>
            <path d="m17.59 32.22 2.95.55s.82 6.24.6 6.7a14.91 14.91 0 0 1-2.1 2s-3.95-.91-4.3-1.45 1.87-5.73 2.85-7.8Z"/>
            <path d="m29.5 60.64 1.83.53s-.54 4.97-.76 5.43-3.12-3.7-3.12-3.7Z"/>
            <path d="m23.87 63.67 2.48-.42s2.97 3.75 2.76 4.2-3.78 2.58-3.78 2.58Z"/>
            <path d="M40.38 25.88a62.9 62.9 0 0 1 5.85-2.87 12.96 12.96 0 0 1 3.17-1.23c.36.29-.81 6.54-1.1 8.03 0 0-3.5 1.17-4.18.92s-3.74-4.85-3.74-4.85Z"/>
            <path d="M50.79 23.05c.59.87 1.9 3.38 2.86 5.27a18.26 18.26 0 0 1 1 2.05c.04.63-2.8 1.5-3.2 1.77 0 0-1.58-1.44-1.55-1.83 0-.17.24-1.5.44-3.07.25-1.88.3-2.85.45-4.19Z"/>
            <path d="M11.95 20.87s5.54 8.27 5.6 9.62c-1.34-.15-1.73 1.49-2 2.02l-3.74-5.42Z"/>
            <path d="m4.23 17.22 3.08 1.13a18.92 18.92 0 0 1 2.95 1.1c.29.24.14 1.58.1 3.08a18.9 18.9 0 0 1-.31 4 11.44 11.44 0 0 1-2.19 1.75c-1.25.83-2.18 1.69-2.61 1.69-.84 0-4.26-2.34-4.26-2.34s.77-3.08 1.58-5.68a33.04 33.04 0 0 1 1.66-4.73Z"/>
            <path d="M1.66 29.97a22.77 22.77 0 0 1 2.89 1.69c.5.48 3.56 8.24 3.56 8.24l-1.21-.2Z"/>
            <path d="m6.17 31.62 4.76-3.64c.52.68 1.24 2 2.4 3.81.83 1.27 1.7 2.38 1.7 2.48a24.03 24.03 0 0 1-1.04 2.65l-6.41-2.05s-.84-1.83-1.41-3.25Z"/>
            <path d="m8.1 35.93 5.61 1.83a26.73 26.73 0 0 0-.69 2.74c0 .16.24 1.27.42 2.5.2 1.29.34 2.7.34 2.7a35.52 35.52 0 0 1-3.25-4.58 39.77 39.77 0 0 1-2.44-5.19Z"/>
            <path d="m39.3 27.22 3.75 4.63s-5.27 24.13-8.01 35.4l-3.21-1.19s4.9-27.7 7.46-38.84Z"/>
            <path d="M44.39 32.51c.2-.35 3.1-1 4.17-1.36l2.04 2.39c.09.65-1.98 8.33-1.98 8.33s-4.89-5.14-5.03-5.4a17.17 17.17 0 0 1 .8-3.96Z"/>
            <path d="m43.43 37.65 3.2 3.49A20.36 20.36 0 0 1 48.3 43a8 8 0 0 1-.46 2.05l-4.9-4.98Z"/>
            <path d="M42.66 41.27a46.13 46.13 0 0 1 4.86 5.02c-.09.52-1.9 7.42-1.9 7.42l-4.86-4.24c.36-1.82 1.9-8.2 1.9-8.2Z"/>
            <path d="m40.47 50.59 2.15 1.8a20.66 20.66 0 0 1 2.64 2.5 13.87 13.87 0 0 1-.38 1.77c-.38 1.58-1.48 5.66-1.48 5.66l-5.56.37Z"/>
            <path d="M52.12 33.65a17.29 17.29 0 0 1 2.52-1.12s-1.3 4.2-2.7 9.4c-2.03 7.55-5.4 20.45-5.68 20.76a3.76 3.76 0 0 1-1.83.7s7.48-29.49 7.69-29.74Z"/>
            <path d="M53.22 43.23a53.92 53.92 0 0 1 5.86-2.44l.9 2.67a24.28 24.28 0 0 1-4.1 2.69 17 17 0 0 1-2.82-1.79Z"/>
            <path d="M52.73 45.72s.45.43.98.9c.45.4.95.71 1.03 1 .07.23-.9 2.77-1.77 5.51-.87 2.73-2.64 9.52-2.64 9.52l-1.79-.07Z"/>
            <path d="M56.14 48.61c.35-1.15 3.6-2.82 4.5-3.46a13.72 13.72 0 0 1 .52 2.6c-.08.45-3.22 6.07-3.22 6.07l-2.33-3.69a15.53 15.53 0 0 0 .53-1.52Z"/>
            <path d="M55.23 51.35c.43.66.86 1.43 1.3 2.06.39.54.74 1 .72 1.25a21.3 21.3 0 0 1-2.34 4.26l-2.06-.07Z"/>
            <path d="M52.65 59.62h1.85l-1.85 3.03-1.35.36Z"/>
            <path d="M28.78 38.2s4.69 3.26 5.72 3.68a160.91 160.91 0 0 1-3.04 17.22l-1.17.17c-1.54-9.36-1.57-11.05-1.57-11.05Z"/>
            <path d="m22.03 41 4.99 3.58s.46 4.54.6 6.89c-2.1-.64-5.11-2.2-6.84-2.63a38.98 38.98 0 0 1-1.12-5.96Z"/>
            <path d="M21.1 50.14s4.31 1.7 6.75 2.59l.25 2.91-3.18-1.14a18.16 18.16 0 0 1-3.26-1.3 12.43 12.43 0 0 1-.56-3.06Z"/>
            <path d="m21.83 54.29 6.39 2.46c.31 1.4.29 2.3.57 3.22l-2.25 2.05-2.95.28Z"/>
            <path d="M14.4 41.52c1.45.64 3.6 1.14 3.98 1.68a23.37 23.37 0 0 1 .84 3.94c.7 4.42 4.87 24.56 5.55 27.69 0 0-3.22-.33-4.25-.98-.95-4.48-4.3-21.38-4.83-24.43-.25-1.49-.43-3.32-.64-4.62-.2-1.34-.43-2.11-.65-3.28Z"/>
            <path d="M9.5 42.3c.31.07 1.27 1.72 2.46 3.4 1.07 1.53 2.24 3.04 2.24 3.04s.25 1.87.45 2.9c-.42-.12-4.97-7.07-5.08-7.48a7.07 7.07 0 0 1-.07-1.86Z"/>
            <path d="m2.9 41.02 4.9.82-.1 2.38-1.9.04c-.9-.9-2.9-3.24-2.9-3.24Z"/>
            <path d="M1.16 41.35s3.65 3.95 3.64 4.18-1.22 2.85-1.22 2.85H0Z"/>
            <path d="M6.05 45.85a3.14 3.14 0 0 1 2.09-.47c.53.12 4.77 6.6 4.77 6.6l-6.74-.3a12.5 12.5 0 0 1-1.47-2.4 14.5 14.5 0 0 1 1.35-3.43Z"/>
            <path d="M6.73 52.56s4.79.33 6.82.41l1.27 1.08s1.15 4.94 1.47 6.87a19.25 19.25 0 0 0-2.74.81Z"/>
            <path d="M.1 49.79a27.84 27.84 0 0 1 3.42.04c.16.06 1.54 2.1 3.22 4.55 2.35 3.42 6.11 8.16 6.11 8.16s-1.88-.52-2.23-.65c-.18-.07-2.89-3.1-5.51-6.15-2.54-2.96-5-5.95-5-5.95Z"/>
            <path d="M14.08 62.42a17.71 17.71 0 0 1 2.42-.62l.89 3.87-.89-.34Z"/>
        </g>
        <path fill="#fff"
              d="m65.32 123.85 5.05-1.21c-1.05 12.11-1.14 18.87-1.97 25.51l-3.28.44c-1.19-7.88-1.37-11.03.2-24.74Z"/>
        <path fill="url(#b)"
              d="M-378.57-27.78c.81-.04 3.35-.81 3.08 1.15a6.1 6.1 0 0 1-1.16 2.09c-1.27 1.8-2.42 2.9-2.97 4.63a49.4 49.4 0 0 0-3.63 8.48c-1.38 4.2-2.42 7.35-2.65 7.92-1.2 3.04-5.55 11.52-6.85 16.38 2.22 2 1.79 4.42 2.01 7.51.35 4.86 5.15 8.75 5.32 13.16s-4.08 8.38-4.05 14.18a6.17 6.17 0 0 0 1.28 3.57c.6.81 1.16 1.3.6 1.77-.34.28-1.83-.56-2.74-2.37a6.86 6.86 0 0 1-.63-3.38 22.67 22.67 0 0 1 2-7.04 24.9 24.9 0 0 0 1.94-5.45c.26-1.74-.44-3.6-1.53-5.58-1.3-2.36-3.13-4.88-3.87-7.5-.27-1.02.06-3.13-.66-5.27-.52-1.56-1.78-2.86-3.73-5.18-.92 5.8 1.85 10.67 2.93 14.49 2.92-.52 1.9 3.23 2.04 4.72 1.89 2.82.83 6.65-.18 9.77a16.34 16.34 0 0 0-1.06 3.8c-.02 1.43.85 3.14 1.8 5.37s.27 5.11-.82 4.47c-.58-.39.37-1.08-.27-3.22a12.44 12.44 0 0 0-1.15-2.52 7.66 7.66 0 0 1-1.25-3.86c-.08-3.19 2.89-7.24 1.77-10.92a52.03 52.03 0 0 1-2.62 5.62 19.49 19.49 0 0 0-2.18 7.88c-.1 7.77 11.72 12.7 10.82 19.15-.8 5.67-6.6 5.5-10.18 7.75-2.14 1.33-2.36 3.89-4.76 5.36a130.06 130.06 0 0 0-2.24 24.32l-1.5.43a230.27 230.27 0 0 1 1.85-25.35 24.52 24.52 0 0 1-4.5 1.37c-1.57 10.79-.88 18.25-.55 24.41l-1.52-.84a125.6 125.6 0 0 1 .2-23.26 59.73 59.73 0 0 0-9.35 1.65 45.36 45.36 0 0 0-5.28 1.64 21.13 21.13 0 0 0-2.26 1.22c-2.37 1.36-3.96.97-4.4-.28-.34-.97.13-2.58 1.88-4.12 1.03-.9 2.6-1.7 4.35-3.08.47-.37.98-.86 1.53-1.4 2.1-1.98 5.05-1.58 5.84-.82a82.08 82.08 0 0 0 7.12-3.77c-1.43-1.03-2.85-2.15-2.87-2.89 0-.82.88-1.78.71-4.58a33.73 33.73 0 0 0-2.05-8.07 11.01 11.01 0 0 0-2.45 4.94c-.7 2.79-.66 6.17-3.29 5.73-3.26 3.83-4.44 4.42-5 4.04-1.13-.9 1.09-5.6 2.95-7.57 2.95-7.07 7.29-17.43 9.85-26.5-5.27-.08-3.42 6.45-3.83 8.38-.42 1.92-2.4 6.42-2.4 7.23-2.59 1.52.25-4.94.6-6.62.25-3.27-.34-4.76.25-6.41-2.83 1.64-2.8 4.03-2.54 6.58.19 1.84.74 3.42-.32 5.59-2.06 4.22-5.9 6.9-7.43 11.87-1.13.3-.95-1.64.12-3.95a25.3 25.3 0 0 1 2.92-4.52 15.94 15.94 0 0 0 2.4-3.66 7.4 7.4 0 0 0 .35-5.57c-4.06 12.23-4.03 6.83-7.33 6.77a5.14 5.14 0 0 0-3.17 1.33 12.55 12.55 0 0 1-1.3 2.24c-2.26 3.13-3.48-.9-6.99.85-4.65 2.3-7.16 7.13-11.7 8.6-6.27 1.9-13.9-2.35-12.06-7.07 2.5-2.32 5.1-3.27 10.14-6.42a35.05 35.05 0 0 0 3.4-2.6c4.28-3.36 9.2-8.16 15.59-10.31-15.3-.74-19.56-12.6-20.52-13.44a4.94 4.94 0 0 0-1.51-.85c-.77-.28-1.7-.5-2.47-.86-.89-.41-1.2-1.01-1.15-1.53.09-.87 2.54-4.52.8-8.28a4.98 4.98 0 0 0-1.54-1.78 11.54 11.54 0 0 0-3.25-1.7c-1.53-.55-2.98-.94-3.33-2.04-.67-2.14 6.26-6.63 1.95-12.95-.95-3.52-9.86-10.03-5.69-10.38 1.02-.08 1.63.73 3.53 1.74C-455.6-6-450.28-1.05-448.42.71a8.09 8.09 0 0 0-1.93-3c-.55-.57-1.13-.94-1.13-1.34.02-1.54 1.17-.75 1.37-5.24s-4.42-10.87-4.42-12.85c0-.47.2-1.78 6.89 2.41a29.6 29.6 0 0 1 10.75 9.48c3.83 5.29 6.42 12.57 9.08 19.91a85.68 85.68 0 0 0 6.92 15.58c-.78-7.14 2.4-8.77 3.24-12.54.57-2.6.25-3.15.09-6.64s4.93-6.34 5.7-9.22c.26-.97 1.58-2.08 3.3-2.5 2.23-.53 5.07 0 5.07 3 1.32.87 3.28.76 4.59 1.48 1.4.78.23 1.7 1.5 2.34 1.05.52 1.29.88 1.44 1.14a185.5 185.5 0 0 0 6.94-13.61c1.03-2.25 2-4.64 3-7 1.75-4.02 2.09-5.03 2.42-6.78.17-.88.26-1.45.44-2.31a20.6 20.6 0 0 1 1.52-4.78c1-1.96 1.63-2.4 2.82-2.28 1.04.11 1.35 1.24.25 6.26Z"
              transform="translate(474.02 44.26)"/>
        <path fill="#fff"
              d="M23.14 25.98c2.3 1.58 7.17 5.66 10.78 15.14s4.7 16.26 10.1 25.68c-4.06-3.11-10.57-13.57-15.65-18.74-1.09-3.58-1.5-6.17-3.94-8.1 1.67-3.3 2.17-6.12-1.29-13.98Z"/>
        <path fill="#fff"
              d="M7.23 36.26c3.29 2.52 5.35 3.95 10.48 10.3 1.93 2.4 4.26 5.65 7.44 9.86 11.43 15.17 18.48 20.3 28.81 22.13-7.88 1.84-18.64 3.92-25.94-.03a17.28 17.28 0 0 1-5.53-4.77c-.95-1.24-1.64-2.54-2.49-3.72a9.04 9.04 0 0 0-6.17-4.08c3.04-6.1 1.87-11.28-7.39-14.28 1.06-1.5 6.45-7.6.79-15.41Z"/>
        <path fill="#fff"
              d="M10.14 102.94c10.33-1.16 20.58-7.64 29.46-13.26 5.77-3.64 10.97-6.89 15.16-8.17-4.78 4.13-7.08 12.6-7.6 14.19a6.7 6.7 0 0 0-9.41 3.67c-2.67-1.28-5.32-.45-7.62 1.08-3.85 2.57-7.17 7.3-11.53 7.87-3.9.45-8.7-2.55-8.46-5.38Z"/>
        <path fill="#fff"
              d="M54.47 120.13c1.42-.06 1.56 1.38 2.34 1.4s.4-.88.4-.88l8.13-3.93c1.2 1 4.67 1 4.36 4.1-4.6 2.31-13.2 2.46-18.22 4.77-1.79-.45-7.36 4.5-7.75 2.68s8.01-8 10.74-8.14Z"/>
        <path fill="#fff"
              d="M90.56 23.82c1.6-2.63 1.42-10.58 4.29-12.35-1.41 6.67-.31 6.71 2.35 5.86-3.93 5.07-7.28 13.69-9.7 21.46a55.74 55.74 0 0 1-3.34 7.77 76.89 76.89 0 0 0-4.14 9.8c-5.03-4.16.53-5.83-1.2-8.67a138.48 138.48 0 0 0 11.74-23.87Z"/>
        <path fill="#fff"
              d="M66.58 55.61s1.5.08 3 .08c1.5 13.13-6.24 7.22-7.13 21l-1.55-.52c.96-2.24 0-6.14 1.19-8.52.56-1.11 1.7-2.17 2.49-4.2.85-2.27 1.24-5.46 2-7.84Z"/>
        <path fill="#fff"
              d="M54.54 71.87c.7-3.21-.23-5.52.17-7.41A15.04 15.04 0 0 1 57 60a7.57 7.57 0 0 0 1.17-2.86 10.08 10.08 0 0 0 0-2.13 15.15 15.15 0 0 1 .45-6.26 6.05 6.05 0 0 1 1.46-2.34c.33-.36.74-.65 1.15-1.06a11.71 11.71 0 0 0 1.37-1.94c1.03-1.8 2.94-4.81 5.84-2.93-2.9.42-3.33 3.15-4.78 4.87s-3.14 2.04-3.4 5.33a19.91 19.91 0 0 0 .05 3.7 13.31 13.31 0 0 1 .1 5.07c-.8 3.22-2.8 5.37-3.57 7.9s-.4 4.5-.03 4.5c.75 0-.18-1.56 1.02-4.5s2.64-3.51 4.03-6.94-.67-7.34-.12-10.62c.41-2.48 2.47-2.56 3.64-5.02 1.13-2.18 2.23-3.13 2.85-3.13.02.81-.07 1.6-.07 2.31a32.87 32.87 0 0 1-.13 3.7 6.34 6.34 0 0 1-1.49 3.62s-7.53-1.61-.95 4a4.05 4.05 0 0 0-1.16 2.09c-.49 1.84-.29 2.92-.92 4.96a6.19 6.19 0 0 1-.96 1.86 11.53 11.53 0 0 0-1.4 3.18c-.97 3.19-.62 5.22-1.21 8.22-1.38-.18-4.24-2.53-5.39-3.72Z"/>
        <path fill="#fff"
              d="M69.6 42.8c1.88.53 2.9 1.3 4.67 1.43a.61.61 0 0 1 .32.2.65.65 0 0 1 .14.47 2.14 2.14 0 0 0 .08.66 1.9 1.9 0 0 0 .74.81c.34.3.85.71 1.2 1.04a2.42 2.42 0 0 1 1.01 1.66c0 1.55-2.32 2.42-2.2 8.55.23 6.12 2.73 11.12 3.13 12.93-.6.04-.76.35-1.34.48a2.86 2.86 0 0 0-2.3.25 2.07 2.07 0 0 0-3.3.8s-1.36-1.47-1.8-.6a11.32 11.32 0 0 1-.96 3.89c-.3.49-2.67 5.17-5.13 11-1.43 3.4-2.55 6.4-3.92 9.2-2.6 5.27-5.15 8.95-5.4 14.08-2.75-.74-3.77 3.77-5.46 4 4.96-9.94 8.6-19.3 10.5-24.06 1.24-3.1 1.26-2.46 2.03-4.86 1.9-5.99 2.43-11.63 4.25-16.4.62-.91 7.7-4.69 4.3-13.39-2.55-.11-4.89-.45-5.7-2.66 1.54.18 5.99 1.52 5.13-9.48Z"/>
        <g fill="url(#c)" transform="translate(12.12 41.55)">
            <path d="M258.3.17a27.07 27.07 0 0 1 8.59.4c17.91 33.84 16.25 65.4 16.25 65.4s-8.8-2.94-11.98-1.97-8.42 7.9-11.15 12.02-7.81 21.33-7.83 27.13c-1.81 3.31-24.98 14.42-29.87 14.42-4.46.03-25-5.4-33.28-7.75a11.6 11.6 0 0 0-3.4-.65c-11.57-.27-38.94 32-38.94 32l-3.66 5.83c-.29.48-9.66 6.99-18.45 9.69-1.2-1.08-18.59-3.58-21.02-4.02s-4.6-.95-5.54-1.2c-1.62-.44-3.82-.68-12.23.56-12.9 1.9-41.92 10.09-41.92 10.09l-7.59-.21-4.64-5.4s11.27-15.94 13.52-17.91 9.96-5.8 13.06-6.72c2.95.97 34.11 3.97 40.3 4.97.2.16 4.87 2.53 13.1-10.78.33-1.06 8.53-11.55 10.41-14.4a313.13 313.13 0 0 1 29.04-17.97s27.93.63 30.3-.74 14.47-11.84 18.57-17.94 10.97-16.7 10.97-16.7 7.7-22.37 7.8-23.23 5.7-7.67 8.24-8.95 12.64-3.94 14.74-5.55 5.35-6.43 5.35-6.43l3.14-10.09s6.35-2.34 8.12-3.9Z"/>
            <path d="M0 77.55s15.38 4.67 19.58 5.58c1.1.16 5.3 3.48 9.36 6.88 3.74 3.14 7.37 6.34 8.21 7.12 1.74 1.59 15.9 9.9 15.9 9.9s-6.82 1.1-13.4 1.53c-5.09-3.13-13.67-9.64-17.31-11.8S6.6 87.64.67 84.32Z"/>
            <path d="M71.87 97.82s9-2.3 18.75-4.53c3.73-.85 7.6-1.75 11.16-2.49 1.61-.33 3.1-.52 4.62-.86 4.06-.9 7.18-1.64 8.67-1.9l2.04-.1s12.3 7.55 15.88 10.68c-3.32 2.32-12.85 8.19-14.82 10.13 0 0-3.99-5.48-4.46-5.8s-13.97-4.73-14.55-4.73-14.29 3.6-17.56 4.4-25.37 4-25.37 4Z"/>
            <path d="m1.7 90.47 8.8 4.96c1.64.92 3.3 1.9 5.14 2.96 1.56.9 3.93 2.25 4.82 2.85 8.35 5.47 15.4 11.5 18.42 12.05 2.25.42 18.85-1.94 31.07-3.84 7.3-1.13 13.11-2.17 13.11-2.17l16.01-4.16 11.72 3.8 4.55 6-5.36 7c-1.34-.92-4.99-3.59-8.06-5.87-2.55-1.9-4.62-3.51-5.36-3.56-.72-.05-8.56 1.17-17.03 2.43-10.34 1.55-21.6 3.2-21.6 3.2s-12 4.37-20.65 7.16c-1.7-.47-14.99-6.24-14.99-6.24l-14.7-3.31C3.74 101.99 2.5 95.78 1.71 90.47Z"/>
            <path d="m9.66 119.1 11.18 2.58s14.45 6.5 16.37 6.46 21.76-7.3 21.76-7.3l36.63-5.43 11.74 8.55a26.37 26.37 0 0 1-7.4 8.3c-3.51-.78-35.37-4.03-39.83-4.84a3.24 3.24 0 0 0-1.77-.35 17.98 17.98 0 0 0-5.61 1.82A67.78 67.78 0 0 0 41.97 135c-2.12 1.69-13.43 17.62-13.43 17.62C15.07 134.75 9.66 119.1 9.66 119.1Z"/>
            <path d="m204.91 174.8 29.2-7.73 4.88 2.23s-35.07 38.24-95.09 39.03c9.15-4.4 24.45-7.1 33.31-8.75a167 167 0 0 0 6.3-1.25c2.87-.62 11.57-9.6 13.94-11.53Z"/>
            <path d="M59.6 162.83s26.7-7.11 35.1-7c1.96 0 2.95.56 4.4.83 12.2 2.32 22.76 3.58 23.04 4.22 1.85 1.6 7.28-.53 12.76-3.36 5.96-3.06 11.96-7 12.65-8.95 1.33-3.73 29.68-34.75 37.47-34.5 2.21.07 5.35.93 9.09 1.92 9.23 2.45 21.58 6.44 28.6 6.35 4-.05 10-2.69 16.03-5.54a104.23 104.23 0 0 0 13.17-7.04c2.7-1.84 4.32-3.67 4.6-4.93.22-.97.44-2.81.86-4.72.6-2.72 1.5-5.88 2.37-9.17a118.01 118.01 0 0 1 3.55-11.3c.52-1.26 2.6-3.63 4.34-5.7 1.98-2.37 3.65-4.83 4.61-5.2 1.77-.66 10.75 2.58 10.75 2.58s.03 33.62-17.66 63.74c-11.2-6.02-35.95-.81-35.95-.81-1.68.43-3.68 3.06-5.7 5.95-2.25 3.24-4.5 6.83-5.9 7.93-.63.5-2.37.08-4.75-.7a44.93 44.93 0 0 1-4.88-1.98 37.84 37.84 0 0 1-4.33-2.32 39.84 39.84 0 0 1-3.3-2.46c-1.7-1.36-3.36-2.75-4.87-3.91a20.5 20.5 0 0 0-3.04-2.07 4.84 4.84 0 0 0-1.93-.54c-2.1-.06-6.18 1.98-10.23 4.33-2.42 1.4-4.88 2.84-6.84 4.15a32.01 32.01 0 0 0-3.72 2.82c-1.62 1.58-18.55 23.9-21.43 29.05s-39 5.59-49.2 5.54A182.22 182.22 0 0 1 86 172.47c-2.46-1.52-4.7-2.86-6.6-4.07-2.78-1.78-4.75-3.15-5.59-3.53-2.23-1.01-14.21-2.04-14.21-2.04Z"/>
            <path d="M41.05 166.86c7.12.14 27.63 1.03 30.57 2.26 1.23.5 5.25 3.3 10.04 6.3 2.1 1.31 4.38 2.67 6.57 3.97 4.65 2.77 8.88 5.11 10.57 5.44 1.85.06 10.15.02 19.78-.34a162.42 162.42 0 0 0 20.9-2c7.17-1.26 12.06-2.63 13.65-6.5 6.38-10.54 18-24.85 20.27-27.27a24.46 24.46 0 0 1 3.68-2.63c4.81-3.08 12.51-7.21 13.3-7.1a41.55 41.55 0 0 1 4.42 3.18c2.34 1.87 4.91 4.07 6.75 5.22a49.28 49.28 0 0 0 6.2 3.14c3.2 1.37 6.86 2.58 9.7 2.58a5.27 5.27 0 0 0 3.2-1.07 22.39 22.39 0 0 0 4.26-5.18c2.02-2.94 4.01-6.21 5.88-7.9 7.95-1.98 18.77-1.93 18.77-1.93-.72.7-16.29 1.31-18.93 3.38-.84.65-1.97 2.52-3.5 4.97-2.3 3.7-5.2 8.4-5.98 9.5a32.18 32.18 0 0 1-6.9-.55c-3.91-.63-8.46-1.65-12.14-2.53-4.6-1.12-4.83-1.46-6.62-1.55-2.84-.14-9.45 2.84-11.3 4.69-5.36 8.94-10.12 21.1-13.45 28.12-19.35 5.63-56.2 12.55-56.2 12.55s-10.11-3.5-16.02-6.3c-6.66-4.26-21.45-13.38-23.84-14.1-1.74-.53-23.42-4.7-31.8-6.5a22.41 22.41 0 0 1-1.83-1.85Z"/>
            <path d="m50.1 175.08 23.16 4.67c1.67.73 6.22 3.4 11.27 6.47 3.5 2.13 7.83 4.8 10.83 6.76a89 89 0 0 0 10.16 4.42c1.78.7 3.51 1.33 5 1.88a21.86 21.86 0 0 0 3.82 1.24c.4 0 5.61-1.04 12.8-2.5 6.24-1.26 14-2.9 21.47-4.54 12.8-2.8 24.53-5.5 25.8-7.06.7-.85.53-1.2 1.56-3.37 3.4-7.5 11-24.18 11.79-24.89 1.22-1.08 6.21-3.2 7.68-3.13.6.02 4.43 1.22 9.23 2.3 6.92 1.56 15.74 3.08 18.3 2.06 1.9-.75 2.22-2.07 3.64-4.1 2.65-4.1 5.74-9.32 6.93-11.07 3.48-.93 7.57-1.15 12.04-1.7 5.96-.73 9.51-1.59 12-.92a4.3 4.3 0 0 0 3.02 1.5 144.65 144.65 0 0 1-17.9 22.6s-2.06-.95-4.22-1.93a26.73 26.73 0 0 0-4-1.65c-.34-.03-3.35.77-7.47 1.85-3.35.89-7.49 1.96-11.42 3.02-6.84 1.84-13.11 3.48-13.61 3.76-.44.24-1.62 2.17-3.03 4.49-2.13 3.46-4.7 7.83-5.21 8.34a103.2 103.2 0 0 1-5.9 5.55 50.08 50.08 0 0 1-5.63 4.7c-5.47 1.1-25.9 4.84-31.33 6.75a337.42 337.42 0 0 0-19.46 7.48c-50.23-3.15-81.31-32.98-81.31-32.98Z"/>
        </g>
        <g fill="#8a5414">
            <path d="M292.05 17.85c.52 0 .87.35.87 1a.93.93 0 0 1-.87 1.04c-.47 0-.89-.33-.89-1.04s.37-1 .9-1Z"/>
            <path d="M250.53 24.04a1.2 1.2 0 0 1 1.16 1.23 1.21 1.21 0 0 1-1.16 1.29 1.19 1.19 0 0 1-1.19-1.29 1.16 1.16 0 0 1 1.19-1.23Z"/>
            <path d="M268.16 38.62a.6.6 0 0 1 .58.65.61.61 0 0 1-.58.69.6.6 0 0 1-.59-.69.6.6 0 0 1 .6-.65Z"/>
            <path d="M204.89 17.44a1.2 1.2 0 0 1 1.17 1.25 1.23 1.23 0 0 1-1.17 1.3 1.2 1.2 0 0 1-1.2-1.3 1.17 1.17 0 0 1 1.2-1.25Z"/>
            <path d="M212.11 24.57a.7.7 0 0 1 .69.76.73.73 0 0 1-.69.79.72.72 0 0 1-.7-.8.69.69 0 0 1 .7-.75Z"/>
            <path d="M249.51 57.43a1.28 1.28 0 0 1 1.36 1.25 1.31 1.31 0 0 1-1.36 1.3 1.3 1.3 0 0 1-1.38-1.3 1.26 1.26 0 0 1 1.38-1.25Z"/>
            <path d="M64.6 14.39a1.28 1.28 0 0 1 1.36 1.25 1.31 1.31 0 0 1-1.35 1.3 1.3 1.3 0 0 1-1.39-1.3 1.26 1.26 0 0 1 1.39-1.25Z"/>
            <path d="M215.18 40.45a.76.76 0 0 1 .7.8.78.78 0 0 1-.7.85.76.76 0 0 1-.72-.84.74.74 0 0 1 .72-.81Z"/>
            <path d="M225.7 51.32a.95.95 0 0 1 .9 1.01.97.97 0 0 1-.9 1.06.95.95 0 0 1-.9-1.06.93.93 0 0 1 .9-1.01Z"/>
            <path d="M201.72 72.28a.63.63 0 0 1 .57.69.65.65 0 0 1-.57.71c-.32 0-.59-.25-.59-.71a.61.61 0 0 1 .59-.69Z"/>
            <path d="M184.09 57.74a1.2 1.2 0 0 1 1.17 1.26 1.23 1.23 0 0 1-1.17 1.3 1.2 1.2 0 0 1-1.2-1.3 1.17 1.17 0 0 1 1.2-1.26Z"/>
            <path d="M176.04 25.97a1.1 1.1 0 0 1 1.14 1.05 1.11 1.11 0 0 1-1.14 1.1 1.08 1.08 0 0 1-1.18-1.1 1.07 1.07 0 0 1 1.18-1.05Z"/>
            <path d="M142.71 17.45a.73.73 0 0 1 .69.77.74.74 0 0 1-.69.8.72.72 0 0 1-.7-.8.7.7 0 0 1 .7-.77Z"/>
            <path d="M151.54 25.16a.62.62 0 0 1 .65.58.62.62 0 0 1-.65.61.61.61 0 0 1-.67-.6.6.6 0 0 1 .67-.59Z"/>
            <path d="M182.86 91.38a1.3 1.3 0 0 1 1.36 1.23 1.31 1.31 0 0 1-1.36 1.3 1.29 1.29 0 0 1-1.39-1.3 1.27 1.27 0 0 1 1.4-1.23Z"/>
            <path d="M156.28 44.55a.97.97 0 0 1 .9 1.03.99.99 0 0 1-.9 1.07.96.96 0 0 1-.92-1.07.94.94 0 0 1 .92-1.03Z"/>
            <path d="M93.56 93.13a.97.97 0 0 1 .9 1.03.99.99 0 0 1-.9 1.07.96.96 0 0 1-.92-1.07.94.94 0 0 1 .92-1.03Z"/>
            <path d="M148.85 73.89a.77.77 0 0 1 .71.82.78.78 0 0 1-.7.85.76.76 0 0 1-.73-.85.74.74 0 0 1 .72-.82Z"/>
            <path d="M132.24 65.4a.64.64 0 0 1 .6.68.65.65 0 0 1-.6.7.64.64 0 0 1-.61-.7.62.62 0 0 1 .61-.68Z"/>
            <path d="M138.5 50.78a1.2 1.2 0 0 1 1.17 1.23 1.22 1.22 0 0 1-1.16 1.29 1.19 1.19 0 0 1-1.19-1.29 1.17 1.17 0 0 1 1.19-1.23Z"/>
            <path d="M106.42 18.88a1.1 1.1 0 0 1 1.17 1.06 1.13 1.13 0 0 1-1.17 1.1 1.1 1.1 0 0 1-1.2-1.1 1.07 1.07 0 0 1 1.2-1.06Z"/>
            <path d="M51.2 24.67a1.1 1.1 0 0 1 1.17 1.06 1.13 1.13 0 0 1-1.17 1.1 1.1 1.1 0 0 1-1.2-1.1 1.07 1.07 0 0 1 1.2-1.06Z"/>
            <path d="M114.51 50.79a1.2 1.2 0 0 1 1.17 1.25 1.23 1.23 0 0 1-1.17 1.3 1.2 1.2 0 0 1-1.19-1.3 1.18 1.18 0 0 1 1.2-1.25Z"/>
            <path d="M113.45 84.24a1.32 1.32 0 0 1 1.38 1.26 1.33 1.33 0 0 1-1.38 1.31 1.31 1.31 0 0 1-1.42-1.31 1.3 1.3 0 0 1 1.42-1.26Z"/>
            <path d="M81.94 18.78a.62.62 0 0 1 .65.58.62.62 0 0 1-.65.6.61.61 0 0 1-.66-.6.6.6 0 0 1 .66-.58Z"/>
        </g>
        <g fill="#d0b34c">
            <path d="m274.22 5.4.23 2.72 3.68-1.34-2.15 2.5.2 5.25-2.12-4.04-3.66 2.84 1.54-3.68-2.85-2.2 3.44.49Z"/>
            <path d="m205.43 49.1-2.36-1.2-.89 3.86-.92-3.28-4.54-2.64 4.59.43-.44-4.6 2.25 3.31 3.38-1.24-2.3 2.58Z"/>
            <path d="m240.31 5.82 1.96-2.95-.2 3.14 2.74.87-2.75.45-.53 2.38-.93-1.94-2.4 1.98.97-2.46-1.53-3.88Z"/>
            <path d="m229.81 20.34 1.87 1.31 1-1.26-.05 1.6 1.1.57h-1.75l-.93 1.45-.15-1.57Z"/>
            <path d="M240.33 40.8 243 40l.8-2.72.98 2.36 2.7 2.76-3.5-1.14-1.05 2.44-.7-2.57Z"/>
            <path d="m133.73 31.86.63 2.66 3.51-1.8-1.88 2.8.87 5.2-2.65-3.76-3.33 3.35 1.18-3.93-3.18-1.86 3.56.14Z"/>
            <path d="m55.16 1.25 1.1 1.16L57.57.43l-.16 1.99 1.97 2.37-2.49-1.1-.76 2.7-.52-2.35-2.2.02 1.89-1Z"/>
            <path d="m108.79 95.36 1.84 2.02 2.2-3.29-.28 3.38 3.28 4.13-4.15-2.01-1.29 4.55-.87-4.01-3.68-.1 3.18-1.6Z"/>
            <path d="m175.9 37.5-2.72 2.38 1.06-2.96-2.39-1.6 2.79.27 1.2-2.13.3 2.17 2.93-1.3-1.67 2.15.42 4.17Z"/>
            <path d="m108.36 29.41 2.55-2.55-.85 3.02 2.5 1.42-2.8-.07-1.05 2.2-.46-2.13-2.82 1.5 1.51-2.26-.7-4.13Z"/>
            <path d="m68.37 30.02-.5-3.57 1.9 2.5 2.64-1.13L70.67 30l1.13 2.16-1.98-.92-.51 3.16-.9-2.57-3.72-1.92Z"/>
            <path d="M100.44 64.27h2.82l1.54-2.44.29 2.56 1.72 3.5-3.02-2.15-1.73 2.08.07-2.7Z"/>
            <path d="M173.56 72.9h2.79l1.56-2.36.24 2.54 1.78 3.42-3.02-2.1-1.71 2.03.09-2.66Z"/>
            <path d="m166.26 53.1 1.86 1.31 1.02-1.26-.05 1.6 1.1.57h-1.77l-.93 1.45-.15-1.57Z"/>
            <path d="M133.95 71.68 135.8 73l1.02-1.26-.06 1.6 1.11.57h-1.77l-.93 1.45-.15-1.57Z"/>
            <path d="m94.9 46.71 1.86 1.3 1.01-1.25-.05 1.6 1.1.57h-1.76l-.93 1.45-.15-1.57Z"/>
            <path d="m79.12 9.58 1.86 1.3L82 9.63l-.06 1.6 1.1.56h-1.76l-.93 1.46-.15-1.57Z"/>
        </g>
        <g fill="#d0b34c">
            <path d="M845.08 94.73c6.2 1.46 10.33 5.1 11.07 10.08a13.05 13.05 0 0 1-4.2 11.07c-8.73 8.5-18.99 5.72-19.11 3.4s8.45.64 16.44-5.41 4.75-14.38-6.74-16.29c-21.96-3.64-32.15 13.4-35.63 20.28-5.8 11.5-6.32 31.47 1.04 41.81s31.27 17.88 52.65-3.16l.1 2.76a42.03 42.03 0 0 1-31.8 14.04c-10.12-.22-16.53-2.3-22.59-7.28-14.28-11.74-12.39-35.44-6.67-48.02C813.4 87.7 841.1 93.8 845.08 94.73Z"/>
            <path d="M859.91 158.03c.12-3.68 2.42-9.8 9.72-9.8 6.48 0 5.21 3.41 4.79 4.3l-.9-.39c.37-.44.82-2.99-3.03-2.28-2.68.5-4.66 4.1-5.75 7.33-.72 2.1-1.02 4.1.16 4.2 2.3.21 7.1-4.63 7.35-7.45.09-.95.74-1.18 1.28-1.8l.89.39a1.98 1.98 0 0 1 1.32 2.1c-.24 1.37-4.2 18.69 1.53 18.69s12.83-14.02 14.78-18.92c.09-.2.36-1.28 1-1.23s.84.29.53 1.45c-.42 2.1-8.1 21.3-16.55 21.28-10.15-.04-6.29-17.06-6.3-17.06s-2.75 4.52-5.84 4.52-5.1-1.65-4.98-5.33Z"/>
            <path d="M894.83 148.38a4.33 4.33 0 0 1 3.34 3.19c.23.58-3.02 14.74 1.85 15.86s11.08-5.4 13.03-11.48l.2 2.92c-1.24 3.06-4.08 7.28-7.2 9.31s-8 3.02-11.22.13-3.66-6.71-3.07-12.36.48-8.13 3.07-7.56Z"/>
            <path d="M895.33 139.24a3.8 3.8 0 1 1-3.81 3.8 3.8 3.8 0 0 1 3.81-3.8Z"/>
            <path d="M921.95 89.7c11.46-26.07 20.98-24.8 24.38-21.4s2.23 12.79 2.23 12.79l-3.7 7.8s3.58-19.62-2.3-19.35c-2.1.1-4.99 2.54-8.48 7.89-6.16 9.42-14.64 31.67-15.76 61.22 15.05-17.14 20.97-32.49 20.97-32.49l-1.49 8.4s-8.33 16.05-19.6 27.8c-.4 2.54-.55 30.92 4.85 30.58s10.86-15.84 11.97-18.48l.4 4.42a63.62 63.62 0 0 1-5.6 11.33c-3.02 4.94-8.14 8.41-13.32 1.24s-3.82-23.73-3.82-23.73-.96.96-1.43.9-1.34-.77-1.06-1.45a14.12 14.12 0 0 1 2.49-2.47s0-33.87 9.27-55Z"/>
            <path d="M962.36 66.7c13.73-2.44 6.21 24.32 5.26 27.62a117.5 117.5 0 0 1-8.54 21.25 110.8 110.8 0 0 1-18.98 26.77l.13-3.3c26.26-27.7 32.01-65.29 26.01-69.48-6.5-4.55-23.46 23.82-26 69.48l-.14 3.3c-.66 12.5.42 30.7 4.94 30.57 4.55-.13 10.23-14.13 10.23-14.13l.53 4.16s-5 12.65-11.24 12.65-10.7-9.4-9.96-27.92c0 0-.82 1.01-1.42 1a1.31 1.31 0 0 1-1.1-1.53c.22-.69 2.52-2.47 2.52-2.47.25-33.78 9.31-61.84 19.96-73 2.55-2.67 5.08-4.49 7.8-4.97Z"/>
            <path d="M963.54 149.78c11.24-4.74 9.22 11.62 4.77 16.07l-2.29-1.36c5.13-5.19 4.26-14.27.34-13.61-.11.35.13.62-.26.86a6.64 6.64 0 0 1-2.25.35c-1.38.68-4.73 6.2 2.17 12.4l2.28 1.36c3.42 2.2 6.68 2.36 9.49.58 3.29-2.07 6.05-6.94 9-12.34l-.78 5.71c-2.6 3.35-7.7 14.34-19 7.8l-2.3-2c-6.34-6.34-3.87-10.63-4.12-10.75-.46-.22-2.52 4.68-.43 9.4 1.2 2.46 3.75 1.74 4.54 1.35l2.3 2.01c-14.12 9.74-17.12-16.7-3.46-17.83Z"/>
            <path d="M988.43 147.69c.53-1.47 2.09-.9 3.3.47a5.68 5.68 0 0 1 1.3 3.03c.17 2.33-4.88 12.54-2.38 12.47 1.38-.03 3.24-2.2 4.87-4.88a26.36 26.36 0 0 0 1.82-3.68 13.08 13.08 0 0 0 .81-2.51c.31-1.66.26-2.88.78-3.73.68-1.1 2.04-1 3.11 1 1.7 3.16 1.31 5.86.8 9.65s-3.37 12.66.78 11.99 11.34-5.78 16-16.32l1.62.47c-2.87 8.6-10.26 16.25-15.05 17.88-4.76 1.63-11.89.73-8.88-13.9l.03-.12-.08.13c-7.48 11.54-11.28 4.62-11.28 4.62-2.1-4.09 1.55-14.07 2.45-16.57Z"/>
            <path d="M1020.44 151.29c4.42.07 10.49 7.95 10.49 7.95s5.6-5.44 6.75-7.27c.35-.76.04-1.69 1.03-1.77s1.63 1.25-.1 3.97a60.96 60.96 0 0 1-6.12 7.15s1.87 2.41 4.1 5.1c2.16 2.6 4.45 5.47 6.6 5.02 4.4-.97 7.72-6.11 9.95-10.5a67.35 67.35 0 0 0 2.67-5.9c.5-1.35.52-2.01 1.12-2.16s1.16.16.6 2.08c-1.74 5.77-6.57 17.32-13.9 18.85s-14.54-9.1-14.54-9.1c-3.3 3.4-5.73 5.65-6.33 7.8s-2.9 1.38-1.62-1.95 6.43-7.91 6.43-7.91c-3.38-4.25-5.8-6.96-9-6.96a2.23 2.23 0 0 1-1.61-.4c-.69-.58-.55-2.02.53-3a4.35 4.35 0 0 1 2.95-1Z"/>
            <path d="M676.91 136.8c3.4-35.33 7.66-48.41 9.89-56.74 1.56-5.83 6.4-3.94 4.91 1.58-5.95 22.22-15.4 89.3-8.42 90.34s14.21-13.82 14.21-13.82l.48 2.67s-5.85 15.95-13.7 15.95-8.92-10.17-9-10.71-19.32 16.34-22.4-1.34c-2.86-16.45 23.21-26.2 24.03-27.93l-.34 4.98c-25.08 12.75-19.56 23.47-17.57 25.47 3.32 3.34 9.9-.61 16.28-6.28.13-8.94 1.3-19.18 1.3-19.18Z"/>
            <path d="M697.24 159.7c-.06-8.18 6.18-11.68 9.71-11.33 1.83.18 6 .82 4.64 5.76-1.27 4.64-6.71 7.28-9.46 7.28v-1.17a7.8 7.8 0 0 0 3.96-2.1c2.43-2.4 3.57-7.37 2-8.34-1.3-.8-3.79 1.2-5.08 4.59a18.45 18.45 0 0 0-.88 5.85v1.17c-.02 2.66.65 7.88 7.46 7.3 5.18-.45 11.8-6.38 14.12-13.08.17-.48.54-1.37 1.09-.7.2.2.15.75.1 1.06-.88 4.79-6.65 12.95-13.99 14.56-8.15 1.79-13.6-2.67-13.67-10.85Z"/>
            <path d="M723.04 144.41c1.95-2.2 5.97-2.9 8.03-1.5s1.79 3.29.99 3.35c-1.6.12-7.74-.05-8.04 4.3s8.8 5.11 12.78 9.66.86 10.9.86 10.9c2.38.1 6.1.63 10.27-4.47a35.13 35.13 0 0 0 4.84-8.42c.86-2.02 1.32-3.63 1.99-3.65 1.41-.05.5 2.48-.76 5.45a30.75 30.75 0 0 1-6.55 10.27c-4.2 4.66-10.9 2.97-10.9 2.97-3.6 6.15-12.5 7.33-14.6 2.63-2.06-4.65 2.93-8.1 10.84-6.27l-.37 1.88c-4.78-1.07-9.6.05-8.8 3 .85 3.14 7.48 2.8 8.8-3l.37-1.88c1.17-6.73-.22-7.28-6.27-10.66s-7.38-10.16-3.48-14.56Z"/>
            <g>
                <path d="M538.54 84.3c-1.57-7.19 7.01-5.89 8.02.96 0 0 18.17 2.48 27.84 1.76s15.88-4.03 15.88-6.94 2.3-4.54 4-4.09 1.2 14.08-18.59 14.7-29.13-2.05-29.13-2.05l-1.36 38.61s8.14.92 11.6.2 4.18-2.18 5.16-2.64 3.04-.43 2.67.7-3.85 3.66-8.13 4.49-11.3 0-11.3 0c1.43 32.16-5.35 43.96-21.51 47.8s-28.03-4.04-28.1-17.86c-.03-7.58 3.34-12.42 6.51-15.13 2.4-2.05 4.64-2.73 5-1.97.78 1.69-1.43 1.93-4 3.97s-6.07 6.84-4.96 14.7c1.82 12.97 15.57 16.1 25.55 12.64 17.47-6.06 15.43-30.65 15.43-45.32 0 0-8-2.26-12.76-2.58s-4.17 1.97-5.98 1.97.03-4.64 5.98-4.64a47.05 47.05 0 0 1 12.76 2.3l-.58-38.4c-16.11-2.46-26.35-1.36-31.77 6.3s-1.4 16.3 7.57 16.3 5.02-5.46 8.07-5.51 2.97 8.77-7.72 8.77-14.79-7.7-13.68-15.06 10-19.3 37.53-13.98Z"/>
                <path d="M559.24 161.54c-.07-8.18 6.18-11.68 9.7-11.33 1.83.18 6 .82 4.65 5.76-1.28 4.64-6.72 7.28-9.46 7.28v-1.17a7.8 7.8 0 0 0 3.96-2.1c2.43-2.4 3.57-7.37 1.99-8.34-1.3-.8-3.79 1.2-5.07 4.59a18.45 18.45 0 0 0-.88 5.85v1.17c-.03 2.66.64 7.88 7.46 7.3 6.87-.6 12.62-9.03 13.73-11.88l-.13 3.3s-4.14 8.63-12.29 10.42-13.6-2.67-13.66-10.85Z"/>
                <path d="M569.51 141.01c2.33-1.87 5.2 1.34 1.74 2.94s-6.47 4.66-7.3 5.09-1.87-.27-.96-1.6a45.13 45.13 0 0 1 6.52-6.43Z"/>
                <path d="M584.74 161.54c-.07-8.18 6.18-11.68 9.7-11.33 1.83.18 6 .82 4.65 5.76-1.27 4.65-6.72 7.29-9.46 7.29v-1.18a7.8 7.8 0 0 0 3.96-2.1c2.43-2.39 3.57-7.36 1.99-8.34-1.29-.8-3.78 1.2-5.07 4.6a18.45 18.45 0 0 0-.88 5.84v1.18c-.03 2.66.65 7.87 7.46 7.29 5.18-.45 11.8-6.37 14.11-13.07.17-.49.54-1.37 1.1-.7.2.2.15.75.1 1.05-.88 4.8-6.65 12.95-14 14.56-8.14 1.79-13.6-2.67-13.66-10.85Z"/>
            </g>
            <path d="M356.69 91.77c2.53.8-3.03 4.32 2.8 8.81s28.02 1.26 28.02 1.26c.01-.44.51-22.83 19.03-22.61l-3.99 3.12c-3.25 1.1-8.3 5.55-8.98 18.74 10.67-2.26 19.75-6.97 19.75-13.15 0-6.83-7.57-6.82-10.77-5.59l3.99-3.12c16.3.42 17.52 20.53-12.92 24.95 0 0 .57 39.03-10.99 58.26 0 0 4.19 1.83 9.85 4.44 5.31 2.46 12.03 5.69 18.08 7.28a31.76 31.76 0 0 0 7.82 1.03 22.89 22.89 0 0 0 8.15-1.4 10.22 10.22 0 0 0 5.88-4.7c.63-1.11.6-1.95 1.75-1.93 3.37.04-1.14 11.5-15.78 11.61-11.48.28-25.05-7.28-37.78-13.05-7.74 11.79-23.33 13.96-28.03 4.33l4.43-1.36a5.85 5.85 0 0 0 3.44 3.15c3.71 1.36 10.7-.22 15.76-8.29-5.19-2.58-11.77-3.84-15.67-2.52a5.64 5.64 0 0 0-3.52 7.66l-4.44 1.36c-4.23-9.37 8-17.72 24.91-9.61 10.35-20.81 9.94-55.27 9.94-55.27s-19.03 2.64-27.4-.78-5.86-13.4-3.33-12.62Z"/>
            <path d="M421.88 150.65c.12-3.68 2.42-9.79 9.72-9.79 6.48 0 5.21 3.4 4.79 4.29l-.9-.38c.38-.45.82-3-3.03-2.29-2.68.5-4.65 4.1-5.75 7.33-.72 2.1-1.01 4.1.16 4.2 2.3.21 7.1-4.63 7.35-7.44.1-.96.75-1.2 1.28-1.8l.89.38a1.98 1.98 0 0 1 1.32 2.1c-.24 1.37-4.19 18.69 1.53 18.69s12.83-14.02 14.78-18.92c.09-.2.36-1.27 1-1.23s.84.29.53 1.46c-.42 2.1-8.1 21.3-16.55 21.27-10.15-.04-6.29-17.05-6.3-17.06s-2.74 4.52-5.84 4.52-5.1-1.64-4.98-5.33Z"/>
        </g>
    </g>
</svg>
