<svg xmlns="http://www.w3.org/2000/svg" width="5744.789" height="913.634" viewBox="0 0 5744.789 913.634">
  <g id="La_Fée_Des_Cailloux" transform="translate(-86.81 -318.948)">
    <g id="Cailloux" transform="translate(3696.526 318.948)">
      <path id="C" d="M354.465-9.342c50.525,11.876,84.1,41.454,90.12,82.027,3.994,26.834-4.889,61.56-34.209,90.12-70.993,69.153-154.492,46.526-155.482,27.6s68.74,5.243,133.772-44.01S427.278,29.437,333.819,13.921C155.12-15.747,72.222,122.972,43.95,178.886c-47.276,93.5-51.478,256.033,8.4,340.232s254.432,145.418,428.373-25.751l.762,22.452c-74.963,83.566-176.171,116.084-258.6,114.258S88.352,611.338,39.057,570.841C-77.2,475.329-61.764,282.506-15.281,180.129,96.726-66.565,322.187-16.929,354.465-9.342Z" transform="translate(50.035 239.066)" fill="#d0b34c"/>
      <path id="a" d="M-16.644,69.859C-15.688,39.9,3.059-9.832,62.409-9.832c52.762,0,42.448,27.712,38.98,34.9l-7.24-3.116c2.99-3.634,6.591-24.325-24.694-18.582-21.8,4-37.9,33.363-46.839,59.634-5.84,17.138-8.228,33.364,1.306,34.217C42.61,98.895,81.66,59.538,83.773,36.609c.719-7.8,6.038-9.672,10.376-14.655l7.24,3.116c4.25.694,12.278,8.131,10.748,17.056-1.912,11.157-34.075,152.1,12.474,152.1S229.019,80.2,244.864,40.3c.707-1.579,2.935-10.372,8.152-10.02s6.859,2.345,4.3,11.847c-3.4,17.131-65.887,173.354-134.66,173.089C40.095,214.9,71.508,76.477,71.41,76.413s-22.357,36.8-47.571,36.8S-17.6,99.823-16.644,69.859Z" transform="translate(541.823 674.968)" fill="#d0b34c"/>
      <g id="i" transform="translate(782.37 591.902)">
        <path id="Tracé_75" d="M19.36-9.186c21.11,4.571,25.407,21.178,27.2,25.9S21.97,136.642,61.582,145.783s90.108-43.966,106-93.373l1.569,23.742c-10.044,24.881-33.125,59.185-58.591,75.726s-65.081,24.594-91.2,1.088S-10.46,98.335-5.672,52.41-1.749-13.757,19.36-9.186Z" transform="translate(7.602 83.62)" fill="#d0b34c"/>
        <path id="Tracé_74" d="M31.016,0A30.931,30.931,0,1,1,0,30.931,30.973,30.973,0,0,1,31.016,0Z" fill="#d0b34c"/>
      </g>
      <path id="l" d="M35.015,185.634C128.236-26.536,205.664-16.248,233.354,11.442s18.175,104.024,18.175,104.024L221.392,178.92s29.1-159.558-18.78-157.382c-17,.773-40.508,20.668-68.948,64.189C83.584,162.355,14.591,343.469,5.488,583.854,127.921,444.365,176.073,319.507,176.073,319.507l-12.106,68.387S96.175,518.521,4.492,614.161c-3.219,20.6-4.5,251.553,39.464,248.724s88.363-128.86,97.378-150.358l3.277,35.969c-3.8,12.592-20.99,52.035-45.588,92.217S32.756,909.16-9.324,850.821-40.45,657.733-40.45,657.733s-7.78,7.737-11.6,7.331-10.9-6.34-8.623-11.868,20.22-20.091,20.22-20.091S-40.494,357.492,35.015,185.634Z" transform="translate(995 3.258)" fill="#d0b34c"/>
      <path id="l-2" d="M179.057,1.128C290.735-18.7,229.591,198.992,221.866,225.844c-4.388,15.252-23.98,84.149-69.52,172.882C118.588,464.5,69.425,543.182-2.059,616.621h0l1.035-26.9C212.63,364.392,259.418,58.519,210.622,24.393,157.643-12.659,19.755,218.21-1.024,589.721l-1.035,26.9C-7.432,718.339,1.3,866.446,38.121,865.363c37-1.088,83.209-115,83.209-115l4.353,33.82S84.917,887.128,34.2,887.128-52.9,810.7-46.845,659.971c0,0-6.679,8.2-11.588,8.154s-10.575-6.916-8.84-12.5,20.427-20.072,20.427-20.072c2.027-274.886,75.767-503.22,162.41-594C136.326,19.806,156.945,5.055,179.057,1.128Z" transform="translate(1179.757 0.564)" fill="#d0b34c"/>
      <g id="o" transform="translate(1296.584 670.718)">
        <path id="Tracé_108" d="M57.356,2.459c91.516-38.57,75.011,94.561,38.8,130.819L77.579,122.2C119.292,79.991,112.262,6.066,80.334,11.406c-.9,2.856,1.021,5.082-2.11,7.034-3.363,2.22-13.131,2.462-18.29,2.814C48.717,26.8,21.413,71.748,77.579,122.2l18.583,11.079c27.792,17.934,54.355,19.151,77.186,4.712C200.084,121.1,222.588,81.518,246.52,37.537l-6.341,46.556C219.1,111.318,177.6,200.712,85.545,147.6L66.835,131.239c-51.513-51.614-31.4-86.482-33.456-87.474-3.757-1.815-20.48,38.062-3.517,76.441,9.846,20.059,30.539,14.2,36.973,11.033L85.545,147.6C-29.351,226.828-53.744,11.693,57.356,2.459Z" transform="translate(14.436 4.481)" fill="#d0b34c"/>
      </g>
      <path id="u" d="M18.178-3c4.311-11.938,16.959-7.329,26.88,3.82,5.692,6.367,9.884,16.8,10.469,24.645C56.942,44.422,15.848,127.488,36.2,126.973c11.253-.285,26.343-17.968,39.6-39.731A214.47,214.47,0,0,0,90.614,57.272c2.629-6.381,5.313-13.443,6.616-20.426,2.517-13.488,2.074-23.411,6.362-30.3,5.521-8.984,16.568-8.13,25.281,8.036,13.9,25.784,10.7,47.74,6.582,78.623s-27.529,102.935,6.312,97.509S233.978,143.695,271.85,57.939L285.116,61.8c-23.392,69.967-83.495,132.173-122.454,145.45-38.765,13.21-96.764,5.908-72.248-113.1-.051.241.316-.972.2-.955s-.123.19-.662,1.021c-60.8,93.937-91.746,37.545-91.746,37.545C-18.888,98.578,10.821,17.371,18.178-3Z" transform="translate(1552.786 663.681)" fill="#d0b34c"/>
      <path id="x" d="M10.372-2.857c35.995.607,85.367,64.678,85.367,64.678S141.3,17.609,150.632,2.684c2.885-6.171.374-13.7,8.41-14.375s13.239,10.172-.837,32.313S108.472,78.8,108.472,78.8s15.173,19.668,33.4,41.594c17.557,21.128,36.217,44.423,53.76,40.745,35.665-7.833,62.729-49.721,80.93-85.45,11.82-23.2,19.977-43.521,21.671-48.02,4.122-10.947,4.25-16.356,9.144-17.515s9.4,1.29,4.821,16.866c-14.144,46.97-53.475,140.909-113.177,153.359S80.831,106.342,80.831,106.342c-26.8,27.7-46.632,45.991-51.525,63.506S5.642,181.117,16.122,153.975,68.458,89.613,68.458,89.613C40.925,54.991,21.2,32.946-4.825,32.946c-5.376,0-9.555-.074-13.136-3.22-5.54-4.679-4.445-16.415,4.379-24.341C-9.237,1.433-.75-3.045,10.372-2.857Z" transform="translate(1820.973 692.797)" fill="#d0b34c"/>
    </g>
    <g id="Des" transform="translate(2535.428 400.332)">
      <g id="D" transform="translate(0 0)">
        <path id="Tracé_64" d="M147.782,354.4C175.389,66.876,210.051-39.566,228.206-107.32c12.707-47.422,52.037-32.1,40,12.832-48.447,180.808-125.352,726.7-68.538,735.045S315.278,528.148,315.278,528.148l3.918,21.765s-47.628,129.726-111.4,129.726-72.678-82.752-73.289-87.119-157.231,132.918-182.24-10.9C-71.02,447.723,141.143,368.443,147.782,354.4l-2.737,40.52C-59.135,498.652-14.146,585.872,2.012,602.138,29.023,629.33,82.6,597.159,134.5,551.053c1.066-72.785,10.542-156.137,10.542-156.137Z" transform="translate(49.521 136.327)" fill="#d0b34c"/>
      </g>
      <path id="e" d="M24.853,73.835C24.3,7.27,75.138-21.227,103.829-18.358c14.862,1.486,48.776,6.695,37.777,46.862-10.35,37.8-54.651,59.271-76.957,59.271V78.212A63.441,63.441,0,0,0,96.857,61.127c19.785-19.458,29.051-59.933,16.2-67.851-10.477-6.456-30.78,9.753-41.265,37.338-4.474,11.77-6.679,28.077-7.144,47.6v9.563c-.214,21.661,5.254,64.058,60.7,59.319,42.125-3.6,95.945-51.832,114.845-106.32,1.377-3.971,4.386-11.16,8.875-5.753,1.626,1.626,1.264,6.147.806,8.649C242.74,82.6,195.811,149,136.052,162.115,69.77,176.657,25.407,140.4,24.853,73.835Z" transform="translate(337.858 603.171)" fill="#d0b34c"/>
      <path id="s" d="M12.279,16.3C28.191-1.674,60.87-7.363,77.612,4.022s14.54,26.79,8.036,27.29c-13.06,1-62.907-.426-65.453,34.943s71.577,41.629,103.979,78.678,7.011,88.7,7.011,88.7c19.413.769,49.715,5.139,83.555-36.426,17.935-22.03,30.6-47.631,39.432-68.471,6.978-16.467,10.747-29.534,16.148-29.721,11.491-.4,4.081,20.2-6.149,44.357s-19.153,45.707-53.286,83.6-88.625,24.121-88.625,24.121C92.912,301.1,20.477,310.723,3.5,272.525c-16.841-37.893,23.783-65.948,88.158-51.083l-3.046,15.324c-38.865-8.676-78.12.421-71.575,24.445C24,286.784,77.9,284.013,88.612,236.766l3.046-15.324c9.46-54.74-1.858-59.268-51.091-86.714S-19.419,52.107,12.279,16.3Z" transform="translate(560.32 536.344)" fill="#d0b34c"/>
    </g>
    <g id="Fée" transform="translate(1257.38 395.654)">
      <path id="F" d="M302.254,52.552C289.5-5.955,359.319,4.63,367.49,60.338c0,0,147.867,20.148,226.565,14.354s129.233-32.83,129.233-56.507,18.643-36.9,32.5-33.24S765.556,99.5,604.576,104.556s-237.086-16.7-237.086-16.7L356.479,402.02s66.168,7.443,94.309,1.587,34.03-17.766,42.008-21.534,24.778-3.485,21.722,5.748-31.3,29.787-66.159,36.5-91.88,0-91.88,0C368.1,686.068,312.941,782.064,181.41,813.355S-46.647,780.473-47.177,668.035c-.291-61.728,27.161-101.093,52.952-123.183,19.445-16.669,37.7-22.159,40.6-15.975,6.428,13.713-11.6,15.713-32.453,32.283s-49.413,55.646-40.413,119.6c14.85,105.543,126.742,131.055,207.9,102.891C323.545,734.331,307,534.192,307,414.828c0,0-65.124-18.338-103.833-20.99s-33.976,16.053-48.638,16.053.17-37.768,48.638-37.768S307,390.9,307,390.9L302.254,78.364c-131.1-19.943-214.43-11.031-258.511,51.3S32.26,262.347,105.328,262.347s40.8-44.469,65.684-44.877,24.166,71.4-62.828,71.4S-12.178,226.24-3.162,166.309,78.276,9.307,302.254,52.552Z" transform="translate(47.179 15.658)" fill="#d0b34c"/>
      <g id="é" transform="translate(517.84 525.01)">
        <path id="e-2" d="M24.853,73.835C24.3,7.27,75.138-21.227,103.829-18.358c14.862,1.486,48.776,6.695,37.777,46.862-10.35,37.8-54.651,59.271-76.957,59.271V78.212A63.441,63.441,0,0,0,96.857,61.127c19.785-19.458,29.051-59.933,16.2-67.851-10.477-6.456-30.78,9.753-41.265,37.338-4.474,11.77-6.679,28.077-7.144,47.6v9.563c-.214,21.661,5.254,64.058,60.7,59.319,55.948-4.782,102.731-73.445,111.747-96.627l-1.03,26.917s-33.729,70.189-100.011,84.731S25.407,140.4,24.853,73.835Z" transform="translate(-24.849 97.824)" fill="#d0b34c"/>
        <path id="Tracé_59" d="M50.2,2.95C69.133-12.286,92.422,13.833,64.345,26.892S11.672,64.764,4.925,68.246-10.311,66.07-2.91,55.187,31.261,18.186,50.2,2.95Z" transform="translate(33.44 1.683)" fill="#d0b34c"/>
      </g>
      <path id="e-3" d="M24.853,73.835C24.3,7.27,75.138-21.227,103.829-18.358c14.862,1.486,48.776,6.695,37.777,46.862-10.35,37.8-54.651,59.271-76.957,59.271V78.212A63.441,63.441,0,0,0,96.857,61.127c19.785-19.458,29.051-59.933,16.2-67.851-10.477-6.456-30.78,9.753-41.265,37.338-4.474,11.77-6.679,28.077-7.144,47.6v9.563c-.214,21.661,5.254,64.058,60.7,59.319,42.125-3.6,95.945-51.832,114.845-106.32,1.377-3.971,4.386-11.16,8.875-5.753,1.626,1.626,1.264,6.147.806,8.649C242.74,82.6,195.811,149,136.052,162.115,69.77,176.657,25.407,140.4,24.853,73.835Z" transform="translate(700.491 622.855)" fill="#d0b34c"/>
    </g>
    <g id="La" transform="translate(86.81 422.562)">
      <path id="L-3" d="M10.5,79.585c20.577,6.449-24.61,35.14,22.757,71.688S261.31,161.505,261.31,161.505c.116-3.556,4.139-185.766,154.829-184L383.69,2.949c-26.438,8.852-67.567,45.119-73.1,152.413,86.831-18.386,160.761-56.694,160.761-106.976,0-55.6-61.623-55.5-87.661-45.437l32.449-25.44C548.846-19.065,558.7,144.59,311.006,180.579c0,0,4.623,317.521-89.4,474.007,0,0,34.066,14.867,80.119,36.159,43.25,20,97.9,46.267,147.134,59.221a258.4,258.4,0,0,0,63.6,8.386c28.868,0,49.2-5.313,66.327-11.466,27.656-9.924,40.5-25.076,47.851-38.141,5.122-9.1,4.831-15.929,14.227-15.793,27.4.4-9.283,93.656-128.4,94.5-93.374,2.264-203.828-59.23-307.375-106.151-63.01,95.879-189.8,113.565-228.051,35.216l36.064-11.065c4.1,9.262,12.441,20,27.984,25.656,30.15,11.009,87.06-1.842,128.181-67.452-42.171-20.995-95.788-31.26-127.464-20.55-26.081,8.819-39.711,35.684-28.7,62.346l-36.064,11.065c-34.37-76.233,65.051-144.222,202.7-78.224,84.179-169.291,80.81-449.7,80.81-449.7s-154.767,21.44-222.892-6.336S-10.078,73.135,10.5,79.585Z" transform="translate(29.812 22.503)" fill="#d0b34c" style="mix-blend-mode: darken;isolation: isolate"/>
      <path id="a-2" d="M-16.644,69.859C-15.688,39.9,3.059-9.832,62.409-9.832c52.762,0,42.448,27.712,38.98,34.9l-7.24-3.116c2.99-3.634,6.591-24.325-24.694-18.582-21.8,4-37.9,33.363-46.839,59.634-5.84,17.138-8.228,33.364,1.306,34.217C42.61,98.895,81.66,59.538,83.773,36.609c.719-7.8,6.038-9.672,10.376-14.655l7.24,3.116c4.25.694,12.278,8.131,10.748,17.056-1.912,11.157-34.075,152.1,12.474,152.1S229.019,80.2,244.864,40.3c.707-1.579,2.935-10.372,8.152-10.02s6.859,2.345,4.3,11.847c-3.4,17.131-65.887,173.354-134.66,173.089C40.095,214.9,71.508,76.477,71.41,76.413s-22.357,36.8-47.571,36.8S-17.6,99.823-16.644,69.859Z" transform="translate(587.424 511.327)" fill="#d0b34c"/>
    </g>
  </g>
</svg>
